0
SECTION
2
ENTITIES
0
LINE
8
FORMER
10
0.0000
20
-114.3000
30
0.0
11
0.0000
21
114.3000
31
0.0
0
LINE
8
FORMER
10
0.0000
20
114.3000
30
0.0
11
1.5602
21
114.6814
31
0.0
0
LINE
8
FORMER
10
1.5602
20
114.6814
30
0.0
11
3.1254
21
115.0546
31
0.0
0
LINE
8
FORMER
10
3.1254
20
115.0546
30
0.0
11
4.6955
21
115.4196
31
0.0
0
LINE
8
FORMER
10
4.6955
20
115.4196
30
0.0
11
6.2705
21
115.7764
31
0.0
0
LINE
8
FORMER
10
6.2705
20
115.7764
30
0.0
11
7.8502
21
116.1251
31
0.0
0
LINE
8
FORMER
10
7.8502
20
116.1251
30
0.0
11
9.4347
21
116.4657
31
0.0
0
LINE
8
FORMER
10
9.4347
20
116.4657
30
0.0
11
11.0237
21
116.7983
31
0.0
0
LINE
8
FORMER
10
11.0237
20
116.7983
30
0.0
11
12.6173
21
117.1229
31
0.0
0
LINE
8
FORMER
10
12.6173
20
117.1229
30
0.0
11
14.2153
21
117.4394
31
0.0
0
LINE
8
FORMER
10
14.2153
20
117.4394
30
0.0
11
15.8177
21
117.7480
31
0.0
0
LINE
8
FORMER
10
15.8177
20
117.7480
30
0.0
11
17.4243
21
118.0486
31
0.0
0
LINE
8
FORMER
10
17.4243
20
118.0486
30
0.0
11
19.0352
21
118.3413
31
0.0
0
LINE
8
FORMER
10
19.0352
20
118.3413
30
0.0
11
20.6502
21
118.6262
31
0.0
0
LINE
8
FORMER
10
20.6502
20
118.6262
30
0.0
11
22.2692
21
118.9032
31
0.0
0
LINE
8
FORMER
10
22.2692
20
118.9032
30
0.0
11
23.8922
21
119.1724
31
0.0
0
LINE
8
FORMER
10
23.8922
20
119.1724
30
0.0
11
25.5190
21
119.4338
31
0.0
0
LINE
8
FORMER
10
25.5190
20
119.4338
30
0.0
11
27.1497
21
119.6874
31
0.0
0
LINE
8
FORMER
10
27.1497
20
119.6874
30
0.0
11
28.7841
21
119.9333
31
0.0
0
LINE
8
FORMER
10
28.7841
20
119.9333
30
0.0
11
30.4222
21
120.1715
31
0.0
0
LINE
8
FORMER
10
30.4222
20
120.1715
30
0.0
11
32.0638
21
120.4021
31
0.0
0
LINE
8
FORMER
10
32.0638
20
120.4021
30
0.0
11
33.7089
21
120.6250
31
0.0
0
LINE
8
FORMER
10
33.7089
20
120.6250
30
0.0
11
35.3573
21
120.8403
31
0.0
0
LINE
8
FORMER
10
35.3573
20
120.8403
30
0.0
11
37.0091
21
121.0480
31
0.0
0
LINE
8
FORMER
10
37.0091
20
121.0480
30
0.0
11
38.6642
21
121.2482
31
0.0
0
LINE
8
FORMER
10
38.6642
20
121.2482
30
0.0
11
40.3224
21
121.4409
31
0.0
0
LINE
8
FORMER
10
40.3224
20
121.4409
30
0.0
11
41.9837
21
121.6261
31
0.0
0
LINE
8
FORMER
10
41.9837
20
121.6261
30
0.0
11
43.6479
21
121.8038
31
0.0
0
LINE
8
FORMER
10
43.6479
20
121.8038
30
0.0
11
45.3151
21
121.9741
31
0.0
0
LINE
8
FORMER
10
45.3151
20
121.9741
30
0.0
11
46.9852
21
122.1370
31
0.0
0
LINE
8
FORMER
10
46.9852
20
122.1370
30
0.0
11
48.6580
21
122.2926
31
0.0
0
LINE
8
FORMER
10
48.6580
20
122.2926
30
0.0
11
50.3335
21
122.4408
31
0.0
0
LINE
8
FORMER
10
50.3335
20
122.4408
30
0.0
11
52.0115
21
122.5817
31
0.0
0
LINE
8
FORMER
10
52.0115
20
122.5817
30
0.0
11
53.6921
21
122.7153
31
0.0
0
LINE
8
FORMER
10
53.6921
20
122.7153
30
0.0
11
55.3751
21
122.8417
31
0.0
0
LINE
8
FORMER
10
55.3751
20
122.8417
30
0.0
11
57.0605
21
122.9609
31
0.0
0
LINE
8
FORMER
10
57.0605
20
122.9609
30
0.0
11
58.7482
21
123.0729
31
0.0
0
LINE
8
FORMER
10
58.7482
20
123.0729
30
0.0
11
60.4380
21
123.1777
31
0.0
0
LINE
8
FORMER
10
60.4380
20
123.1777
30
0.0
11
62.1300
21
123.2754
31
0.0
0
LINE
8
FORMER
10
62.1300
20
123.2754
30
0.0
11
63.8240
21
123.3661
31
0.0
0
LINE
8
FORMER
10
63.8240
20
123.3661
30
0.0
11
65.5199
21
123.4496
31
0.0
0
LINE
8
FORMER
10
65.5199
20
123.4496
30
0.0
11
67.2178
21
123.5262
31
0.0
0
LINE
8
FORMER
10
67.2178
20
123.5262
30
0.0
11
68.9174
21
123.5957
31
0.0
0
LINE
8
FORMER
10
68.9174
20
123.5957
30
0.0
11
70.6187
21
123.6583
31
0.0
0
LINE
8
FORMER
10
70.6187
20
123.6583
30
0.0
11
72.3217
21
123.7139
31
0.0
0
LINE
8
FORMER
10
72.3217
20
123.7139
30
0.0
11
74.0262
21
123.7626
31
0.0
0
LINE
8
FORMER
10
74.0262
20
123.7626
30
0.0
11
75.7322
21
123.8044
31
0.0
0
LINE
8
FORMER
10
75.7322
20
123.8044
30
0.0
11
77.4396
21
123.8394
31
0.0
0
LINE
8
FORMER
10
77.4396
20
123.8394
30
0.0
11
79.1482
21
123.8676
31
0.0
0
LINE
8
FORMER
10
79.1482
20
123.8676
30
0.0
11
80.8582
21
123.8889
31
0.0
0
LINE
8
FORMER
10
80.8582
20
123.8889
30
0.0
11
82.5692
21
123.9035
31
0.0
0
LINE
8
FORMER
10
82.5692
20
123.9035
30
0.0
11
84.2814
21
123.9114
31
0.0
0
LINE
8
FORMER
10
84.2814
20
123.9114
30
0.0
11
85.9945
21
123.9126
31
0.0
0
LINE
8
FORMER
10
85.9945
20
123.9126
30
0.0
11
87.7086
21
123.9071
31
0.0
0
LINE
8
FORMER
10
87.7086
20
123.9071
30
0.0
11
89.4234
21
123.8950
31
0.0
0
LINE
8
FORMER
10
89.4234
20
123.8950
30
0.0
11
91.1391
21
123.8763
31
0.0
0
LINE
8
FORMER
10
91.1391
20
123.8763
30
0.0
11
92.8553
21
123.8510
31
0.0
0
LINE
8
FORMER
10
92.8553
20
123.8510
30
0.0
11
94.5722
21
123.8191
31
0.0
0
LINE
8
FORMER
10
94.5722
20
123.8191
30
0.0
11
96.2896
21
123.7807
31
0.0
0
LINE
8
FORMER
10
96.2896
20
123.7807
30
0.0
11
98.0074
21
123.7359
31
0.0
0
LINE
8
FORMER
10
98.0074
20
123.7359
30
0.0
11
99.7256
21
123.6845
31
0.0
0
LINE
8
FORMER
10
99.7256
20
123.6845
30
0.0
11
101.4440
21
123.6268
31
0.0
0
LINE
8
FORMER
10
101.4440
20
123.6268
30
0.0
11
103.1626
21
123.5627
31
0.0
0
LINE
8
FORMER
10
103.1626
20
123.5627
30
0.0
11
104.8813
21
123.4922
31
0.0
0
LINE
8
FORMER
10
104.8813
20
123.4922
30
0.0
11
106.6001
21
123.4153
31
0.0
0
LINE
8
FORMER
10
106.6001
20
123.4153
30
0.0
11
108.3187
21
123.3322
31
0.0
0
LINE
8
FORMER
10
108.3187
20
123.3322
30
0.0
11
110.0373
21
123.2427
31
0.0
0
LINE
8
FORMER
10
110.0373
20
123.2427
30
0.0
11
111.7556
21
123.1471
31
0.0
0
LINE
8
FORMER
10
111.7556
20
123.1471
30
0.0
11
113.4737
21
123.0452
31
0.0
0
LINE
8
FORMER
10
113.4737
20
123.0452
30
0.0
11
115.1913
21
122.9371
31
0.0
0
LINE
8
FORMER
10
115.1913
20
122.9371
30
0.0
11
116.9085
21
122.8229
31
0.0
0
LINE
8
FORMER
10
116.9085
20
122.8229
30
0.0
11
118.6252
21
122.7025
31
0.0
0
LINE
8
FORMER
10
118.6252
20
122.7025
30
0.0
11
120.3413
21
122.5761
31
0.0
0
LINE
8
FORMER
10
120.3413
20
122.5761
30
0.0
11
122.0566
21
122.4436
31
0.0
0
LINE
8
FORMER
10
122.0566
20
122.4436
30
0.0
11
123.7712
21
122.3050
31
0.0
0
LINE
8
FORMER
10
123.7712
20
122.3050
30
0.0
11
125.4849
21
122.1605
31
0.0
0
LINE
8
FORMER
10
125.4849
20
122.1605
30
0.0
11
127.1977
21
122.0100
31
0.0
0
LINE
8
FORMER
10
127.1977
20
122.0100
30
0.0
11
128.9094
21
121.8535
31
0.0
0
LINE
8
FORMER
10
128.9094
20
121.8535
30
0.0
11
130.6201
21
121.6911
31
0.0
0
LINE
8
FORMER
10
130.6201
20
121.6911
30
0.0
11
132.3296
21
121.5229
31
0.0
0
LINE
8
FORMER
10
132.3296
20
121.5229
30
0.0
11
134.0378
21
121.3488
31
0.0
0
LINE
8
FORMER
10
134.0378
20
121.3488
30
0.0
11
135.7447
21
121.1688
31
0.0
0
LINE
8
FORMER
10
135.7447
20
121.1688
30
0.0
11
137.4501
21
120.9831
31
0.0
0
LINE
8
FORMER
10
137.4501
20
120.9831
30
0.0
11
139.1541
21
120.7916
31
0.0
0
LINE
8
FORMER
10
139.1541
20
120.7916
30
0.0
11
140.8564
21
120.5944
31
0.0
0
LINE
8
FORMER
10
140.8564
20
120.5944
30
0.0
11
142.5572
21
120.3915
31
0.0
0
LINE
8
FORMER
10
142.5572
20
120.3915
30
0.0
11
144.2561
21
120.1829
31
0.0
0
LINE
8
FORMER
10
144.2561
20
120.1829
30
0.0
11
145.9533
21
119.9687
31
0.0
0
LINE
8
FORMER
10
145.9533
20
119.9687
30
0.0
11
147.6485
21
119.7489
31
0.0
0
LINE
8
FORMER
10
147.6485
20
119.7489
30
0.0
11
149.3418
21
119.5234
31
0.0
0
LINE
8
FORMER
10
149.3418
20
119.5234
30
0.0
11
151.0330
21
119.2925
31
0.0
0
LINE
8
FORMER
10
151.0330
20
119.2925
30
0.0
11
152.7220
21
119.0560
31
0.0
0
LINE
8
FORMER
10
152.7220
20
119.0560
30
0.0
11
154.4088
21
118.8140
31
0.0
0
LINE
8
FORMER
10
154.4088
20
118.8140
30
0.0
11
156.0933
21
118.5666
31
0.0
0
LINE
8
FORMER
10
156.0933
20
118.5666
30
0.0
11
157.7755
21
118.3137
31
0.0
0
LINE
8
FORMER
10
157.7755
20
118.3137
30
0.0
11
159.4551
21
118.0554
31
0.0
0
LINE
8
FORMER
10
159.4551
20
118.0554
30
0.0
11
161.1323
21
117.7918
31
0.0
0
LINE
8
FORMER
10
161.1323
20
117.7918
30
0.0
11
162.8068
21
117.5228
31
0.0
0
LINE
8
FORMER
10
162.8068
20
117.5228
30
0.0
11
164.4785
21
117.2486
31
0.0
0
LINE
8
FORMER
10
164.4785
20
117.2486
30
0.0
11
166.1475
21
116.9690
31
0.0
0
LINE
8
FORMER
10
166.1475
20
116.9690
30
0.0
11
167.8137
21
116.6842
31
0.0
0
LINE
8
FORMER
10
167.8137
20
116.6842
30
0.0
11
169.4769
21
116.3942
31
0.0
0
LINE
8
FORMER
10
169.4769
20
116.3942
30
0.0
11
171.1370
21
116.0990
31
0.0
0
LINE
8
FORMER
10
171.1370
20
116.0990
30
0.0
11
172.7941
21
115.7986
31
0.0
0
LINE
8
FORMER
10
172.7941
20
115.7986
30
0.0
11
174.4479
21
115.4931
31
0.0
0
LINE
8
FORMER
10
174.4479
20
115.4931
30
0.0
11
176.0985
21
115.1826
31
0.0
0
LINE
8
FORMER
10
176.0985
20
115.1826
30
0.0
11
177.7457
21
114.8669
31
0.0
0
LINE
8
FORMER
10
177.7457
20
114.8669
30
0.0
11
179.3895
21
114.5462
31
0.0
0
LINE
8
FORMER
10
179.3895
20
114.5462
30
0.0
11
181.0298
21
114.2205
31
0.0
0
LINE
8
FORMER
10
181.0298
20
114.2205
30
0.0
11
182.6666
21
113.8899
31
0.0
0
LINE
8
FORMER
10
182.6666
20
113.8899
30
0.0
11
184.2996
21
113.5543
31
0.0
0
LINE
8
FORMER
10
184.2996
20
113.5543
30
0.0
11
185.9289
21
113.2137
31
0.0
0
LINE
8
FORMER
10
185.9289
20
113.2137
30
0.0
11
187.5543
21
112.8683
31
0.0
0
LINE
8
FORMER
10
187.5543
20
112.8683
30
0.0
11
189.1759
21
112.5180
31
0.0
0
LINE
8
FORMER
10
189.1759
20
112.5180
30
0.0
11
190.7934
21
112.1630
31
0.0
0
LINE
8
FORMER
10
190.7934
20
112.1630
30
0.0
11
192.4069
21
111.8031
31
0.0
0
LINE
8
FORMER
10
192.4069
20
111.8031
30
0.0
11
194.0162
21
111.4384
31
0.0
0
LINE
8
FORMER
10
194.0162
20
111.4384
30
0.0
11
195.6213
21
111.0690
31
0.0
0
LINE
8
FORMER
10
195.6213
20
111.0690
30
0.0
11
197.2220
21
110.6950
31
0.0
0
LINE
8
FORMER
10
197.2220
20
110.6950
30
0.0
11
198.8184
21
110.3162
31
0.0
0
LINE
8
FORMER
10
198.8184
20
110.3162
30
0.0
11
200.4103
21
109.9328
31
0.0
0
LINE
8
FORMER
10
200.4103
20
109.9328
30
0.0
11
201.9977
21
109.5448
31
0.0
0
LINE
8
FORMER
10
201.9977
20
109.5448
30
0.0
11
203.5804
21
109.1522
31
0.0
0
LINE
8
FORMER
10
203.5804
20
109.1522
30
0.0
11
205.1584
21
108.7551
31
0.0
0
LINE
8
FORMER
10
205.1584
20
108.7551
30
0.0
11
206.7316
21
108.3534
31
0.0
0
LINE
8
FORMER
10
206.7316
20
108.3534
30
0.0
11
208.2999
21
107.9472
31
0.0
0
LINE
8
FORMER
10
208.2999
20
107.9472
30
0.0
11
209.8633
21
107.5366
31
0.0
0
LINE
8
FORMER
10
209.8633
20
107.5366
30
0.0
11
211.4216
21
107.1216
31
0.0
0
LINE
8
FORMER
10
211.4216
20
107.1216
30
0.0
11
212.9748
21
106.7021
31
0.0
0
LINE
8
FORMER
10
212.9748
20
106.7021
30
0.0
11
214.5228
21
106.2783
31
0.0
0
LINE
8
FORMER
10
214.5228
20
106.2783
30
0.0
11
216.0655
21
105.8501
31
0.0
0
LINE
8
FORMER
10
216.0655
20
105.8501
30
0.0
11
217.6029
21
105.4177
31
0.0
0
LINE
8
FORMER
10
217.6029
20
105.4177
30
0.0
11
219.1348
21
104.9809
31
0.0
0
LINE
8
FORMER
10
219.1348
20
104.9809
30
0.0
11
220.6612
21
104.5399
31
0.0
0
LINE
8
FORMER
10
220.6612
20
104.5399
30
0.0
11
222.1821
21
104.0947
31
0.0
0
LINE
8
FORMER
10
222.1821
20
104.0947
30
0.0
11
223.6972
21
103.6453
31
0.0
0
LINE
8
FORMER
10
223.6972
20
103.6453
30
0.0
11
225.2066
21
103.1917
31
0.0
0
LINE
8
FORMER
10
225.2066
20
103.1917
30
0.0
11
226.7101
21
102.7340
31
0.0
0
LINE
8
FORMER
10
226.7101
20
102.7340
30
0.0
11
228.2077
21
102.2722
31
0.0
0
LINE
8
FORMER
10
228.2077
20
102.2722
30
0.0
11
229.6993
21
101.8064
31
0.0
0
LINE
8
FORMER
10
229.6993
20
101.8064
30
0.0
11
231.1848
21
101.3365
31
0.0
0
LINE
8
FORMER
10
231.1848
20
101.3365
30
0.0
11
232.6642
21
100.8626
31
0.0
0
LINE
8
FORMER
10
232.6642
20
100.8626
30
0.0
11
234.1373
21
100.3847
31
0.0
0
LINE
8
FORMER
10
234.1373
20
100.3847
30
0.0
11
235.6041
21
99.9029
31
0.0
0
LINE
8
FORMER
10
235.6041
20
99.9029
30
0.0
11
237.0645
21
99.4171
31
0.0
0
LINE
8
FORMER
10
237.0645
20
99.4171
30
0.0
11
238.5184
21
98.9275
31
0.0
0
LINE
8
FORMER
10
238.5184
20
98.9275
30
0.0
11
239.9657
21
98.4340
31
0.0
0
LINE
8
FORMER
10
239.9657
20
98.4340
30
0.0
11
241.4064
21
97.9367
31
0.0
0
LINE
8
FORMER
10
241.4064
20
97.9367
30
0.0
11
242.8404
21
97.4356
31
0.0
0
LINE
8
FORMER
10
242.8404
20
97.4356
30
0.0
11
244.2676
21
96.9307
31
0.0
0
LINE
8
FORMER
10
244.2676
20
96.9307
30
0.0
11
245.6879
21
96.4221
31
0.0
0
LINE
8
FORMER
10
245.6879
20
96.4221
30
0.0
11
247.1012
21
95.9097
31
0.0
0
LINE
8
FORMER
10
247.1012
20
95.9097
30
0.0
11
248.5074
21
95.3938
31
0.0
0
LINE
8
FORMER
10
248.5074
20
95.3938
30
0.0
11
249.9066
21
94.8741
31
0.0
0
LINE
8
FORMER
10
249.9066
20
94.8741
30
0.0
11
251.2985
21
94.3509
31
0.0
0
LINE
8
FORMER
10
251.2985
20
94.3509
30
0.0
11
252.6832
21
93.8240
31
0.0
0
LINE
8
FORMER
10
252.6832
20
93.8240
30
0.0
11
254.0605
21
93.2936
31
0.0
0
LINE
8
FORMER
10
254.0605
20
93.2936
30
0.0
11
255.4303
21
92.7597
31
0.0
0
LINE
8
FORMER
10
255.4303
20
92.7597
30
0.0
11
256.7926
21
92.2223
31
0.0
0
LINE
8
FORMER
10
256.7926
20
92.2223
30
0.0
11
258.1473
21
91.6814
31
0.0
0
LINE
8
FORMER
10
258.1473
20
91.6814
30
0.0
11
259.4943
21
91.1371
31
0.0
0
LINE
8
FORMER
10
259.4943
20
91.1371
30
0.0
11
260.8335
21
90.5894
31
0.0
0
LINE
8
FORMER
10
260.8335
20
90.5894
30
0.0
11
262.1649
21
90.0384
31
0.0
0
LINE
8
FORMER
10
262.1649
20
90.0384
30
0.0
11
263.4883
21
89.4839
31
0.0
0
LINE
8
FORMER
10
263.4883
20
89.4839
30
0.0
11
264.8038
21
88.9262
31
0.0
0
LINE
8
FORMER
10
264.8038
20
88.9262
30
0.0
11
266.1111
21
88.3652
31
0.0
0
LINE
8
FORMER
10
266.1111
20
88.3652
30
0.0
11
267.4103
21
87.8009
31
0.0
0
LINE
8
FORMER
10
267.4103
20
87.8009
30
0.0
11
268.7012
21
87.2334
31
0.0
0
LINE
8
FORMER
10
268.7012
20
87.2334
30
0.0
11
269.9838
21
86.6628
31
0.0
0
LINE
8
FORMER
10
269.9838
20
86.6628
30
0.0
11
271.2580
21
86.0889
31
0.0
0
LINE
8
FORMER
10
271.2580
20
86.0889
30
0.0
11
272.5237
21
85.5120
31
0.0
0
LINE
8
FORMER
10
272.5237
20
85.5120
30
0.0
11
273.7808
21
84.9319
31
0.0
0
LINE
8
FORMER
10
273.7808
20
84.9319
30
0.0
11
275.0293
21
84.3487
31
0.0
0
LINE
8
FORMER
10
275.0293
20
84.3487
30
0.0
11
276.2690
21
83.7626
31
0.0
0
LINE
8
FORMER
10
276.2690
20
83.7626
30
0.0
11
277.4999
21
83.1734
31
0.0
0
LINE
8
FORMER
10
277.4999
20
83.1734
30
0.0
11
278.7219
21
82.5812
31
0.0
0
LINE
8
FORMER
10
278.7219
20
82.5812
30
0.0
11
279.9350
21
81.9861
31
0.0
0
LINE
8
FORMER
10
279.9350
20
81.9861
30
0.0
11
281.1389
21
81.3880
31
0.0
0
LINE
8
FORMER
10
281.1389
20
81.3880
30
0.0
11
282.3338
21
80.7871
31
0.0
0
LINE
8
FORMER
10
282.3338
20
80.7871
30
0.0
11
283.5194
21
80.1833
31
0.0
0
LINE
8
FORMER
10
283.5194
20
80.1833
30
0.0
11
284.6958
21
79.5767
31
0.0
0
LINE
8
FORMER
10
284.6958
20
79.5767
30
0.0
11
285.8627
21
78.9673
31
0.0
0
LINE
8
FORMER
10
285.8627
20
78.9673
30
0.0
11
287.0202
21
78.3551
31
0.0
0
LINE
8
FORMER
10
287.0202
20
78.3551
30
0.0
11
288.1682
21
77.7402
31
0.0
0
LINE
8
FORMER
10
288.1682
20
77.7402
30
0.0
11
289.3065
21
77.1226
31
0.0
0
LINE
8
FORMER
10
289.3065
20
77.1226
30
0.0
11
290.4352
21
76.5023
31
0.0
0
LINE
8
FORMER
10
290.4352
20
76.5023
30
0.0
11
291.5540
21
75.8794
31
0.0
0
LINE
8
FORMER
10
291.5540
20
75.8794
30
0.0
11
292.6631
21
75.2538
31
0.0
0
LINE
8
FORMER
10
292.6631
20
75.2538
30
0.0
11
293.7621
21
74.6256
31
0.0
0
LINE
8
FORMER
10
293.7621
20
74.6256
30
0.0
11
294.8512
21
73.9949
31
0.0
0
LINE
8
FORMER
10
294.8512
20
73.9949
30
0.0
11
295.9301
21
73.3617
31
0.0
0
LINE
8
FORMER
10
295.9301
20
73.3617
30
0.0
11
296.9989
21
72.7260
31
0.0
0
LINE
8
FORMER
10
296.9989
20
72.7260
30
0.0
11
298.0574
21
72.0878
31
0.0
0
LINE
8
FORMER
10
298.0574
20
72.0878
30
0.0
11
299.1056
21
71.4472
31
0.0
0
LINE
8
FORMER
10
299.1056
20
71.4472
30
0.0
11
300.1433
21
70.8041
31
0.0
0
LINE
8
FORMER
10
300.1433
20
70.8041
30
0.0
11
301.1705
21
70.1587
31
0.0
0
LINE
8
FORMER
10
301.1705
20
70.1587
30
0.0
11
302.1872
21
69.5110
31
0.0
0
LINE
8
FORMER
10
302.1872
20
69.5110
30
0.0
11
303.1932
21
68.8609
31
0.0
0
LINE
8
FORMER
10
303.1932
20
68.8609
30
0.0
11
304.1884
21
68.2086
31
0.0
0
LINE
8
FORMER
10
304.1884
20
68.2086
30
0.0
11
305.1729
21
67.5540
31
0.0
0
LINE
8
FORMER
10
305.1729
20
67.5540
30
0.0
11
306.1464
21
66.8972
31
0.0
0
LINE
8
FORMER
10
306.1464
20
66.8972
30
0.0
11
306.1464
21
66.8972
31
0.0
0
LINE
8
FORMER
10
306.1464
20
66.8972
30
0.0
11
306.4849
21
66.6851
31
0.0
0
LINE
8
FORMER
10
306.4849
20
66.6851
30
0.0
11
306.8223
21
66.4713
31
0.0
0
LINE
8
FORMER
10
306.8223
20
66.4713
30
0.0
11
307.1587
21
66.2558
31
0.0
0
LINE
8
FORMER
10
307.1587
20
66.2558
30
0.0
11
307.4939
21
66.0386
31
0.0
0
LINE
8
FORMER
10
307.4939
20
66.0386
30
0.0
11
307.8281
21
65.8196
31
0.0
0
LINE
8
FORMER
10
307.8281
20
65.8196
30
0.0
11
308.1611
21
65.5991
31
0.0
0
LINE
8
FORMER
10
308.1611
20
65.5991
30
0.0
11
308.4930
21
65.3768
31
0.0
0
LINE
8
FORMER
10
308.4930
20
65.3768
30
0.0
11
308.8238
21
65.1528
31
0.0
0
LINE
8
FORMER
10
308.8238
20
65.1528
30
0.0
11
309.1534
21
64.9272
31
0.0
0
LINE
8
FORMER
10
309.1534
20
64.9272
30
0.0
11
309.4819
21
64.6999
31
0.0
0
LINE
8
FORMER
10
309.4819
20
64.6999
30
0.0
11
309.8092
21
64.4709
31
0.0
0
LINE
8
FORMER
10
309.8092
20
64.4709
30
0.0
11
310.1354
21
64.2403
31
0.0
0
LINE
8
FORMER
10
310.1354
20
64.2403
30
0.0
11
310.4604
21
64.0080
31
0.0
0
LINE
8
FORMER
10
310.4604
20
64.0080
30
0.0
11
310.7842
21
63.7741
31
0.0
0
LINE
8
FORMER
10
310.7842
20
63.7741
30
0.0
11
311.1068
21
63.5386
31
0.0
0
LINE
8
FORMER
10
311.1068
20
63.5386
30
0.0
11
311.4282
21
63.3014
31
0.0
0
LINE
8
FORMER
10
311.4282
20
63.3014
30
0.0
11
311.7484
21
63.0626
31
0.0
0
LINE
8
FORMER
10
311.7484
20
63.0626
30
0.0
11
312.0674
21
62.8221
31
0.0
0
LINE
8
FORMER
10
312.0674
20
62.8221
30
0.0
11
312.3852
21
62.5801
31
0.0
0
LINE
8
FORMER
10
312.3852
20
62.5801
30
0.0
11
312.7018
21
62.3365
31
0.0
0
LINE
8
FORMER
10
312.7018
20
62.3365
30
0.0
11
313.0171
21
62.0912
31
0.0
0
LINE
8
FORMER
10
313.0171
20
62.0912
30
0.0
11
313.3311
21
61.8444
31
0.0
0
LINE
8
FORMER
10
313.3311
20
61.8444
30
0.0
11
313.6439
21
61.5959
31
0.0
0
LINE
8
FORMER
10
313.6439
20
61.5959
30
0.0
11
313.9555
21
61.3459
31
0.0
0
LINE
8
FORMER
10
313.9555
20
61.3459
30
0.0
11
314.2658
21
61.0943
31
0.0
0
LINE
8
FORMER
10
314.2658
20
61.0943
30
0.0
11
314.5748
21
60.8412
31
0.0
0
LINE
8
FORMER
10
314.5748
20
60.8412
30
0.0
11
314.8825
21
60.5864
31
0.0
0
LINE
8
FORMER
10
314.8825
20
60.5864
30
0.0
11
315.1889
21
60.3302
31
0.0
0
LINE
8
FORMER
10
315.1889
20
60.3302
30
0.0
11
315.4940
21
60.0723
31
0.0
0
LINE
8
FORMER
10
315.4940
20
60.0723
30
0.0
11
315.7978
21
59.8129
31
0.0
0
LINE
8
FORMER
10
315.7978
20
59.8129
30
0.0
11
316.1003
21
59.5520
31
0.0
0
LINE
8
FORMER
10
316.1003
20
59.5520
30
0.0
11
316.4014
21
59.2896
31
0.0
0
LINE
8
FORMER
10
316.4014
20
59.2896
30
0.0
11
316.7012
21
59.0256
31
0.0
0
LINE
8
FORMER
10
316.7012
20
59.0256
30
0.0
11
316.9997
21
58.7602
31
0.0
0
LINE
8
FORMER
10
316.9997
20
58.7602
30
0.0
11
317.2969
21
58.4932
31
0.0
0
LINE
8
FORMER
10
317.2969
20
58.4932
30
0.0
11
317.5926
21
58.2247
31
0.0
0
LINE
8
FORMER
10
317.5926
20
58.2247
30
0.0
11
317.8870
21
57.9547
31
0.0
0
LINE
8
FORMER
10
317.8870
20
57.9547
30
0.0
11
318.1801
21
57.6832
31
0.0
0
LINE
8
FORMER
10
318.1801
20
57.6832
30
0.0
11
318.4717
21
57.4103
31
0.0
0
LINE
8
FORMER
10
318.4717
20
57.4103
30
0.0
11
318.7620
21
57.1358
31
0.0
0
LINE
8
FORMER
10
318.7620
20
57.1358
30
0.0
11
319.0509
21
56.8599
31
0.0
0
LINE
8
FORMER
10
319.0509
20
56.8599
30
0.0
11
319.3383
21
56.5826
31
0.0
0
LINE
8
FORMER
10
319.3383
20
56.5826
30
0.0
11
319.6244
21
56.3038
31
0.0
0
LINE
8
FORMER
10
319.6244
20
56.3038
30
0.0
11
319.9091
21
56.0235
31
0.0
0
LINE
8
FORMER
10
319.9091
20
56.0235
30
0.0
11
320.1923
21
55.7418
31
0.0
0
LINE
8
FORMER
10
320.1923
20
55.7418
30
0.0
11
320.4741
21
55.4587
31
0.0
0
LINE
8
FORMER
10
320.4741
20
55.4587
30
0.0
11
320.7544
21
55.1741
31
0.0
0
LINE
8
FORMER
10
320.7544
20
55.1741
30
0.0
11
321.0333
21
54.8882
31
0.0
0
LINE
8
FORMER
10
321.0333
20
54.8882
30
0.0
11
321.3108
21
54.6008
31
0.0
0
LINE
8
FORMER
10
321.3108
20
54.6008
30
0.0
11
321.5868
21
54.3120
31
0.0
0
LINE
8
FORMER
10
321.5868
20
54.3120
30
0.0
11
321.8613
21
54.0218
31
0.0
0
LINE
8
FORMER
10
321.8613
20
54.0218
30
0.0
11
322.1344
21
53.7303
31
0.0
0
LINE
8
FORMER
10
322.1344
20
53.7303
30
0.0
11
322.4059
21
53.4373
31
0.0
0
LINE
8
FORMER
10
322.4059
20
53.4373
30
0.0
11
322.6760
21
53.1430
31
0.0
0
LINE
8
FORMER
10
322.6760
20
53.1430
30
0.0
11
322.9446
21
52.8473
31
0.0
0
LINE
8
FORMER
10
322.9446
20
52.8473
30
0.0
11
323.2117
21
52.5503
31
0.0
0
LINE
8
FORMER
10
323.2117
20
52.5503
30
0.0
11
323.4773
21
52.2519
31
0.0
0
LINE
8
FORMER
10
323.4773
20
52.2519
30
0.0
11
323.7413
21
51.9521
31
0.0
0
LINE
8
FORMER
10
323.7413
20
51.9521
30
0.0
11
324.0039
21
51.6511
31
0.0
0
LINE
8
FORMER
10
324.0039
20
51.6511
30
0.0
11
324.2649
21
51.3487
31
0.0
0
LINE
8
FORMER
10
324.2649
20
51.3487
30
0.0
11
324.5243
21
51.0450
31
0.0
0
LINE
8
FORMER
10
324.5243
20
51.0450
30
0.0
11
324.7823
21
50.7399
31
0.0
0
LINE
8
FORMER
10
324.7823
20
50.7399
30
0.0
11
325.0387
21
50.4336
31
0.0
0
LINE
8
FORMER
10
325.0387
20
50.4336
30
0.0
11
325.2935
21
50.1260
31
0.0
0
LINE
8
FORMER
10
325.2935
20
50.1260
30
0.0
11
325.5468
21
49.8171
31
0.0
0
LINE
8
FORMER
10
325.5468
20
49.8171
30
0.0
11
325.7984
21
49.5069
31
0.0
0
LINE
8
FORMER
10
325.7984
20
49.5069
30
0.0
11
326.0486
21
49.1954
31
0.0
0
LINE
8
FORMER
10
326.0486
20
49.1954
30
0.0
11
326.2971
21
48.8827
31
0.0
0
LINE
8
FORMER
10
326.2971
20
48.8827
30
0.0
11
326.5441
21
48.5687
31
0.0
0
LINE
8
FORMER
10
326.5441
20
48.5687
30
0.0
11
326.7894
21
48.2535
31
0.0
0
LINE
8
FORMER
10
326.7894
20
48.2535
30
0.0
11
327.0332
21
47.9370
31
0.0
0
LINE
8
FORMER
10
327.0332
20
47.9370
30
0.0
11
327.2753
21
47.6193
31
0.0
0
LINE
8
FORMER
10
327.2753
20
47.6193
30
0.0
11
327.5158
21
47.3004
31
0.0
0
LINE
8
FORMER
10
327.5158
20
47.3004
30
0.0
11
327.7548
21
46.9803
31
0.0
0
LINE
8
FORMER
10
327.7548
20
46.9803
30
0.0
11
327.9921
21
46.6589
31
0.0
0
LINE
8
FORMER
10
327.9921
20
46.6589
30
0.0
11
328.2277
21
46.3364
31
0.0
0
LINE
8
FORMER
10
328.2277
20
46.3364
30
0.0
11
328.4617
21
46.0126
31
0.0
0
LINE
8
FORMER
10
328.4617
20
46.0126
30
0.0
11
328.6941
21
45.6877
31
0.0
0
LINE
8
FORMER
10
328.6941
20
45.6877
30
0.0
11
328.9248
21
45.3616
31
0.0
0
LINE
8
FORMER
10
328.9248
20
45.3616
30
0.0
11
329.1539
21
45.0344
31
0.0
0
LINE
8
FORMER
10
329.1539
20
45.0344
30
0.0
11
329.3813
21
44.7060
31
0.0
0
LINE
8
FORMER
10
329.3813
20
44.7060
30
0.0
11
329.6071
21
44.3764
31
0.0
0
LINE
8
FORMER
10
329.6071
20
44.3764
30
0.0
11
329.8311
21
44.0457
31
0.0
0
LINE
8
FORMER
10
329.8311
20
44.0457
30
0.0
11
330.0535
21
43.7139
31
0.0
0
LINE
8
FORMER
10
330.0535
20
43.7139
30
0.0
11
330.2742
21
43.3809
31
0.0
0
LINE
8
FORMER
10
330.2742
20
43.3809
30
0.0
11
330.4932
21
43.0469
31
0.0
0
LINE
8
FORMER
10
330.4932
20
43.0469
30
0.0
11
330.7106
21
42.7117
31
0.0
0
LINE
8
FORMER
10
330.7106
20
42.7117
30
0.0
11
330.9262
21
42.3754
31
0.0
0
LINE
8
FORMER
10
330.9262
20
42.3754
30
0.0
11
331.1401
21
42.0381
31
0.0
0
LINE
8
FORMER
10
331.1401
20
42.0381
30
0.0
11
331.3523
21
41.6996
31
0.0
0
LINE
8
FORMER
10
331.3523
20
41.6996
30
0.0
11
331.5628
21
41.3601
31
0.0
0
LINE
8
FORMER
10
331.5628
20
41.3601
30
0.0
11
331.7715
21
41.0195
31
0.0
0
LINE
8
FORMER
10
331.7715
20
41.0195
30
0.0
11
331.9785
21
40.6779
31
0.0
0
LINE
8
FORMER
10
331.9785
20
40.6779
30
0.0
11
332.1838
21
40.3353
31
0.0
0
LINE
8
FORMER
10
332.1838
20
40.3353
30
0.0
11
332.3874
21
39.9915
31
0.0
0
LINE
8
FORMER
10
332.3874
20
39.9915
30
0.0
11
332.5892
21
39.6468
31
0.0
0
LINE
8
FORMER
10
332.5892
20
39.6468
30
0.0
11
332.7893
21
39.3011
31
0.0
0
LINE
8
FORMER
10
332.7893
20
39.3011
30
0.0
11
332.9876
21
38.9543
31
0.0
0
LINE
8
FORMER
10
332.9876
20
38.9543
30
0.0
11
333.1841
21
38.6065
31
0.0
0
LINE
8
FORMER
10
333.1841
20
38.6065
30
0.0
11
333.3789
21
38.2578
31
0.0
0
LINE
8
FORMER
10
333.3789
20
38.2578
30
0.0
11
333.5719
21
37.9081
31
0.0
0
LINE
8
FORMER
10
333.5719
20
37.9081
30
0.0
11
333.7631
21
37.5573
31
0.0
0
LINE
8
FORMER
10
333.7631
20
37.5573
30
0.0
11
333.9526
21
37.2057
31
0.0
0
LINE
8
FORMER
10
333.9526
20
37.2057
30
0.0
11
334.1403
21
36.8530
31
0.0
0
LINE
8
FORMER
10
334.1403
20
36.8530
30
0.0
11
334.3262
21
36.4995
31
0.0
0
LINE
8
FORMER
10
334.3262
20
36.4995
30
0.0
11
334.5102
21
36.1449
31
0.0
0
LINE
8
FORMER
10
334.5102
20
36.1449
30
0.0
11
334.6925
21
35.7895
31
0.0
0
LINE
8
FORMER
10
334.6925
20
35.7895
30
0.0
11
334.8730
21
35.4331
31
0.0
0
LINE
8
FORMER
10
334.8730
20
35.4331
30
0.0
11
335.0517
21
35.0759
31
0.0
0
LINE
8
FORMER
10
335.0517
20
35.0759
30
0.0
11
335.2286
21
34.7177
31
0.0
0
LINE
8
FORMER
10
335.2286
20
34.7177
30
0.0
11
335.4036
21
34.3586
31
0.0
0
LINE
8
FORMER
10
335.4036
20
34.3586
30
0.0
11
335.5768
21
33.9987
31
0.0
0
LINE
8
FORMER
10
335.5768
20
33.9987
30
0.0
11
335.7482
21
33.6379
31
0.0
0
LINE
8
FORMER
10
335.7482
20
33.6379
30
0.0
11
335.9178
21
33.2762
31
0.0
0
LINE
8
FORMER
10
335.9178
20
33.2762
30
0.0
11
336.0855
21
32.9136
31
0.0
0
LINE
8
FORMER
10
336.0855
20
32.9136
30
0.0
11
336.2514
21
32.5503
31
0.0
0
LINE
8
FORMER
10
336.2514
20
32.5503
30
0.0
11
336.4155
21
32.1860
31
0.0
0
LINE
8
FORMER
10
336.4155
20
32.1860
30
0.0
11
336.5777
21
31.8210
31
0.0
0
LINE
8
FORMER
10
336.5777
20
31.8210
30
0.0
11
336.7380
21
31.4551
31
0.0
0
LINE
8
FORMER
10
336.7380
20
31.4551
30
0.0
11
336.8965
21
31.0884
31
0.0
0
LINE
8
FORMER
10
336.8965
20
31.0884
30
0.0
11
337.0531
21
30.7210
31
0.0
0
LINE
8
FORMER
10
337.0531
20
30.7210
30
0.0
11
337.2079
21
30.3527
31
0.0
0
LINE
8
FORMER
10
337.2079
20
30.3527
30
0.0
11
337.3608
21
29.9837
31
0.0
0
LINE
8
FORMER
10
337.3608
20
29.9837
30
0.0
11
337.5118
21
29.6139
31
0.0
0
LINE
8
FORMER
10
337.5118
20
29.6139
30
0.0
11
337.6610
21
29.2433
31
0.0
0
LINE
8
FORMER
10
337.6610
20
29.2433
30
0.0
11
337.8082
21
28.8720
31
0.0
0
LINE
8
FORMER
10
337.8082
20
28.8720
30
0.0
11
337.9536
21
28.4999
31
0.0
0
LINE
8
FORMER
10
337.9536
20
28.4999
30
0.0
11
338.0971
21
28.1271
31
0.0
0
LINE
8
FORMER
10
338.0971
20
28.1271
30
0.0
11
338.2387
21
27.7536
31
0.0
0
LINE
8
FORMER
10
338.2387
20
27.7536
30
0.0
11
338.3784
21
27.3794
31
0.0
0
LINE
8
FORMER
10
338.3784
20
27.3794
30
0.0
11
338.5162
21
27.0044
31
0.0
0
LINE
8
FORMER
10
338.5162
20
27.0044
30
0.0
11
338.6521
21
26.6288
31
0.0
0
LINE
8
FORMER
10
338.6521
20
26.6288
30
0.0
11
338.7862
21
26.2525
31
0.0
0
LINE
8
FORMER
10
338.7862
20
26.2525
30
0.0
11
338.9183
21
25.8755
31
0.0
0
LINE
8
FORMER
10
338.9183
20
25.8755
30
0.0
11
339.0484
21
25.4978
31
0.0
0
LINE
8
FORMER
10
339.0484
20
25.4978
30
0.0
11
339.1767
21
25.1195
31
0.0
0
LINE
8
FORMER
10
339.1767
20
25.1195
30
0.0
11
339.3031
21
24.7406
31
0.0
0
LINE
8
FORMER
10
339.3031
20
24.7406
30
0.0
11
339.4275
21
24.3610
31
0.0
0
LINE
8
FORMER
10
339.4275
20
24.3610
30
0.0
11
339.5500
21
23.9808
31
0.0
0
LINE
8
FORMER
10
339.5500
20
23.9808
30
0.0
11
339.6706
21
23.6000
31
0.0
0
LINE
8
FORMER
10
339.6706
20
23.6000
30
0.0
11
339.7892
21
23.2185
31
0.0
0
LINE
8
FORMER
10
339.7892
20
23.2185
30
0.0
11
339.9059
21
22.8365
31
0.0
0
LINE
8
FORMER
10
339.9059
20
22.8365
30
0.0
11
340.0207
21
22.4539
31
0.0
0
LINE
8
FORMER
10
340.0207
20
22.4539
30
0.0
11
340.1335
21
22.0707
31
0.0
0
LINE
8
FORMER
10
340.1335
20
22.0707
30
0.0
11
340.2444
21
21.6869
31
0.0
0
LINE
8
FORMER
10
340.2444
20
21.6869
30
0.0
11
340.3533
21
21.3026
31
0.0
0
LINE
8
FORMER
10
340.3533
20
21.3026
30
0.0
11
340.4603
21
20.9177
31
0.0
0
LINE
8
FORMER
10
340.4603
20
20.9177
30
0.0
11
340.5654
21
20.5323
31
0.0
0
LINE
8
FORMER
10
340.5654
20
20.5323
30
0.0
11
340.6684
21
20.1464
31
0.0
0
LINE
8
FORMER
10
340.6684
20
20.1464
30
0.0
11
340.7696
21
19.7600
31
0.0
0
LINE
8
FORMER
10
340.7696
20
19.7600
30
0.0
11
340.8687
21
19.3730
31
0.0
0
LINE
8
FORMER
10
340.8687
20
19.3730
30
0.0
11
340.9659
21
18.9855
31
0.0
0
LINE
8
FORMER
10
340.9659
20
18.9855
30
0.0
11
341.0612
21
18.5976
31
0.0
0
LINE
8
FORMER
10
341.0612
20
18.5976
30
0.0
11
341.1544
21
18.2092
31
0.0
0
LINE
8
FORMER
10
341.1544
20
18.2092
30
0.0
11
341.2457
21
17.8203
31
0.0
0
LINE
8
FORMER
10
341.2457
20
17.8203
30
0.0
11
341.3351
21
17.4310
31
0.0
0
LINE
8
FORMER
10
341.3351
20
17.4310
30
0.0
11
341.4224
21
17.0412
31
0.0
0
LINE
8
FORMER
10
341.4224
20
17.0412
30
0.0
11
341.5078
21
16.6509
31
0.0
0
LINE
8
FORMER
10
341.5078
20
16.6509
30
0.0
11
341.5912
21
16.2603
31
0.0
0
LINE
8
FORMER
10
341.5912
20
16.2603
30
0.0
11
341.6726
21
15.8692
31
0.0
0
LINE
8
FORMER
10
341.6726
20
15.8692
30
0.0
11
341.7521
21
15.4777
31
0.0
0
LINE
8
FORMER
10
341.7521
20
15.4777
30
0.0
11
341.8295
21
15.0858
31
0.0
0
LINE
8
FORMER
10
341.8295
20
15.0858
30
0.0
11
341.9050
21
14.6936
31
0.0
0
LINE
8
FORMER
10
341.9050
20
14.6936
30
0.0
11
341.9785
21
14.3009
31
0.0
0
LINE
8
FORMER
10
341.9785
20
14.3009
30
0.0
11
342.0499
21
13.9079
31
0.0
0
LINE
8
FORMER
10
342.0499
20
13.9079
30
0.0
11
342.1194
21
13.5145
31
0.0
0
LINE
8
FORMER
10
342.1194
20
13.5145
30
0.0
11
342.1869
21
13.1208
31
0.0
0
LINE
8
FORMER
10
342.1869
20
13.1208
30
0.0
11
342.2524
21
12.7268
31
0.0
0
LINE
8
FORMER
10
342.2524
20
12.7268
30
0.0
11
342.3159
21
12.3324
31
0.0
0
LINE
8
FORMER
10
342.3159
20
12.3324
30
0.0
11
342.3774
21
11.9377
31
0.0
0
LINE
8
FORMER
10
342.3774
20
11.9377
30
0.0
11
342.4369
21
11.5427
31
0.0
0
LINE
8
FORMER
10
342.4369
20
11.5427
30
0.0
11
342.4944
21
11.1474
31
0.0
0
LINE
8
FORMER
10
342.4944
20
11.1474
30
0.0
11
342.5499
21
10.7518
31
0.0
0
LINE
8
FORMER
10
342.5499
20
10.7518
30
0.0
11
342.6034
21
10.3559
31
0.0
0
LINE
8
FORMER
10
342.6034
20
10.3559
30
0.0
11
342.6549
21
9.9598
31
0.0
0
LINE
8
FORMER
10
342.6549
20
9.9598
30
0.0
11
342.7044
21
9.5634
31
0.0
0
LINE
8
FORMER
10
342.7044
20
9.5634
30
0.0
11
342.7518
21
9.1668
31
0.0
0
LINE
8
FORMER
10
342.7518
20
9.1668
30
0.0
11
342.7973
21
8.7699
31
0.0
0
LINE
8
FORMER
10
342.7973
20
8.7699
30
0.0
11
342.8407
21
8.3728
31
0.0
0
LINE
8
FORMER
10
342.8407
20
8.3728
30
0.0
11
342.8822
21
7.9755
31
0.0
0
LINE
8
FORMER
10
342.8822
20
7.9755
30
0.0
11
342.9216
21
7.5780
31
0.0
0
LINE
8
FORMER
10
342.9216
20
7.5780
30
0.0
11
342.9590
21
7.1803
31
0.0
0
LINE
8
FORMER
10
342.9590
20
7.1803
30
0.0
11
342.9944
21
6.7824
31
0.0
0
LINE
8
FORMER
10
342.9944
20
6.7824
30
0.0
11
343.0277
21
6.3844
31
0.0
0
LINE
8
FORMER
10
343.0277
20
6.3844
30
0.0
11
343.0591
21
5.9861
31
0.0
0
LINE
8
FORMER
10
343.0591
20
5.9861
30
0.0
11
343.0884
21
5.5878
31
0.0
0
LINE
8
FORMER
10
343.0884
20
5.5878
30
0.0
11
343.1157
21
5.1892
31
0.0
0
LINE
8
FORMER
10
343.1157
20
5.1892
30
0.0
11
343.1410
21
4.7906
31
0.0
0
LINE
8
FORMER
10
343.1410
20
4.7906
30
0.0
11
343.1643
21
4.3918
31
0.0
0
LINE
8
FORMER
10
343.1643
20
4.3918
30
0.0
11
343.1855
21
3.9929
31
0.0
0
LINE
8
FORMER
10
343.1855
20
3.9929
30
0.0
11
343.2047
21
3.5939
31
0.0
0
LINE
8
FORMER
10
343.2047
20
3.5939
30
0.0
11
343.2219
21
3.1948
31
0.0
0
LINE
8
FORMER
10
343.2219
20
3.1948
30
0.0
11
343.2371
21
2.7956
31
0.0
0
LINE
8
FORMER
10
343.2371
20
2.7956
30
0.0
11
343.2503
21
2.3964
31
0.0
0
LINE
8
FORMER
10
343.2503
20
2.3964
30
0.0
11
343.2614
21
1.9971
31
0.0
0
LINE
8
FORMER
10
343.2614
20
1.9971
30
0.0
11
343.2705
21
1.5977
31
0.0
0
LINE
8
FORMER
10
343.2705
20
1.5977
30
0.0
11
343.2776
21
1.1983
31
0.0
0
LINE
8
FORMER
10
343.2776
20
1.1983
30
0.0
11
343.2827
21
0.7989
31
0.0
0
LINE
8
FORMER
10
343.2827
20
0.7989
30
0.0
11
343.2857
21
0.3995
31
0.0
0
LINE
8
FORMER
10
343.2857
20
0.3995
30
0.0
11
343.2867
21
0.0000
31
0.0
0
LINE
8
FORMER
10
343.2867
20
0.0000
30
0.0
11
343.2867
21
-0.0000
31
0.0
0
LINE
8
FORMER
10
343.2867
20
-0.0000
30
0.0
11
343.2857
21
-0.3995
31
0.0
0
LINE
8
FORMER
10
343.2857
20
-0.3995
30
0.0
11
343.2827
21
-0.7989
31
0.0
0
LINE
8
FORMER
10
343.2827
20
-0.7989
30
0.0
11
343.2776
21
-1.1983
31
0.0
0
LINE
8
FORMER
10
343.2776
20
-1.1983
30
0.0
11
343.2705
21
-1.5977
31
0.0
0
LINE
8
FORMER
10
343.2705
20
-1.5977
30
0.0
11
343.2614
21
-1.9971
31
0.0
0
LINE
8
FORMER
10
343.2614
20
-1.9971
30
0.0
11
343.2503
21
-2.3964
31
0.0
0
LINE
8
FORMER
10
343.2503
20
-2.3964
30
0.0
11
343.2371
21
-2.7956
31
0.0
0
LINE
8
FORMER
10
343.2371
20
-2.7956
30
0.0
11
343.2219
21
-3.1948
31
0.0
0
LINE
8
FORMER
10
343.2219
20
-3.1948
30
0.0
11
343.2047
21
-3.5939
31
0.0
0
LINE
8
FORMER
10
343.2047
20
-3.5939
30
0.0
11
343.1855
21
-3.9929
31
0.0
0
LINE
8
FORMER
10
343.1855
20
-3.9929
30
0.0
11
343.1643
21
-4.3918
31
0.0
0
LINE
8
FORMER
10
343.1643
20
-4.3918
30
0.0
11
343.1410
21
-4.7906
31
0.0
0
LINE
8
FORMER
10
343.1410
20
-4.7906
30
0.0
11
343.1157
21
-5.1892
31
0.0
0
LINE
8
FORMER
10
343.1157
20
-5.1892
30
0.0
11
343.0884
21
-5.5878
31
0.0
0
LINE
8
FORMER
10
343.0884
20
-5.5878
30
0.0
11
343.0591
21
-5.9861
31
0.0
0
LINE
8
FORMER
10
343.0591
20
-5.9861
30
0.0
11
343.0277
21
-6.3844
31
0.0
0
LINE
8
FORMER
10
343.0277
20
-6.3844
30
0.0
11
342.9944
21
-6.7824
31
0.0
0
LINE
8
FORMER
10
342.9944
20
-6.7824
30
0.0
11
342.9590
21
-7.1803
31
0.0
0
LINE
8
FORMER
10
342.9590
20
-7.1803
30
0.0
11
342.9216
21
-7.5780
31
0.0
0
LINE
8
FORMER
10
342.9216
20
-7.5780
30
0.0
11
342.8822
21
-7.9755
31
0.0
0
LINE
8
FORMER
10
342.8822
20
-7.9755
30
0.0
11
342.8407
21
-8.3728
31
0.0
0
LINE
8
FORMER
10
342.8407
20
-8.3728
30
0.0
11
342.7973
21
-8.7699
31
0.0
0
LINE
8
FORMER
10
342.7973
20
-8.7699
30
0.0
11
342.7518
21
-9.1668
31
0.0
0
LINE
8
FORMER
10
342.7518
20
-9.1668
30
0.0
11
342.7044
21
-9.5634
31
0.0
0
LINE
8
FORMER
10
342.7044
20
-9.5634
30
0.0
11
342.6549
21
-9.9598
31
0.0
0
LINE
8
FORMER
10
342.6549
20
-9.9598
30
0.0
11
342.6034
21
-10.3559
31
0.0
0
LINE
8
FORMER
10
342.6034
20
-10.3559
30
0.0
11
342.5499
21
-10.7518
31
0.0
0
LINE
8
FORMER
10
342.5499
20
-10.7518
30
0.0
11
342.4944
21
-11.1474
31
0.0
0
LINE
8
FORMER
10
342.4944
20
-11.1474
30
0.0
11
342.4369
21
-11.5427
31
0.0
0
LINE
8
FORMER
10
342.4369
20
-11.5427
30
0.0
11
342.3774
21
-11.9377
31
0.0
0
LINE
8
FORMER
10
342.3774
20
-11.9377
30
0.0
11
342.3159
21
-12.3324
31
0.0
0
LINE
8
FORMER
10
342.3159
20
-12.3324
30
0.0
11
342.2524
21
-12.7268
31
0.0
0
LINE
8
FORMER
10
342.2524
20
-12.7268
30
0.0
11
342.1869
21
-13.1208
31
0.0
0
LINE
8
FORMER
10
342.1869
20
-13.1208
30
0.0
11
342.1194
21
-13.5145
31
0.0
0
LINE
8
FORMER
10
342.1194
20
-13.5145
30
0.0
11
342.0499
21
-13.9079
31
0.0
0
LINE
8
FORMER
10
342.0499
20
-13.9079
30
0.0
11
341.9785
21
-14.3009
31
0.0
0
LINE
8
FORMER
10
341.9785
20
-14.3009
30
0.0
11
341.9050
21
-14.6936
31
0.0
0
LINE
8
FORMER
10
341.9050
20
-14.6936
30
0.0
11
341.8295
21
-15.0858
31
0.0
0
LINE
8
FORMER
10
341.8295
20
-15.0858
30
0.0
11
341.7521
21
-15.4777
31
0.0
0
LINE
8
FORMER
10
341.7521
20
-15.4777
30
0.0
11
341.6726
21
-15.8692
31
0.0
0
LINE
8
FORMER
10
341.6726
20
-15.8692
30
0.0
11
341.5912
21
-16.2603
31
0.0
0
LINE
8
FORMER
10
341.5912
20
-16.2603
30
0.0
11
341.5078
21
-16.6509
31
0.0
0
LINE
8
FORMER
10
341.5078
20
-16.6509
30
0.0
11
341.4224
21
-17.0412
31
0.0
0
LINE
8
FORMER
10
341.4224
20
-17.0412
30
0.0
11
341.3351
21
-17.4310
31
0.0
0
LINE
8
FORMER
10
341.3351
20
-17.4310
30
0.0
11
341.2457
21
-17.8203
31
0.0
0
LINE
8
FORMER
10
341.2457
20
-17.8203
30
0.0
11
341.1544
21
-18.2092
31
0.0
0
LINE
8
FORMER
10
341.1544
20
-18.2092
30
0.0
11
341.0612
21
-18.5976
31
0.0
0
LINE
8
FORMER
10
341.0612
20
-18.5976
30
0.0
11
340.9659
21
-18.9855
31
0.0
0
LINE
8
FORMER
10
340.9659
20
-18.9855
30
0.0
11
340.8687
21
-19.3730
31
0.0
0
LINE
8
FORMER
10
340.8687
20
-19.3730
30
0.0
11
340.7696
21
-19.7600
31
0.0
0
LINE
8
FORMER
10
340.7696
20
-19.7600
30
0.0
11
340.6684
21
-20.1464
31
0.0
0
LINE
8
FORMER
10
340.6684
20
-20.1464
30
0.0
11
340.5654
21
-20.5323
31
0.0
0
LINE
8
FORMER
10
340.5654
20
-20.5323
30
0.0
11
340.4603
21
-20.9177
31
0.0
0
LINE
8
FORMER
10
340.4603
20
-20.9177
30
0.0
11
340.3533
21
-21.3026
31
0.0
0
LINE
8
FORMER
10
340.3533
20
-21.3026
30
0.0
11
340.2444
21
-21.6869
31
0.0
0
LINE
8
FORMER
10
340.2444
20
-21.6869
30
0.0
11
340.1335
21
-22.0707
31
0.0
0
LINE
8
FORMER
10
340.1335
20
-22.0707
30
0.0
11
340.0207
21
-22.4539
31
0.0
0
LINE
8
FORMER
10
340.0207
20
-22.4539
30
0.0
11
339.9059
21
-22.8365
31
0.0
0
LINE
8
FORMER
10
339.9059
20
-22.8365
30
0.0
11
339.7892
21
-23.2185
31
0.0
0
LINE
8
FORMER
10
339.7892
20
-23.2185
30
0.0
11
339.6706
21
-23.6000
31
0.0
0
LINE
8
FORMER
10
339.6706
20
-23.6000
30
0.0
11
339.5500
21
-23.9808
31
0.0
0
LINE
8
FORMER
10
339.5500
20
-23.9808
30
0.0
11
339.4275
21
-24.3610
31
0.0
0
LINE
8
FORMER
10
339.4275
20
-24.3610
30
0.0
11
339.3031
21
-24.7406
31
0.0
0
LINE
8
FORMER
10
339.3031
20
-24.7406
30
0.0
11
339.1767
21
-25.1195
31
0.0
0
LINE
8
FORMER
10
339.1767
20
-25.1195
30
0.0
11
339.0484
21
-25.4978
31
0.0
0
LINE
8
FORMER
10
339.0484
20
-25.4978
30
0.0
11
338.9183
21
-25.8755
31
0.0
0
LINE
8
FORMER
10
338.9183
20
-25.8755
30
0.0
11
338.7862
21
-26.2525
31
0.0
0
LINE
8
FORMER
10
338.7862
20
-26.2525
30
0.0
11
338.6521
21
-26.6288
31
0.0
0
LINE
8
FORMER
10
338.6521
20
-26.6288
30
0.0
11
338.5162
21
-27.0044
31
0.0
0
LINE
8
FORMER
10
338.5162
20
-27.0044
30
0.0
11
338.3784
21
-27.3794
31
0.0
0
LINE
8
FORMER
10
338.3784
20
-27.3794
30
0.0
11
338.2387
21
-27.7536
31
0.0
0
LINE
8
FORMER
10
338.2387
20
-27.7536
30
0.0
11
338.0971
21
-28.1271
31
0.0
0
LINE
8
FORMER
10
338.0971
20
-28.1271
30
0.0
11
337.9536
21
-28.4999
31
0.0
0
LINE
8
FORMER
10
337.9536
20
-28.4999
30
0.0
11
337.8082
21
-28.8720
31
0.0
0
LINE
8
FORMER
10
337.8082
20
-28.8720
30
0.0
11
337.6610
21
-29.2433
31
0.0
0
LINE
8
FORMER
10
337.6610
20
-29.2433
30
0.0
11
337.5118
21
-29.6139
31
0.0
0
LINE
8
FORMER
10
337.5118
20
-29.6139
30
0.0
11
337.3608
21
-29.9837
31
0.0
0
LINE
8
FORMER
10
337.3608
20
-29.9837
30
0.0
11
337.2079
21
-30.3527
31
0.0
0
LINE
8
FORMER
10
337.2079
20
-30.3527
30
0.0
11
337.0531
21
-30.7210
31
0.0
0
LINE
8
FORMER
10
337.0531
20
-30.7210
30
0.0
11
336.8965
21
-31.0884
31
0.0
0
LINE
8
FORMER
10
336.8965
20
-31.0884
30
0.0
11
336.7380
21
-31.4551
31
0.0
0
LINE
8
FORMER
10
336.7380
20
-31.4551
30
0.0
11
336.5777
21
-31.8210
31
0.0
0
LINE
8
FORMER
10
336.5777
20
-31.8210
30
0.0
11
336.4155
21
-32.1860
31
0.0
0
LINE
8
FORMER
10
336.4155
20
-32.1860
30
0.0
11
336.2514
21
-32.5503
31
0.0
0
LINE
8
FORMER
10
336.2514
20
-32.5503
30
0.0
11
336.0855
21
-32.9136
31
0.0
0
LINE
8
FORMER
10
336.0855
20
-32.9136
30
0.0
11
335.9178
21
-33.2762
31
0.0
0
LINE
8
FORMER
10
335.9178
20
-33.2762
30
0.0
11
335.7482
21
-33.6379
31
0.0
0
LINE
8
FORMER
10
335.7482
20
-33.6379
30
0.0
11
335.5768
21
-33.9987
31
0.0
0
LINE
8
FORMER
10
335.5768
20
-33.9987
30
0.0
11
335.4036
21
-34.3586
31
0.0
0
LINE
8
FORMER
10
335.4036
20
-34.3586
30
0.0
11
335.2286
21
-34.7177
31
0.0
0
LINE
8
FORMER
10
335.2286
20
-34.7177
30
0.0
11
335.0517
21
-35.0759
31
0.0
0
LINE
8
FORMER
10
335.0517
20
-35.0759
30
0.0
11
334.8730
21
-35.4331
31
0.0
0
LINE
8
FORMER
10
334.8730
20
-35.4331
30
0.0
11
334.6925
21
-35.7895
31
0.0
0
LINE
8
FORMER
10
334.6925
20
-35.7895
30
0.0
11
334.5102
21
-36.1449
31
0.0
0
LINE
8
FORMER
10
334.5102
20
-36.1449
30
0.0
11
334.3262
21
-36.4995
31
0.0
0
LINE
8
FORMER
10
334.3262
20
-36.4995
30
0.0
11
334.1403
21
-36.8530
31
0.0
0
LINE
8
FORMER
10
334.1403
20
-36.8530
30
0.0
11
333.9526
21
-37.2057
31
0.0
0
LINE
8
FORMER
10
333.9526
20
-37.2057
30
0.0
11
333.7631
21
-37.5573
31
0.0
0
LINE
8
FORMER
10
333.7631
20
-37.5573
30
0.0
11
333.5719
21
-37.9081
31
0.0
0
LINE
8
FORMER
10
333.5719
20
-37.9081
30
0.0
11
333.3789
21
-38.2578
31
0.0
0
LINE
8
FORMER
10
333.3789
20
-38.2578
30
0.0
11
333.1841
21
-38.6065
31
0.0
0
LINE
8
FORMER
10
333.1841
20
-38.6065
30
0.0
11
332.9876
21
-38.9543
31
0.0
0
LINE
8
FORMER
10
332.9876
20
-38.9543
30
0.0
11
332.7893
21
-39.3011
31
0.0
0
LINE
8
FORMER
10
332.7893
20
-39.3011
30
0.0
11
332.5892
21
-39.6468
31
0.0
0
LINE
8
FORMER
10
332.5892
20
-39.6468
30
0.0
11
332.3874
21
-39.9915
31
0.0
0
LINE
8
FORMER
10
332.3874
20
-39.9915
30
0.0
11
332.1838
21
-40.3353
31
0.0
0
LINE
8
FORMER
10
332.1838
20
-40.3353
30
0.0
11
331.9785
21
-40.6779
31
0.0
0
LINE
8
FORMER
10
331.9785
20
-40.6779
30
0.0
11
331.7715
21
-41.0195
31
0.0
0
LINE
8
FORMER
10
331.7715
20
-41.0195
30
0.0
11
331.5628
21
-41.3601
31
0.0
0
LINE
8
FORMER
10
331.5628
20
-41.3601
30
0.0
11
331.3523
21
-41.6996
31
0.0
0
LINE
8
FORMER
10
331.3523
20
-41.6996
30
0.0
11
331.1401
21
-42.0381
31
0.0
0
LINE
8
FORMER
10
331.1401
20
-42.0381
30
0.0
11
330.9262
21
-42.3754
31
0.0
0
LINE
8
FORMER
10
330.9262
20
-42.3754
30
0.0
11
330.7106
21
-42.7117
31
0.0
0
LINE
8
FORMER
10
330.7106
20
-42.7117
30
0.0
11
330.4932
21
-43.0469
31
0.0
0
LINE
8
FORMER
10
330.4932
20
-43.0469
30
0.0
11
330.2742
21
-43.3809
31
0.0
0
LINE
8
FORMER
10
330.2742
20
-43.3809
30
0.0
11
330.0535
21
-43.7139
31
0.0
0
LINE
8
FORMER
10
330.0535
20
-43.7139
30
0.0
11
329.8311
21
-44.0457
31
0.0
0
LINE
8
FORMER
10
329.8311
20
-44.0457
30
0.0
11
329.6071
21
-44.3764
31
0.0
0
LINE
8
FORMER
10
329.6071
20
-44.3764
30
0.0
11
329.3813
21
-44.7060
31
0.0
0
LINE
8
FORMER
10
329.3813
20
-44.7060
30
0.0
11
329.1539
21
-45.0344
31
0.0
0
LINE
8
FORMER
10
329.1539
20
-45.0344
30
0.0
11
328.9248
21
-45.3616
31
0.0
0
LINE
8
FORMER
10
328.9248
20
-45.3616
30
0.0
11
328.6941
21
-45.6877
31
0.0
0
LINE
8
FORMER
10
328.6941
20
-45.6877
30
0.0
11
328.4617
21
-46.0126
31
0.0
0
LINE
8
FORMER
10
328.4617
20
-46.0126
30
0.0
11
328.2277
21
-46.3364
31
0.0
0
LINE
8
FORMER
10
328.2277
20
-46.3364
30
0.0
11
327.9921
21
-46.6589
31
0.0
0
LINE
8
FORMER
10
327.9921
20
-46.6589
30
0.0
11
327.7548
21
-46.9803
31
0.0
0
LINE
8
FORMER
10
327.7548
20
-46.9803
30
0.0
11
327.5158
21
-47.3004
31
0.0
0
LINE
8
FORMER
10
327.5158
20
-47.3004
30
0.0
11
327.2753
21
-47.6193
31
0.0
0
LINE
8
FORMER
10
327.2753
20
-47.6193
30
0.0
11
327.0332
21
-47.9370
31
0.0
0
LINE
8
FORMER
10
327.0332
20
-47.9370
30
0.0
11
326.7894
21
-48.2535
31
0.0
0
LINE
8
FORMER
10
326.7894
20
-48.2535
30
0.0
11
326.5441
21
-48.5687
31
0.0
0
LINE
8
FORMER
10
326.5441
20
-48.5687
30
0.0
11
326.2971
21
-48.8827
31
0.0
0
LINE
8
FORMER
10
326.2971
20
-48.8827
30
0.0
11
326.0486
21
-49.1954
31
0.0
0
LINE
8
FORMER
10
326.0486
20
-49.1954
30
0.0
11
325.7984
21
-49.5069
31
0.0
0
LINE
8
FORMER
10
325.7984
20
-49.5069
30
0.0
11
325.5468
21
-49.8171
31
0.0
0
LINE
8
FORMER
10
325.5468
20
-49.8171
30
0.0
11
325.2935
21
-50.1260
31
0.0
0
LINE
8
FORMER
10
325.2935
20
-50.1260
30
0.0
11
325.0387
21
-50.4336
31
0.0
0
LINE
8
FORMER
10
325.0387
20
-50.4336
30
0.0
11
324.7823
21
-50.7399
31
0.0
0
LINE
8
FORMER
10
324.7823
20
-50.7399
30
0.0
11
324.5243
21
-51.0450
31
0.0
0
LINE
8
FORMER
10
324.5243
20
-51.0450
30
0.0
11
324.2649
21
-51.3487
31
0.0
0
LINE
8
FORMER
10
324.2649
20
-51.3487
30
0.0
11
324.0039
21
-51.6511
31
0.0
0
LINE
8
FORMER
10
324.0039
20
-51.6511
30
0.0
11
323.7413
21
-51.9521
31
0.0
0
LINE
8
FORMER
10
323.7413
20
-51.9521
30
0.0
11
323.4773
21
-52.2519
31
0.0
0
LINE
8
FORMER
10
323.4773
20
-52.2519
30
0.0
11
323.2117
21
-52.5503
31
0.0
0
LINE
8
FORMER
10
323.2117
20
-52.5503
30
0.0
11
322.9446
21
-52.8473
31
0.0
0
LINE
8
FORMER
10
322.9446
20
-52.8473
30
0.0
11
322.6760
21
-53.1430
31
0.0
0
LINE
8
FORMER
10
322.6760
20
-53.1430
30
0.0
11
322.4059
21
-53.4373
31
0.0
0
LINE
8
FORMER
10
322.4059
20
-53.4373
30
0.0
11
322.1344
21
-53.7303
31
0.0
0
LINE
8
FORMER
10
322.1344
20
-53.7303
30
0.0
11
321.8613
21
-54.0218
31
0.0
0
LINE
8
FORMER
10
321.8613
20
-54.0218
30
0.0
11
321.5868
21
-54.3120
31
0.0
0
LINE
8
FORMER
10
321.5868
20
-54.3120
30
0.0
11
321.3108
21
-54.6008
31
0.0
0
LINE
8
FORMER
10
321.3108
20
-54.6008
30
0.0
11
321.0333
21
-54.8882
31
0.0
0
LINE
8
FORMER
10
321.0333
20
-54.8882
30
0.0
11
320.7544
21
-55.1741
31
0.0
0
LINE
8
FORMER
10
320.7544
20
-55.1741
30
0.0
11
320.4741
21
-55.4587
31
0.0
0
LINE
8
FORMER
10
320.4741
20
-55.4587
30
0.0
11
320.1923
21
-55.7418
31
0.0
0
LINE
8
FORMER
10
320.1923
20
-55.7418
30
0.0
11
319.9091
21
-56.0235
31
0.0
0
LINE
8
FORMER
10
319.9091
20
-56.0235
30
0.0
11
319.6244
21
-56.3038
31
0.0
0
LINE
8
FORMER
10
319.6244
20
-56.3038
30
0.0
11
319.3383
21
-56.5826
31
0.0
0
LINE
8
FORMER
10
319.3383
20
-56.5826
30
0.0
11
319.0509
21
-56.8599
31
0.0
0
LINE
8
FORMER
10
319.0509
20
-56.8599
30
0.0
11
318.7620
21
-57.1358
31
0.0
0
LINE
8
FORMER
10
318.7620
20
-57.1358
30
0.0
11
318.4717
21
-57.4103
31
0.0
0
LINE
8
FORMER
10
318.4717
20
-57.4103
30
0.0
11
318.1801
21
-57.6832
31
0.0
0
LINE
8
FORMER
10
318.1801
20
-57.6832
30
0.0
11
317.8870
21
-57.9547
31
0.0
0
LINE
8
FORMER
10
317.8870
20
-57.9547
30
0.0
11
317.5926
21
-58.2247
31
0.0
0
LINE
8
FORMER
10
317.5926
20
-58.2247
30
0.0
11
317.2969
21
-58.4932
31
0.0
0
LINE
8
FORMER
10
317.2969
20
-58.4932
30
0.0
11
316.9997
21
-58.7602
31
0.0
0
LINE
8
FORMER
10
316.9997
20
-58.7602
30
0.0
11
316.7012
21
-59.0256
31
0.0
0
LINE
8
FORMER
10
316.7012
20
-59.0256
30
0.0
11
316.4014
21
-59.2896
31
0.0
0
LINE
8
FORMER
10
316.4014
20
-59.2896
30
0.0
11
316.1003
21
-59.5520
31
0.0
0
LINE
8
FORMER
10
316.1003
20
-59.5520
30
0.0
11
315.7978
21
-59.8129
31
0.0
0
LINE
8
FORMER
10
315.7978
20
-59.8129
30
0.0
11
315.4940
21
-60.0723
31
0.0
0
LINE
8
FORMER
10
315.4940
20
-60.0723
30
0.0
11
315.1889
21
-60.3302
31
0.0
0
LINE
8
FORMER
10
315.1889
20
-60.3302
30
0.0
11
314.8825
21
-60.5864
31
0.0
0
LINE
8
FORMER
10
314.8825
20
-60.5864
30
0.0
11
314.5748
21
-60.8412
31
0.0
0
LINE
8
FORMER
10
314.5748
20
-60.8412
30
0.0
11
314.2658
21
-61.0943
31
0.0
0
LINE
8
FORMER
10
314.2658
20
-61.0943
30
0.0
11
313.9555
21
-61.3459
31
0.0
0
LINE
8
FORMER
10
313.9555
20
-61.3459
30
0.0
11
313.6439
21
-61.5959
31
0.0
0
LINE
8
FORMER
10
313.6439
20
-61.5959
30
0.0
11
313.3311
21
-61.8444
31
0.0
0
LINE
8
FORMER
10
313.3311
20
-61.8444
30
0.0
11
313.0171
21
-62.0912
31
0.0
0
LINE
8
FORMER
10
313.0171
20
-62.0912
30
0.0
11
312.7018
21
-62.3365
31
0.0
0
LINE
8
FORMER
10
312.7018
20
-62.3365
30
0.0
11
312.3852
21
-62.5801
31
0.0
0
LINE
8
FORMER
10
312.3852
20
-62.5801
30
0.0
11
312.0674
21
-62.8221
31
0.0
0
LINE
8
FORMER
10
312.0674
20
-62.8221
30
0.0
11
311.7484
21
-63.0626
31
0.0
0
LINE
8
FORMER
10
311.7484
20
-63.0626
30
0.0
11
311.4282
21
-63.3014
31
0.0
0
LINE
8
FORMER
10
311.4282
20
-63.3014
30
0.0
11
311.1068
21
-63.5386
31
0.0
0
LINE
8
FORMER
10
311.1068
20
-63.5386
30
0.0
11
310.7842
21
-63.7741
31
0.0
0
LINE
8
FORMER
10
310.7842
20
-63.7741
30
0.0
11
310.4604
21
-64.0080
31
0.0
0
LINE
8
FORMER
10
310.4604
20
-64.0080
30
0.0
11
310.1354
21
-64.2403
31
0.0
0
LINE
8
FORMER
10
310.1354
20
-64.2403
30
0.0
11
309.8092
21
-64.4709
31
0.0
0
LINE
8
FORMER
10
309.8092
20
-64.4709
30
0.0
11
309.4819
21
-64.6999
31
0.0
0
LINE
8
FORMER
10
309.4819
20
-64.6999
30
0.0
11
309.1534
21
-64.9272
31
0.0
0
LINE
8
FORMER
10
309.1534
20
-64.9272
30
0.0
11
308.8238
21
-65.1528
31
0.0
0
LINE
8
FORMER
10
308.8238
20
-65.1528
30
0.0
11
308.4930
21
-65.3768
31
0.0
0
LINE
8
FORMER
10
308.4930
20
-65.3768
30
0.0
11
308.1611
21
-65.5991
31
0.0
0
LINE
8
FORMER
10
308.1611
20
-65.5991
30
0.0
11
307.8281
21
-65.8196
31
0.0
0
LINE
8
FORMER
10
307.8281
20
-65.8196
30
0.0
11
307.4939
21
-66.0386
31
0.0
0
LINE
8
FORMER
10
307.4939
20
-66.0386
30
0.0
11
307.1587
21
-66.2558
31
0.0
0
LINE
8
FORMER
10
307.1587
20
-66.2558
30
0.0
11
306.8223
21
-66.4713
31
0.0
0
LINE
8
FORMER
10
306.8223
20
-66.4713
30
0.0
11
306.4849
21
-66.6851
31
0.0
0
LINE
8
FORMER
10
306.4849
20
-66.6851
30
0.0
11
306.1464
21
-66.8972
31
0.0
0
LINE
8
FORMER
10
306.1464
20
-66.8972
30
0.0
11
306.1464
21
-66.8972
31
0.0
0
LINE
8
FORMER
10
306.1464
20
-66.8972
30
0.0
11
305.1729
21
-67.5540
31
0.0
0
LINE
8
FORMER
10
305.1729
20
-67.5540
30
0.0
11
304.1884
21
-68.2086
31
0.0
0
LINE
8
FORMER
10
304.1884
20
-68.2086
30
0.0
11
303.1932
21
-68.8609
31
0.0
0
LINE
8
FORMER
10
303.1932
20
-68.8609
30
0.0
11
302.1872
21
-69.5110
31
0.0
0
LINE
8
FORMER
10
302.1872
20
-69.5110
30
0.0
11
301.1705
21
-70.1587
31
0.0
0
LINE
8
FORMER
10
301.1705
20
-70.1587
30
0.0
11
300.1433
21
-70.8041
31
0.0
0
LINE
8
FORMER
10
300.1433
20
-70.8041
30
0.0
11
299.1056
21
-71.4472
31
0.0
0
LINE
8
FORMER
10
299.1056
20
-71.4472
30
0.0
11
298.0574
21
-72.0878
31
0.0
0
LINE
8
FORMER
10
298.0574
20
-72.0878
30
0.0
11
296.9989
21
-72.7260
31
0.0
0
LINE
8
FORMER
10
296.9989
20
-72.7260
30
0.0
11
295.9301
21
-73.3617
31
0.0
0
LINE
8
FORMER
10
295.9301
20
-73.3617
30
0.0
11
294.8512
21
-73.9949
31
0.0
0
LINE
8
FORMER
10
294.8512
20
-73.9949
30
0.0
11
293.7621
21
-74.6256
31
0.0
0
LINE
8
FORMER
10
293.7621
20
-74.6256
30
0.0
11
292.6631
21
-75.2538
31
0.0
0
LINE
8
FORMER
10
292.6631
20
-75.2538
30
0.0
11
291.5540
21
-75.8794
31
0.0
0
LINE
8
FORMER
10
291.5540
20
-75.8794
30
0.0
11
290.4352
21
-76.5023
31
0.0
0
LINE
8
FORMER
10
290.4352
20
-76.5023
30
0.0
11
289.3065
21
-77.1226
31
0.0
0
LINE
8
FORMER
10
289.3065
20
-77.1226
30
0.0
11
288.1682
21
-77.7402
31
0.0
0
LINE
8
FORMER
10
288.1682
20
-77.7402
30
0.0
11
287.0202
21
-78.3551
31
0.0
0
LINE
8
FORMER
10
287.0202
20
-78.3551
30
0.0
11
285.8627
21
-78.9673
31
0.0
0
LINE
8
FORMER
10
285.8627
20
-78.9673
30
0.0
11
284.6958
21
-79.5767
31
0.0
0
LINE
8
FORMER
10
284.6958
20
-79.5767
30
0.0
11
283.5194
21
-80.1833
31
0.0
0
LINE
8
FORMER
10
283.5194
20
-80.1833
30
0.0
11
282.3338
21
-80.7871
31
0.0
0
LINE
8
FORMER
10
282.3338
20
-80.7871
30
0.0
11
281.1389
21
-81.3880
31
0.0
0
LINE
8
FORMER
10
281.1389
20
-81.3880
30
0.0
11
279.9350
21
-81.9861
31
0.0
0
LINE
8
FORMER
10
279.9350
20
-81.9861
30
0.0
11
278.7219
21
-82.5812
31
0.0
0
LINE
8
FORMER
10
278.7219
20
-82.5812
30
0.0
11
277.4999
21
-83.1734
31
0.0
0
LINE
8
FORMER
10
277.4999
20
-83.1734
30
0.0
11
276.2690
21
-83.7626
31
0.0
0
LINE
8
FORMER
10
276.2690
20
-83.7626
30
0.0
11
275.0293
21
-84.3487
31
0.0
0
LINE
8
FORMER
10
275.0293
20
-84.3487
30
0.0
11
273.7808
21
-84.9319
31
0.0
0
LINE
8
FORMER
10
273.7808
20
-84.9319
30
0.0
11
272.5237
21
-85.5120
31
0.0
0
LINE
8
FORMER
10
272.5237
20
-85.5120
30
0.0
11
271.2580
21
-86.0889
31
0.0
0
LINE
8
FORMER
10
271.2580
20
-86.0889
30
0.0
11
269.9838
21
-86.6628
31
0.0
0
LINE
8
FORMER
10
269.9838
20
-86.6628
30
0.0
11
268.7012
21
-87.2334
31
0.0
0
LINE
8
FORMER
10
268.7012
20
-87.2334
30
0.0
11
267.4103
21
-87.8009
31
0.0
0
LINE
8
FORMER
10
267.4103
20
-87.8009
30
0.0
11
266.1111
21
-88.3652
31
0.0
0
LINE
8
FORMER
10
266.1111
20
-88.3652
30
0.0
11
264.8038
21
-88.9262
31
0.0
0
LINE
8
FORMER
10
264.8038
20
-88.9262
30
0.0
11
263.4883
21
-89.4839
31
0.0
0
LINE
8
FORMER
10
263.4883
20
-89.4839
30
0.0
11
262.1649
21
-90.0384
31
0.0
0
LINE
8
FORMER
10
262.1649
20
-90.0384
30
0.0
11
260.8335
21
-90.5894
31
0.0
0
LINE
8
FORMER
10
260.8335
20
-90.5894
30
0.0
11
259.4943
21
-91.1371
31
0.0
0
LINE
8
FORMER
10
259.4943
20
-91.1371
30
0.0
11
258.1473
21
-91.6814
31
0.0
0
LINE
8
FORMER
10
258.1473
20
-91.6814
30
0.0
11
256.7926
21
-92.2223
31
0.0
0
LINE
8
FORMER
10
256.7926
20
-92.2223
30
0.0
11
255.4303
21
-92.7597
31
0.0
0
LINE
8
FORMER
10
255.4303
20
-92.7597
30
0.0
11
254.0605
21
-93.2936
31
0.0
0
LINE
8
FORMER
10
254.0605
20
-93.2936
30
0.0
11
252.6832
21
-93.8240
31
0.0
0
LINE
8
FORMER
10
252.6832
20
-93.8240
30
0.0
11
251.2985
21
-94.3509
31
0.0
0
LINE
8
FORMER
10
251.2985
20
-94.3509
30
0.0
11
249.9066
21
-94.8741
31
0.0
0
LINE
8
FORMER
10
249.9066
20
-94.8741
30
0.0
11
248.5074
21
-95.3938
31
0.0
0
LINE
8
FORMER
10
248.5074
20
-95.3938
30
0.0
11
247.1012
21
-95.9097
31
0.0
0
LINE
8
FORMER
10
247.1012
20
-95.9097
30
0.0
11
245.6879
21
-96.4221
31
0.0
0
LINE
8
FORMER
10
245.6879
20
-96.4221
30
0.0
11
244.2676
21
-96.9307
31
0.0
0
LINE
8
FORMER
10
244.2676
20
-96.9307
30
0.0
11
242.8404
21
-97.4356
31
0.0
0
LINE
8
FORMER
10
242.8404
20
-97.4356
30
0.0
11
241.4064
21
-97.9367
31
0.0
0
LINE
8
FORMER
10
241.4064
20
-97.9367
30
0.0
11
239.9657
21
-98.4340
31
0.0
0
LINE
8
FORMER
10
239.9657
20
-98.4340
30
0.0
11
238.5184
21
-98.9275
31
0.0
0
LINE
8
FORMER
10
238.5184
20
-98.9275
30
0.0
11
237.0645
21
-99.4171
31
0.0
0
LINE
8
FORMER
10
237.0645
20
-99.4171
30
0.0
11
235.6041
21
-99.9029
31
0.0
0
LINE
8
FORMER
10
235.6041
20
-99.9029
30
0.0
11
234.1373
21
-100.3847
31
0.0
0
LINE
8
FORMER
10
234.1373
20
-100.3847
30
0.0
11
232.6642
21
-100.8626
31
0.0
0
LINE
8
FORMER
10
232.6642
20
-100.8626
30
0.0
11
231.1848
21
-101.3365
31
0.0
0
LINE
8
FORMER
10
231.1848
20
-101.3365
30
0.0
11
229.6993
21
-101.8064
31
0.0
0
LINE
8
FORMER
10
229.6993
20
-101.8064
30
0.0
11
228.2077
21
-102.2722
31
0.0
0
LINE
8
FORMER
10
228.2077
20
-102.2722
30
0.0
11
226.7101
21
-102.7340
31
0.0
0
LINE
8
FORMER
10
226.7101
20
-102.7340
30
0.0
11
225.2066
21
-103.1917
31
0.0
0
LINE
8
FORMER
10
225.2066
20
-103.1917
30
0.0
11
223.6972
21
-103.6453
31
0.0
0
LINE
8
FORMER
10
223.6972
20
-103.6453
30
0.0
11
222.1821
21
-104.0947
31
0.0
0
LINE
8
FORMER
10
222.1821
20
-104.0947
30
0.0
11
220.6612
21
-104.5399
31
0.0
0
LINE
8
FORMER
10
220.6612
20
-104.5399
30
0.0
11
219.1348
21
-104.9809
31
0.0
0
LINE
8
FORMER
10
219.1348
20
-104.9809
30
0.0
11
217.6029
21
-105.4177
31
0.0
0
LINE
8
FORMER
10
217.6029
20
-105.4177
30
0.0
11
216.0655
21
-105.8501
31
0.0
0
LINE
8
FORMER
10
216.0655
20
-105.8501
30
0.0
11
214.5228
21
-106.2783
31
0.0
0
LINE
8
FORMER
10
214.5228
20
-106.2783
30
0.0
11
212.9748
21
-106.7021
31
0.0
0
LINE
8
FORMER
10
212.9748
20
-106.7021
30
0.0
11
211.4216
21
-107.1216
31
0.0
0
LINE
8
FORMER
10
211.4216
20
-107.1216
30
0.0
11
209.8633
21
-107.5366
31
0.0
0
LINE
8
FORMER
10
209.8633
20
-107.5366
30
0.0
11
208.2999
21
-107.9472
31
0.0
0
LINE
8
FORMER
10
208.2999
20
-107.9472
30
0.0
11
206.7316
21
-108.3534
31
0.0
0
LINE
8
FORMER
10
206.7316
20
-108.3534
30
0.0
11
205.1584
21
-108.7551
31
0.0
0
LINE
8
FORMER
10
205.1584
20
-108.7551
30
0.0
11
203.5804
21
-109.1522
31
0.0
0
LINE
8
FORMER
10
203.5804
20
-109.1522
30
0.0
11
201.9977
21
-109.5448
31
0.0
0
LINE
8
FORMER
10
201.9977
20
-109.5448
30
0.0
11
200.4103
21
-109.9328
31
0.0
0
LINE
8
FORMER
10
200.4103
20
-109.9328
30
0.0
11
198.8184
21
-110.3162
31
0.0
0
LINE
8
FORMER
10
198.8184
20
-110.3162
30
0.0
11
197.2220
21
-110.6950
31
0.0
0
LINE
8
FORMER
10
197.2220
20
-110.6950
30
0.0
11
195.6213
21
-111.0690
31
0.0
0
LINE
8
FORMER
10
195.6213
20
-111.0690
30
0.0
11
194.0162
21
-111.4384
31
0.0
0
LINE
8
FORMER
10
194.0162
20
-111.4384
30
0.0
11
192.4069
21
-111.8031
31
0.0
0
LINE
8
FORMER
10
192.4069
20
-111.8031
30
0.0
11
190.7934
21
-112.1630
31
0.0
0
LINE
8
FORMER
10
190.7934
20
-112.1630
30
0.0
11
189.1759
21
-112.5180
31
0.0
0
LINE
8
FORMER
10
189.1759
20
-112.5180
30
0.0
11
187.5543
21
-112.8683
31
0.0
0
LINE
8
FORMER
10
187.5543
20
-112.8683
30
0.0
11
185.9289
21
-113.2137
31
0.0
0
LINE
8
FORMER
10
185.9289
20
-113.2137
30
0.0
11
184.2996
21
-113.5543
31
0.0
0
LINE
8
FORMER
10
184.2996
20
-113.5543
30
0.0
11
182.6666
21
-113.8899
31
0.0
0
LINE
8
FORMER
10
182.6666
20
-113.8899
30
0.0
11
181.0298
21
-114.2205
31
0.0
0
LINE
8
FORMER
10
181.0298
20
-114.2205
30
0.0
11
179.3895
21
-114.5462
31
0.0
0
LINE
8
FORMER
10
179.3895
20
-114.5462
30
0.0
11
177.7457
21
-114.8669
31
0.0
0
LINE
8
FORMER
10
177.7457
20
-114.8669
30
0.0
11
176.0985
21
-115.1826
31
0.0
0
LINE
8
FORMER
10
176.0985
20
-115.1826
30
0.0
11
174.4479
21
-115.4931
31
0.0
0
LINE
8
FORMER
10
174.4479
20
-115.4931
30
0.0
11
172.7941
21
-115.7986
31
0.0
0
LINE
8
FORMER
10
172.7941
20
-115.7986
30
0.0
11
171.1370
21
-116.0990
31
0.0
0
LINE
8
FORMER
10
171.1370
20
-116.0990
30
0.0
11
169.4769
21
-116.3942
31
0.0
0
LINE
8
FORMER
10
169.4769
20
-116.3942
30
0.0
11
167.8137
21
-116.6842
31
0.0
0
LINE
8
FORMER
10
167.8137
20
-116.6842
30
0.0
11
166.1475
21
-116.9690
31
0.0
0
LINE
8
FORMER
10
166.1475
20
-116.9690
30
0.0
11
164.4785
21
-117.2486
31
0.0
0
LINE
8
FORMER
10
164.4785
20
-117.2486
30
0.0
11
162.8068
21
-117.5228
31
0.0
0
LINE
8
FORMER
10
162.8068
20
-117.5228
30
0.0
11
161.1323
21
-117.7918
31
0.0
0
LINE
8
FORMER
10
161.1323
20
-117.7918
30
0.0
11
159.4551
21
-118.0554
31
0.0
0
LINE
8
FORMER
10
159.4551
20
-118.0554
30
0.0
11
157.7755
21
-118.3137
31
0.0
0
LINE
8
FORMER
10
157.7755
20
-118.3137
30
0.0
11
156.0933
21
-118.5666
31
0.0
0
LINE
8
FORMER
10
156.0933
20
-118.5666
30
0.0
11
154.4088
21
-118.8140
31
0.0
0
LINE
8
FORMER
10
154.4088
20
-118.8140
30
0.0
11
152.7220
21
-119.0560
31
0.0
0
LINE
8
FORMER
10
152.7220
20
-119.0560
30
0.0
11
151.0330
21
-119.2925
31
0.0
0
LINE
8
FORMER
10
151.0330
20
-119.2925
30
0.0
11
149.3418
21
-119.5234
31
0.0
0
LINE
8
FORMER
10
149.3418
20
-119.5234
30
0.0
11
147.6485
21
-119.7489
31
0.0
0
LINE
8
FORMER
10
147.6485
20
-119.7489
30
0.0
11
145.9533
21
-119.9687
31
0.0
0
LINE
8
FORMER
10
145.9533
20
-119.9687
30
0.0
11
144.2561
21
-120.1829
31
0.0
0
LINE
8
FORMER
10
144.2561
20
-120.1829
30
0.0
11
142.5572
21
-120.3915
31
0.0
0
LINE
8
FORMER
10
142.5572
20
-120.3915
30
0.0
11
140.8564
21
-120.5944
31
0.0
0
LINE
8
FORMER
10
140.8564
20
-120.5944
30
0.0
11
139.1541
21
-120.7916
31
0.0
0
LINE
8
FORMER
10
139.1541
20
-120.7916
30
0.0
11
137.4501
21
-120.9831
31
0.0
0
LINE
8
FORMER
10
137.4501
20
-120.9831
30
0.0
11
135.7447
21
-121.1688
31
0.0
0
LINE
8
FORMER
10
135.7447
20
-121.1688
30
0.0
11
134.0378
21
-121.3488
31
0.0
0
LINE
8
FORMER
10
134.0378
20
-121.3488
30
0.0
11
132.3296
21
-121.5229
31
0.0
0
LINE
8
FORMER
10
132.3296
20
-121.5229
30
0.0
11
130.6201
21
-121.6911
31
0.0
0
LINE
8
FORMER
10
130.6201
20
-121.6911
30
0.0
11
128.9094
21
-121.8535
31
0.0
0
LINE
8
FORMER
10
128.9094
20
-121.8535
30
0.0
11
127.1977
21
-122.0100
31
0.0
0
LINE
8
FORMER
10
127.1977
20
-122.0100
30
0.0
11
125.4849
21
-122.1605
31
0.0
0
LINE
8
FORMER
10
125.4849
20
-122.1605
30
0.0
11
123.7712
21
-122.3050
31
0.0
0
LINE
8
FORMER
10
123.7712
20
-122.3050
30
0.0
11
122.0566
21
-122.4436
31
0.0
0
LINE
8
FORMER
10
122.0566
20
-122.4436
30
0.0
11
120.3413
21
-122.5761
31
0.0
0
LINE
8
FORMER
10
120.3413
20
-122.5761
30
0.0
11
118.6252
21
-122.7025
31
0.0
0
LINE
8
FORMER
10
118.6252
20
-122.7025
30
0.0
11
116.9085
21
-122.8229
31
0.0
0
LINE
8
FORMER
10
116.9085
20
-122.8229
30
0.0
11
115.1913
21
-122.9371
31
0.0
0
LINE
8
FORMER
10
115.1913
20
-122.9371
30
0.0
11
113.4737
21
-123.0452
31
0.0
0
LINE
8
FORMER
10
113.4737
20
-123.0452
30
0.0
11
111.7556
21
-123.1471
31
0.0
0
LINE
8
FORMER
10
111.7556
20
-123.1471
30
0.0
11
110.0373
21
-123.2427
31
0.0
0
LINE
8
FORMER
10
110.0373
20
-123.2427
30
0.0
11
108.3187
21
-123.3322
31
0.0
0
LINE
8
FORMER
10
108.3187
20
-123.3322
30
0.0
11
106.6001
21
-123.4153
31
0.0
0
LINE
8
FORMER
10
106.6001
20
-123.4153
30
0.0
11
104.8813
21
-123.4922
31
0.0
0
LINE
8
FORMER
10
104.8813
20
-123.4922
30
0.0
11
103.1626
21
-123.5627
31
0.0
0
LINE
8
FORMER
10
103.1626
20
-123.5627
30
0.0
11
101.4440
21
-123.6268
31
0.0
0
LINE
8
FORMER
10
101.4440
20
-123.6268
30
0.0
11
99.7256
21
-123.6845
31
0.0
0
LINE
8
FORMER
10
99.7256
20
-123.6845
30
0.0
11
98.0074
21
-123.7359
31
0.0
0
LINE
8
FORMER
10
98.0074
20
-123.7359
30
0.0
11
96.2896
21
-123.7807
31
0.0
0
LINE
8
FORMER
10
96.2896
20
-123.7807
30
0.0
11
94.5722
21
-123.8191
31
0.0
0
LINE
8
FORMER
10
94.5722
20
-123.8191
30
0.0
11
92.8553
21
-123.8510
31
0.0
0
LINE
8
FORMER
10
92.8553
20
-123.8510
30
0.0
11
91.1391
21
-123.8763
31
0.0
0
LINE
8
FORMER
10
91.1391
20
-123.8763
30
0.0
11
89.4234
21
-123.8950
31
0.0
0
LINE
8
FORMER
10
89.4234
20
-123.8950
30
0.0
11
87.7086
21
-123.9071
31
0.0
0
LINE
8
FORMER
10
87.7086
20
-123.9071
30
0.0
11
85.9945
21
-123.9126
31
0.0
0
LINE
8
FORMER
10
85.9945
20
-123.9126
30
0.0
11
84.2814
21
-123.9114
31
0.0
0
LINE
8
FORMER
10
84.2814
20
-123.9114
30
0.0
11
82.5692
21
-123.9035
31
0.0
0
LINE
8
FORMER
10
82.5692
20
-123.9035
30
0.0
11
80.8582
21
-123.8889
31
0.0
0
LINE
8
FORMER
10
80.8582
20
-123.8889
30
0.0
11
79.1482
21
-123.8676
31
0.0
0
LINE
8
FORMER
10
79.1482
20
-123.8676
30
0.0
11
77.4396
21
-123.8394
31
0.0
0
LINE
8
FORMER
10
77.4396
20
-123.8394
30
0.0
11
75.7322
21
-123.8044
31
0.0
0
LINE
8
FORMER
10
75.7322
20
-123.8044
30
0.0
11
74.0262
21
-123.7626
31
0.0
0
LINE
8
FORMER
10
74.0262
20
-123.7626
30
0.0
11
72.3217
21
-123.7139
31
0.0
0
LINE
8
FORMER
10
72.3217
20
-123.7139
30
0.0
11
70.6187
21
-123.6583
31
0.0
0
LINE
8
FORMER
10
70.6187
20
-123.6583
30
0.0
11
68.9174
21
-123.5957
31
0.0
0
LINE
8
FORMER
10
68.9174
20
-123.5957
30
0.0
11
67.2178
21
-123.5262
31
0.0
0
LINE
8
FORMER
10
67.2178
20
-123.5262
30
0.0
11
65.5199
21
-123.4496
31
0.0
0
LINE
8
FORMER
10
65.5199
20
-123.4496
30
0.0
11
63.8240
21
-123.3661
31
0.0
0
LINE
8
FORMER
10
63.8240
20
-123.3661
30
0.0
11
62.1300
21
-123.2754
31
0.0
0
LINE
8
FORMER
10
62.1300
20
-123.2754
30
0.0
11
60.4380
21
-123.1777
31
0.0
0
LINE
8
FORMER
10
60.4380
20
-123.1777
30
0.0
11
58.7482
21
-123.0729
31
0.0
0
LINE
8
FORMER
10
58.7482
20
-123.0729
30
0.0
11
57.0605
21
-122.9609
31
0.0
0
LINE
8
FORMER
10
57.0605
20
-122.9609
30
0.0
11
55.3751
21
-122.8417
31
0.0
0
LINE
8
FORMER
10
55.3751
20
-122.8417
30
0.0
11
53.6921
21
-122.7153
31
0.0
0
LINE
8
FORMER
10
53.6921
20
-122.7153
30
0.0
11
52.0115
21
-122.5817
31
0.0
0
LINE
8
FORMER
10
52.0115
20
-122.5817
30
0.0
11
50.3335
21
-122.4408
31
0.0
0
LINE
8
FORMER
10
50.3335
20
-122.4408
30
0.0
11
48.6580
21
-122.2926
31
0.0
0
LINE
8
FORMER
10
48.6580
20
-122.2926
30
0.0
11
46.9852
21
-122.1370
31
0.0
0
LINE
8
FORMER
10
46.9852
20
-122.1370
30
0.0
11
45.3151
21
-121.9741
31
0.0
0
LINE
8
FORMER
10
45.3151
20
-121.9741
30
0.0
11
43.6479
21
-121.8038
31
0.0
0
LINE
8
FORMER
10
43.6479
20
-121.8038
30
0.0
11
41.9837
21
-121.6261
31
0.0
0
LINE
8
FORMER
10
41.9837
20
-121.6261
30
0.0
11
40.3224
21
-121.4409
31
0.0
0
LINE
8
FORMER
10
40.3224
20
-121.4409
30
0.0
11
38.6642
21
-121.2482
31
0.0
0
LINE
8
FORMER
10
38.6642
20
-121.2482
30
0.0
11
37.0091
21
-121.0480
31
0.0
0
LINE
8
FORMER
10
37.0091
20
-121.0480
30
0.0
11
35.3573
21
-120.8403
31
0.0
0
LINE
8
FORMER
10
35.3573
20
-120.8403
30
0.0
11
33.7089
21
-120.6250
31
0.0
0
LINE
8
FORMER
10
33.7089
20
-120.6250
30
0.0
11
32.0638
21
-120.4021
31
0.0
0
LINE
8
FORMER
10
32.0638
20
-120.4021
30
0.0
11
30.4222
21
-120.1715
31
0.0
0
LINE
8
FORMER
10
30.4222
20
-120.1715
30
0.0
11
28.7841
21
-119.9333
31
0.0
0
LINE
8
FORMER
10
28.7841
20
-119.9333
30
0.0
11
27.1497
21
-119.6874
31
0.0
0
LINE
8
FORMER
10
27.1497
20
-119.6874
30
0.0
11
25.5190
21
-119.4338
31
0.0
0
LINE
8
FORMER
10
25.5190
20
-119.4338
30
0.0
11
23.8922
21
-119.1724
31
0.0
0
LINE
8
FORMER
10
23.8922
20
-119.1724
30
0.0
11
22.2692
21
-118.9032
31
0.0
0
LINE
8
FORMER
10
22.2692
20
-118.9032
30
0.0
11
20.6502
21
-118.6262
31
0.0
0
LINE
8
FORMER
10
20.6502
20
-118.6262
30
0.0
11
19.0352
21
-118.3413
31
0.0
0
LINE
8
FORMER
10
19.0352
20
-118.3413
30
0.0
11
17.4243
21
-118.0486
31
0.0
0
LINE
8
FORMER
10
17.4243
20
-118.0486
30
0.0
11
15.8177
21
-117.7480
31
0.0
0
LINE
8
FORMER
10
15.8177
20
-117.7480
30
0.0
11
14.2153
21
-117.4394
31
0.0
0
LINE
8
FORMER
10
14.2153
20
-117.4394
30
0.0
11
12.6173
21
-117.1229
31
0.0
0
LINE
8
FORMER
10
12.6173
20
-117.1229
30
0.0
11
11.0237
21
-116.7983
31
0.0
0
LINE
8
FORMER
10
11.0237
20
-116.7983
30
0.0
11
9.4347
21
-116.4657
31
0.0
0
LINE
8
FORMER
10
9.4347
20
-116.4657
30
0.0
11
7.8502
21
-116.1251
31
0.0
0
LINE
8
FORMER
10
7.8502
20
-116.1251
30
0.0
11
6.2705
21
-115.7764
31
0.0
0
LINE
8
FORMER
10
6.2705
20
-115.7764
30
0.0
11
4.6955
21
-115.4196
31
0.0
0
LINE
8
FORMER
10
4.6955
20
-115.4196
30
0.0
11
3.1254
21
-115.0546
31
0.0
0
LINE
8
FORMER
10
3.1254
20
-115.0546
30
0.0
11
1.5602
21
-114.6814
31
0.0
0
LINE
8
FORMER
10
1.5602
20
-114.6814
30
0.0
11
0.0000
21
-114.3000
31
0.0
0
ENDSEC
0
EOF
