0
SECTION
2
HEADER
9
$INSUNITS
70
4
9
$MEASUREMENT
70
1
0
ENDSEC
0
SECTION
2
ENTITIES
0
LINE
8
INTERNAL
10
0.0000
20
-114.3000
30
0.0
11
0.0000
21
114.3000
31
0.0
0
LINE
8
INTERNAL
10
0.0000
20
114.3000
30
0.0
11
1.5562
21
114.6814
31
0.0
0
LINE
8
INTERNAL
10
1.5562
20
114.6814
30
0.0
11
3.1173
21
115.0547
31
0.0
0
LINE
8
INTERNAL
10
3.1173
20
115.0547
30
0.0
11
4.6833
21
115.4198
31
0.0
0
LINE
8
INTERNAL
10
4.6833
20
115.4198
30
0.0
11
6.2540
21
115.7769
31
0.0
0
LINE
8
INTERNAL
10
6.2540
20
115.7769
30
0.0
11
7.8295
21
116.1259
31
0.0
0
LINE
8
INTERNAL
10
7.8295
20
116.1259
30
0.0
11
9.4095
21
116.4669
31
0.0
0
LINE
8
INTERNAL
10
9.4095
20
116.4669
30
0.0
11
10.9941
21
116.7999
31
0.0
0
LINE
8
INTERNAL
10
10.9941
20
116.7999
30
0.0
11
12.5832
21
117.1250
31
0.0
0
LINE
8
INTERNAL
10
12.5832
20
117.1250
30
0.0
11
14.1767
21
117.4421
31
0.0
0
LINE
8
INTERNAL
10
14.1767
20
117.4421
30
0.0
11
15.7744
21
117.7513
31
0.0
0
LINE
8
INTERNAL
10
15.7744
20
117.7513
30
0.0
11
17.3764
21
118.0526
31
0.0
0
LINE
8
INTERNAL
10
17.3764
20
118.0526
30
0.0
11
18.9825
21
118.3461
31
0.0
0
LINE
8
INTERNAL
10
18.9825
20
118.3461
30
0.0
11
20.5927
21
118.6318
31
0.0
0
LINE
8
INTERNAL
10
20.5927
20
118.6318
30
0.0
11
22.2068
21
118.9097
31
0.0
0
LINE
8
INTERNAL
10
22.2068
20
118.9097
30
0.0
11
23.8249
21
119.1798
31
0.0
0
LINE
8
INTERNAL
10
23.8249
20
119.1798
30
0.0
11
25.4467
21
119.4422
31
0.0
0
LINE
8
INTERNAL
10
25.4467
20
119.4422
30
0.0
11
27.0724
21
119.6969
31
0.0
0
LINE
8
INTERNAL
10
27.0724
20
119.6969
30
0.0
11
28.7016
21
119.9440
31
0.0
0
LINE
8
INTERNAL
10
28.7016
20
119.9440
30
0.0
11
30.3345
21
120.1834
31
0.0
0
LINE
8
INTERNAL
10
30.3345
20
120.1834
30
0.0
11
31.9708
21
120.4152
31
0.0
0
LINE
8
INTERNAL
10
31.9708
20
120.4152
30
0.0
11
33.6106
21
120.6394
31
0.0
0
LINE
8
INTERNAL
10
33.6106
20
120.6394
30
0.0
11
35.2537
21
120.8561
31
0.0
0
LINE
8
INTERNAL
10
35.2537
20
120.8561
30
0.0
11
36.9001
21
121.0653
31
0.0
0
LINE
8
INTERNAL
10
36.9001
20
121.0653
30
0.0
11
38.5497
21
121.2670
31
0.0
0
LINE
8
INTERNAL
10
38.5497
20
121.2670
30
0.0
11
40.2023
21
121.4613
31
0.0
0
LINE
8
INTERNAL
10
40.2023
20
121.4613
30
0.0
11
41.8580
21
121.6481
31
0.0
0
LINE
8
INTERNAL
10
41.8580
20
121.6481
30
0.0
11
43.5166
21
121.8275
31
0.0
0
LINE
8
INTERNAL
10
43.5166
20
121.8275
30
0.0
11
45.1781
21
121.9996
31
0.0
0
LINE
8
INTERNAL
10
45.1781
20
121.9996
30
0.0
11
46.8424
21
122.1644
31
0.0
0
LINE
8
INTERNAL
10
46.8424
20
122.1644
30
0.0
11
48.5093
21
122.3218
31
0.0
0
LINE
8
INTERNAL
10
48.5093
20
122.3218
30
0.0
11
50.1789
21
122.4720
31
0.0
0
LINE
8
INTERNAL
10
50.1789
20
122.4720
30
0.0
11
51.8510
21
122.6149
31
0.0
0
LINE
8
INTERNAL
10
51.8510
20
122.6149
30
0.0
11
53.5256
21
122.7506
31
0.0
0
LINE
8
INTERNAL
10
53.5256
20
122.7506
30
0.0
11
55.2026
21
122.8791
31
0.0
0
LINE
8
INTERNAL
10
55.2026
20
122.8791
30
0.0
11
56.8819
21
123.0005
31
0.0
0
LINE
8
INTERNAL
10
56.8819
20
123.0005
30
0.0
11
58.5634
21
123.1148
31
0.0
0
LINE
8
INTERNAL
10
58.5634
20
123.1148
30
0.0
11
60.2470
21
123.2219
31
0.0
0
LINE
8
INTERNAL
10
60.2470
20
123.2219
30
0.0
11
61.9327
21
123.3220
31
0.0
0
LINE
8
INTERNAL
10
61.9327
20
123.3220
30
0.0
11
63.6204
21
123.4151
31
0.0
0
LINE
8
INTERNAL
10
63.6204
20
123.4151
30
0.0
11
65.3100
21
123.5012
31
0.0
0
LINE
8
INTERNAL
10
65.3100
20
123.5012
30
0.0
11
67.0014
21
123.5803
31
0.0
0
LINE
8
INTERNAL
10
67.0014
20
123.5803
30
0.0
11
68.6945
21
123.6524
31
0.0
0
LINE
8
INTERNAL
10
68.6945
20
123.6524
30
0.0
11
70.3893
21
123.7177
31
0.0
0
LINE
8
INTERNAL
10
70.3893
20
123.7177
30
0.0
11
72.0857
21
123.7760
31
0.0
0
LINE
8
INTERNAL
10
72.0857
20
123.7760
30
0.0
11
73.7836
21
123.8275
31
0.0
0
LINE
8
INTERNAL
10
73.7836
20
123.8275
30
0.0
11
75.4829
21
123.8722
31
0.0
0
LINE
8
INTERNAL
10
75.4829
20
123.8722
30
0.0
11
77.1836
21
123.9101
31
0.0
0
LINE
8
INTERNAL
10
77.1836
20
123.9101
30
0.0
11
78.8855
21
123.9413
31
0.0
0
LINE
8
INTERNAL
10
78.8855
20
123.9413
30
0.0
11
80.5886
21
123.9657
31
0.0
0
LINE
8
INTERNAL
10
80.5886
20
123.9657
30
0.0
11
82.2928
21
123.9834
31
0.0
0
LINE
8
INTERNAL
10
82.2928
20
123.9834
30
0.0
11
83.9980
21
123.9944
31
0.0
0
LINE
8
INTERNAL
10
83.9980
20
123.9944
30
0.0
11
85.7042
21
123.9988
31
0.0
0
LINE
8
INTERNAL
10
85.7042
20
123.9988
30
0.0
11
87.4112
21
123.9966
31
0.0
0
LINE
8
INTERNAL
10
87.4112
20
123.9966
30
0.0
11
89.1190
21
123.9878
31
0.0
0
LINE
8
INTERNAL
10
89.1190
20
123.9878
30
0.0
11
90.8275
21
123.9725
31
0.0
0
LINE
8
INTERNAL
10
90.8275
20
123.9725
30
0.0
11
92.5367
21
123.9506
31
0.0
0
LINE
8
INTERNAL
10
92.5367
20
123.9506
30
0.0
11
94.2463
21
123.9222
31
0.0
0
LINE
8
INTERNAL
10
94.2463
20
123.9222
30
0.0
11
95.9565
21
123.8874
31
0.0
0
LINE
8
INTERNAL
10
95.9565
20
123.8874
30
0.0
11
97.6670
21
123.8462
31
0.0
0
LINE
8
INTERNAL
10
97.6670
20
123.8462
30
0.0
11
99.3778
21
123.7985
31
0.0
0
LINE
8
INTERNAL
10
99.3778
20
123.7985
30
0.0
11
101.0889
21
123.7445
31
0.0
0
LINE
8
INTERNAL
10
101.0889
20
123.7445
30
0.0
11
102.8001
21
123.6841
31
0.0
0
LINE
8
INTERNAL
10
102.8001
20
123.6841
30
0.0
11
104.5113
21
123.6175
31
0.0
0
LINE
8
INTERNAL
10
104.5113
20
123.6175
30
0.0
11
106.2226
21
123.5445
31
0.0
0
LINE
8
INTERNAL
10
106.2226
20
123.5445
30
0.0
11
107.9337
21
123.4653
31
0.0
0
LINE
8
INTERNAL
10
107.9337
20
123.4653
30
0.0
11
109.6447
21
123.3799
31
0.0
0
LINE
8
INTERNAL
10
109.6447
20
123.3799
30
0.0
11
111.3554
21
123.2883
31
0.0
0
LINE
8
INTERNAL
10
111.3554
20
123.2883
30
0.0
11
113.0658
21
123.1905
31
0.0
0
LINE
8
INTERNAL
10
113.0658
20
123.1905
30
0.0
11
114.7757
21
123.0866
31
0.0
0
LINE
8
INTERNAL
10
114.7757
20
123.0866
30
0.0
11
116.4852
21
122.9766
31
0.0
0
LINE
8
INTERNAL
10
116.4852
20
122.9766
30
0.0
11
118.1941
21
122.8606
31
0.0
0
LINE
8
INTERNAL
10
118.1941
20
122.8606
30
0.0
11
119.9023
21
122.7385
31
0.0
0
LINE
8
INTERNAL
10
119.9023
20
122.7385
30
0.0
11
121.6098
21
122.6104
31
0.0
0
LINE
8
INTERNAL
10
121.6098
20
122.6104
30
0.0
11
123.3165
21
122.4763
31
0.0
0
LINE
8
INTERNAL
10
123.3165
20
122.4763
30
0.0
11
125.0223
21
122.3362
31
0.0
0
LINE
8
INTERNAL
10
125.0223
20
122.3362
30
0.0
11
126.7271
21
122.1903
31
0.0
0
LINE
8
INTERNAL
10
126.7271
20
122.1903
30
0.0
11
128.4308
21
122.0384
31
0.0
0
LINE
8
INTERNAL
10
128.4308
20
122.0384
30
0.0
11
130.1334
21
121.8807
31
0.0
0
LINE
8
INTERNAL
10
130.1334
20
121.8807
30
0.0
11
131.8348
21
121.7172
31
0.0
0
LINE
8
INTERNAL
10
131.8348
20
121.7172
30
0.0
11
133.5349
21
121.5478
31
0.0
0
LINE
8
INTERNAL
10
133.5349
20
121.5478
30
0.0
11
135.2337
21
121.3727
31
0.0
0
LINE
8
INTERNAL
10
135.2337
20
121.3727
30
0.0
11
136.9309
21
121.1919
31
0.0
0
LINE
8
INTERNAL
10
136.9309
20
121.1919
30
0.0
11
138.6267
21
121.0053
31
0.0
0
LINE
8
INTERNAL
10
138.6267
20
121.0053
30
0.0
11
140.3208
21
120.8131
31
0.0
0
LINE
8
INTERNAL
10
140.3208
20
120.8131
30
0.0
11
142.0132
21
120.6152
31
0.0
0
LINE
8
INTERNAL
10
142.0132
20
120.6152
30
0.0
11
143.7038
21
120.4117
31
0.0
0
LINE
8
INTERNAL
10
143.7038
20
120.4117
30
0.0
11
145.3926
21
120.2026
31
0.0
0
LINE
8
INTERNAL
10
145.3926
20
120.2026
30
0.0
11
147.0795
21
119.9880
31
0.0
0
LINE
8
INTERNAL
10
147.0795
20
119.9880
30
0.0
11
148.7643
21
119.7678
31
0.0
0
LINE
8
INTERNAL
10
148.7643
20
119.7678
30
0.0
11
150.4471
21
119.5422
31
0.0
0
LINE
8
INTERNAL
10
150.4471
20
119.5422
30
0.0
11
152.1277
21
119.3110
31
0.0
0
LINE
8
INTERNAL
10
152.1277
20
119.3110
30
0.0
11
153.8060
21
119.0744
31
0.0
0
LINE
8
INTERNAL
10
153.8060
20
119.0744
30
0.0
11
155.4820
21
118.8325
31
0.0
0
LINE
8
INTERNAL
10
155.4820
20
118.8325
30
0.0
11
157.1555
21
118.5851
31
0.0
0
LINE
8
INTERNAL
10
157.1555
20
118.5851
30
0.0
11
158.8266
21
118.3324
31
0.0
0
LINE
8
INTERNAL
10
158.8266
20
118.3324
30
0.0
11
160.4951
21
118.0744
31
0.0
0
LINE
8
INTERNAL
10
160.4951
20
118.0744
30
0.0
11
162.1609
21
117.8111
31
0.0
0
LINE
8
INTERNAL
10
162.1609
20
117.8111
30
0.0
11
163.8240
21
117.5425
31
0.0
0
LINE
8
INTERNAL
10
163.8240
20
117.5425
30
0.0
11
165.4843
21
117.2687
31
0.0
0
LINE
8
INTERNAL
10
165.4843
20
117.2687
30
0.0
11
167.1417
21
116.9897
31
0.0
0
LINE
8
INTERNAL
10
167.1417
20
116.9897
30
0.0
11
168.7961
21
116.7055
31
0.0
0
LINE
8
INTERNAL
10
168.7961
20
116.7055
30
0.0
11
170.4475
21
116.4162
31
0.0
0
LINE
8
INTERNAL
10
170.4475
20
116.4162
30
0.0
11
172.0957
21
116.1218
31
0.0
0
LINE
8
INTERNAL
10
172.0957
20
116.1218
30
0.0
11
173.7408
21
115.8223
31
0.0
0
LINE
8
INTERNAL
10
173.7408
20
115.8223
30
0.0
11
175.3825
21
115.5178
31
0.0
0
LINE
8
INTERNAL
10
175.3825
20
115.5178
30
0.0
11
177.0208
21
115.2083
31
0.0
0
LINE
8
INTERNAL
10
177.0208
20
115.2083
30
0.0
11
178.6557
21
114.8937
31
0.0
0
LINE
8
INTERNAL
10
178.6557
20
114.8937
30
0.0
11
180.2871
21
114.5743
31
0.0
0
LINE
8
INTERNAL
10
180.2871
20
114.5743
30
0.0
11
181.9148
21
114.2498
31
0.0
0
LINE
8
INTERNAL
10
181.9148
20
114.2498
30
0.0
11
183.5389
21
113.9205
31
0.0
0
LINE
8
INTERNAL
10
183.5389
20
113.9205
30
0.0
11
185.1592
21
113.5863
31
0.0
0
LINE
8
INTERNAL
10
185.1592
20
113.5863
30
0.0
11
186.7756
21
113.2473
31
0.0
0
LINE
8
INTERNAL
10
186.7756
20
113.2473
30
0.0
11
188.3881
21
112.9035
31
0.0
0
LINE
8
INTERNAL
10
188.3881
20
112.9035
30
0.0
11
189.9966
21
112.5549
31
0.0
0
LINE
8
INTERNAL
10
189.9966
20
112.5549
30
0.0
11
191.6010
21
112.2016
31
0.0
0
LINE
8
INTERNAL
10
191.6010
20
112.2016
30
0.0
11
193.2012
21
111.8435
31
0.0
0
LINE
8
INTERNAL
10
193.2012
20
111.8435
30
0.0
11
194.7971
21
111.4808
31
0.0
0
LINE
8
INTERNAL
10
194.7971
20
111.4808
30
0.0
11
196.3888
21
111.1134
31
0.0
0
LINE
8
INTERNAL
10
196.3888
20
111.1134
30
0.0
11
197.9760
21
110.7413
31
0.0
0
LINE
8
INTERNAL
10
197.9760
20
110.7413
30
0.0
11
199.5587
21
110.3647
31
0.0
0
LINE
8
INTERNAL
10
199.5587
20
110.3647
30
0.0
11
201.1368
21
109.9835
31
0.0
0
LINE
8
INTERNAL
10
201.1368
20
109.9835
30
0.0
11
202.7103
21
109.5978
31
0.0
0
LINE
8
INTERNAL
10
202.7103
20
109.5978
30
0.0
11
204.2791
21
109.2076
31
0.0
0
LINE
8
INTERNAL
10
204.2791
20
109.2076
30
0.0
11
205.8430
21
108.8129
31
0.0
0
LINE
8
INTERNAL
10
205.8430
20
108.8129
30
0.0
11
207.4021
21
108.4137
31
0.0
0
LINE
8
INTERNAL
10
207.4021
20
108.4137
30
0.0
11
208.9561
21
108.0101
31
0.0
0
LINE
8
INTERNAL
10
208.9561
20
108.0101
30
0.0
11
210.5052
21
107.6022
31
0.0
0
LINE
8
INTERNAL
10
210.5052
20
107.6022
30
0.0
11
212.0491
21
107.1899
31
0.0
0
LINE
8
INTERNAL
10
212.0491
20
107.1899
30
0.0
11
213.5877
21
106.7733
31
0.0
0
LINE
8
INTERNAL
10
213.5877
20
106.7733
30
0.0
11
215.1211
21
106.3523
31
0.0
0
LINE
8
INTERNAL
10
215.1211
20
106.3523
30
0.0
11
216.6491
21
105.9271
31
0.0
0
LINE
8
INTERNAL
10
216.6491
20
105.9271
30
0.0
11
218.1717
21
105.4977
31
0.0
0
LINE
8
INTERNAL
10
218.1717
20
105.4977
30
0.0
11
219.6887
21
105.0641
31
0.0
0
LINE
8
INTERNAL
10
219.6887
20
105.0641
30
0.0
11
221.2001
21
104.6263
31
0.0
0
LINE
8
INTERNAL
10
221.2001
20
104.6263
30
0.0
11
222.7059
21
104.1843
31
0.0
0
LINE
8
INTERNAL
10
222.7059
20
104.1843
30
0.0
11
224.2058
21
103.7383
31
0.0
0
LINE
8
INTERNAL
10
224.2058
20
103.7383
30
0.0
11
225.6999
21
103.2881
31
0.0
0
LINE
8
INTERNAL
10
225.6999
20
103.2881
30
0.0
11
227.1881
21
102.8339
31
0.0
0
LINE
8
INTERNAL
10
227.1881
20
102.8339
30
0.0
11
228.6702
21
102.3757
31
0.0
0
LINE
8
INTERNAL
10
228.6702
20
102.3757
30
0.0
11
230.1463
21
101.9135
31
0.0
0
LINE
8
INTERNAL
10
230.1463
20
101.9135
30
0.0
11
231.6162
21
101.4473
31
0.0
0
LINE
8
INTERNAL
10
231.6162
20
101.4473
30
0.0
11
233.0798
21
100.9771
31
0.0
0
LINE
8
INTERNAL
10
233.0798
20
100.9771
30
0.0
11
234.5371
21
100.5031
31
0.0
0
LINE
8
INTERNAL
10
234.5371
20
100.5031
30
0.0
11
235.9880
21
100.0252
31
0.0
0
LINE
8
INTERNAL
10
235.9880
20
100.0252
30
0.0
11
237.4324
21
99.5435
31
0.0
0
LINE
8
INTERNAL
10
237.4324
20
99.5435
30
0.0
11
238.8702
21
99.0579
31
0.0
0
LINE
8
INTERNAL
10
238.8702
20
99.0579
30
0.0
11
240.3014
21
98.5686
31
0.0
0
LINE
8
INTERNAL
10
240.3014
20
98.5686
30
0.0
11
241.7258
21
98.0755
31
0.0
0
LINE
8
INTERNAL
10
241.7258
20
98.0755
30
0.0
11
243.1435
21
97.5787
31
0.0
0
LINE
8
INTERNAL
10
243.1435
20
97.5787
30
0.0
11
244.5542
21
97.0782
31
0.0
0
LINE
8
INTERNAL
10
244.5542
20
97.0782
30
0.0
11
245.9580
21
96.5740
31
0.0
0
LINE
8
INTERNAL
10
245.9580
20
96.5740
30
0.0
11
247.3547
21
96.0662
31
0.0
0
LINE
8
INTERNAL
10
247.3547
20
96.0662
30
0.0
11
248.7443
21
95.5548
31
0.0
0
LINE
8
INTERNAL
10
248.7443
20
95.5548
30
0.0
11
250.1267
21
95.0398
31
0.0
0
LINE
8
INTERNAL
10
250.1267
20
95.0398
30
0.0
11
251.5017
21
94.5213
31
0.0
0
LINE
8
INTERNAL
10
251.5017
20
94.5213
30
0.0
11
252.8695
21
93.9992
31
0.0
0
LINE
8
INTERNAL
10
252.8695
20
93.9992
30
0.0
11
254.2297
21
93.4737
31
0.0
0
LINE
8
INTERNAL
10
254.2297
20
93.4737
30
0.0
11
255.5824
21
92.9447
31
0.0
0
LINE
8
INTERNAL
10
255.5824
20
92.9447
30
0.0
11
256.9276
21
92.4123
31
0.0
0
LINE
8
INTERNAL
10
256.9276
20
92.4123
30
0.0
11
258.2650
21
91.8765
31
0.0
0
LINE
8
INTERNAL
10
258.2650
20
91.8765
30
0.0
11
259.5946
21
91.3374
31
0.0
0
LINE
8
INTERNAL
10
259.5946
20
91.3374
30
0.0
11
260.9165
21
90.7949
31
0.0
0
LINE
8
INTERNAL
10
260.9165
20
90.7949
30
0.0
11
262.2303
21
90.2491
31
0.0
0
LINE
8
INTERNAL
10
262.2303
20
90.2491
30
0.0
11
263.5362
21
89.7000
31
0.0
0
LINE
8
INTERNAL
10
263.5362
20
89.7000
30
0.0
11
264.8340
21
89.1477
31
0.0
0
LINE
8
INTERNAL
10
264.8340
20
89.1477
30
0.0
11
266.1236
21
88.5922
31
0.0
0
LINE
8
INTERNAL
10
266.1236
20
88.5922
30
0.0
11
267.4049
21
88.0335
31
0.0
0
LINE
8
INTERNAL
10
267.4049
20
88.0335
30
0.0
11
268.6779
21
87.4717
31
0.0
0
LINE
8
INTERNAL
10
268.6779
20
87.4717
30
0.0
11
269.9425
21
86.9067
31
0.0
0
LINE
8
INTERNAL
10
269.9425
20
86.9067
30
0.0
11
271.1987
21
86.3386
31
0.0
0
LINE
8
INTERNAL
10
271.1987
20
86.3386
30
0.0
11
272.4462
21
85.7675
31
0.0
0
LINE
8
INTERNAL
10
272.4462
20
85.7675
30
0.0
11
273.6851
21
85.1933
31
0.0
0
LINE
8
INTERNAL
10
273.6851
20
85.1933
30
0.0
11
274.9153
21
84.6162
31
0.0
0
LINE
8
INTERNAL
10
274.9153
20
84.6162
30
0.0
11
276.1366
21
84.0360
31
0.0
0
LINE
8
INTERNAL
10
276.1366
20
84.0360
30
0.0
11
277.3491
21
83.4530
31
0.0
0
LINE
8
INTERNAL
10
277.3491
20
83.4530
30
0.0
11
278.5526
21
82.8670
31
0.0
0
LINE
8
INTERNAL
10
278.5526
20
82.8670
30
0.0
11
279.7470
21
82.2781
31
0.0
0
LINE
8
INTERNAL
10
279.7470
20
82.2781
30
0.0
11
280.9324
21
81.6864
31
0.0
0
LINE
8
INTERNAL
10
280.9324
20
81.6864
30
0.0
11
282.1085
21
81.0918
31
0.0
0
LINE
8
INTERNAL
10
282.1085
20
81.0918
30
0.0
11
283.2753
21
80.4945
31
0.0
0
LINE
8
INTERNAL
10
283.2753
20
80.4945
30
0.0
11
284.4327
21
79.8944
31
0.0
0
LINE
8
INTERNAL
10
284.4327
20
79.8944
30
0.0
11
285.5807
21
79.2916
31
0.0
0
LINE
8
INTERNAL
10
285.5807
20
79.2916
30
0.0
11
286.7192
21
78.6861
31
0.0
0
LINE
8
INTERNAL
10
286.7192
20
78.6861
30
0.0
11
287.8481
21
78.0779
31
0.0
0
LINE
8
INTERNAL
10
287.8481
20
78.0779
30
0.0
11
288.9672
21
77.4670
31
0.0
0
LINE
8
INTERNAL
10
288.9672
20
77.4670
30
0.0
11
290.0766
21
76.8536
31
0.0
0
LINE
8
INTERNAL
10
290.0766
20
76.8536
30
0.0
11
291.1762
21
76.2375
31
0.0
0
LINE
8
INTERNAL
10
291.1762
20
76.2375
30
0.0
11
292.2658
21
75.6190
31
0.0
0
LINE
8
INTERNAL
10
292.2658
20
75.6190
30
0.0
11
293.3454
21
74.9979
31
0.0
0
LINE
8
INTERNAL
10
293.3454
20
74.9979
30
0.0
11
294.4149
21
74.3743
31
0.0
0
LINE
8
INTERNAL
10
294.4149
20
74.3743
30
0.0
11
295.4743
21
73.7482
31
0.0
0
LINE
8
INTERNAL
10
295.4743
20
73.7482
30
0.0
11
296.5234
21
73.1197
31
0.0
0
LINE
8
INTERNAL
10
296.5234
20
73.1197
30
0.0
11
297.5621
21
72.4889
31
0.0
0
LINE
8
INTERNAL
10
297.5621
20
72.4889
30
0.0
11
298.5905
21
71.8556
31
0.0
0
LINE
8
INTERNAL
10
298.5905
20
71.8556
30
0.0
11
299.6084
21
71.2200
31
0.0
0
LINE
8
INTERNAL
10
299.6084
20
71.2200
30
0.0
11
300.6157
21
70.5821
31
0.0
0
LINE
8
INTERNAL
10
300.6157
20
70.5821
30
0.0
11
301.6123
21
69.9419
31
0.0
0
LINE
8
INTERNAL
10
301.6123
20
69.9419
30
0.0
11
302.5983
21
69.2995
31
0.0
0
LINE
8
INTERNAL
10
302.5983
20
69.2995
30
0.0
11
303.5734
21
68.6548
31
0.0
0
LINE
8
INTERNAL
10
303.5734
20
68.6548
30
0.0
11
304.5376
21
68.0080
31
0.0
0
LINE
8
INTERNAL
10
304.5376
20
68.0080
30
0.0
11
304.5376
21
68.0080
31
0.0
0
LINE
8
INTERNAL
10
304.5376
20
68.0080
30
0.0
11
304.8826
21
67.7931
31
0.0
0
LINE
8
INTERNAL
10
304.8826
20
67.7931
30
0.0
11
305.2265
21
67.5764
31
0.0
0
LINE
8
INTERNAL
10
305.2265
20
67.5764
30
0.0
11
305.5693
21
67.3580
31
0.0
0
LINE
8
INTERNAL
10
305.5693
20
67.3580
30
0.0
11
305.9110
21
67.1378
31
0.0
0
LINE
8
INTERNAL
10
305.9110
20
67.1378
30
0.0
11
306.2515
21
66.9159
31
0.0
0
LINE
8
INTERNAL
10
306.2515
20
66.9159
30
0.0
11
306.5910
21
66.6923
31
0.0
0
LINE
8
INTERNAL
10
306.5910
20
66.6923
30
0.0
11
306.9293
21
66.4669
31
0.0
0
LINE
8
INTERNAL
10
306.9293
20
66.4669
30
0.0
11
307.2664
21
66.2398
31
0.0
0
LINE
8
INTERNAL
10
307.2664
20
66.2398
30
0.0
11
307.6024
21
66.0111
31
0.0
0
LINE
8
INTERNAL
10
307.6024
20
66.0111
30
0.0
11
307.9372
21
65.7806
31
0.0
0
LINE
8
INTERNAL
10
307.9372
20
65.7806
30
0.0
11
308.2708
21
65.5484
31
0.0
0
LINE
8
INTERNAL
10
308.2708
20
65.5484
30
0.0
11
308.6033
21
65.3145
31
0.0
0
LINE
8
INTERNAL
10
308.6033
20
65.3145
30
0.0
11
308.9345
21
65.0790
31
0.0
0
LINE
8
INTERNAL
10
308.9345
20
65.0790
30
0.0
11
309.2646
21
64.8418
31
0.0
0
LINE
8
INTERNAL
10
309.2646
20
64.8418
30
0.0
11
309.5934
21
64.6028
31
0.0
0
LINE
8
INTERNAL
10
309.5934
20
64.6028
30
0.0
11
309.9210
21
64.3623
31
0.0
0
LINE
8
INTERNAL
10
309.9210
20
64.3623
30
0.0
11
310.2474
21
64.1200
31
0.0
0
LINE
8
INTERNAL
10
310.2474
20
64.1200
30
0.0
11
310.5726
21
63.8761
31
0.0
0
LINE
8
INTERNAL
10
310.5726
20
63.8761
30
0.0
11
310.8965
21
63.6306
31
0.0
0
LINE
8
INTERNAL
10
310.8965
20
63.6306
30
0.0
11
311.2192
21
63.3834
31
0.0
0
LINE
8
INTERNAL
10
311.2192
20
63.3834
30
0.0
11
311.5406
21
63.1346
31
0.0
0
LINE
8
INTERNAL
10
311.5406
20
63.1346
30
0.0
11
311.8608
21
62.8841
31
0.0
0
LINE
8
INTERNAL
10
311.8608
20
62.8841
30
0.0
11
312.1796
21
62.6321
31
0.0
0
LINE
8
INTERNAL
10
312.1796
20
62.6321
30
0.0
11
312.4972
21
62.3784
31
0.0
0
LINE
8
INTERNAL
10
312.4972
20
62.3784
30
0.0
11
312.8135
21
62.1231
31
0.0
0
LINE
8
INTERNAL
10
312.8135
20
62.1231
30
0.0
11
313.1285
21
61.8662
31
0.0
0
LINE
8
INTERNAL
10
313.1285
20
61.8662
30
0.0
11
313.4422
21
61.6077
31
0.0
0
LINE
8
INTERNAL
10
313.4422
20
61.6077
30
0.0
11
313.7545
21
61.3476
31
0.0
0
LINE
8
INTERNAL
10
313.7545
20
61.3476
30
0.0
11
314.0656
21
61.0859
31
0.0
0
LINE
8
INTERNAL
10
314.0656
20
61.0859
30
0.0
11
314.3753
21
60.8226
31
0.0
0
LINE
8
INTERNAL
10
314.3753
20
60.8226
30
0.0
11
314.6836
21
60.5578
31
0.0
0
LINE
8
INTERNAL
10
314.6836
20
60.5578
30
0.0
11
314.9906
21
60.2914
31
0.0
0
LINE
8
INTERNAL
10
314.9906
20
60.2914
30
0.0
11
315.2963
21
60.0235
31
0.0
0
LINE
8
INTERNAL
10
315.2963
20
60.0235
30
0.0
11
315.6006
21
59.7540
31
0.0
0
LINE
8
INTERNAL
10
315.6006
20
59.7540
30
0.0
11
315.9035
21
59.4830
31
0.0
0
LINE
8
INTERNAL
10
315.9035
20
59.4830
30
0.0
11
316.2050
21
59.2104
31
0.0
0
LINE
8
INTERNAL
10
316.2050
20
59.2104
30
0.0
11
316.5052
21
58.9363
31
0.0
0
LINE
8
INTERNAL
10
316.5052
20
58.9363
30
0.0
11
316.8039
21
58.6607
31
0.0
0
LINE
8
INTERNAL
10
316.8039
20
58.6607
30
0.0
11
317.1013
21
58.3835
31
0.0
0
LINE
8
INTERNAL
10
317.1013
20
58.3835
30
0.0
11
317.3972
21
58.1049
31
0.0
0
LINE
8
INTERNAL
10
317.3972
20
58.1049
30
0.0
11
317.6917
21
57.8248
31
0.0
0
LINE
8
INTERNAL
10
317.6917
20
57.8248
30
0.0
11
317.9848
21
57.5431
31
0.0
0
LINE
8
INTERNAL
10
317.9848
20
57.5431
30
0.0
11
318.2764
21
57.2600
31
0.0
0
LINE
8
INTERNAL
10
318.2764
20
57.2600
30
0.0
11
318.5667
21
56.9754
31
0.0
0
LINE
8
INTERNAL
10
318.5667
20
56.9754
30
0.0
11
318.8554
21
56.6893
31
0.0
0
LINE
8
INTERNAL
10
318.8554
20
56.6893
30
0.0
11
319.1427
21
56.4018
31
0.0
0
LINE
8
INTERNAL
10
319.1427
20
56.4018
30
0.0
11
319.4285
21
56.1128
31
0.0
0
LINE
8
INTERNAL
10
319.4285
20
56.1128
30
0.0
11
319.7129
21
55.8224
31
0.0
0
LINE
8
INTERNAL
10
319.7129
20
55.8224
30
0.0
11
319.9958
21
55.5305
31
0.0
0
LINE
8
INTERNAL
10
319.9958
20
55.5305
30
0.0
11
320.2772
21
55.2372
31
0.0
0
LINE
8
INTERNAL
10
320.2772
20
55.2372
30
0.0
11
320.5571
21
54.9424
31
0.0
0
LINE
8
INTERNAL
10
320.5571
20
54.9424
30
0.0
11
320.8355
21
54.6463
31
0.0
0
LINE
8
INTERNAL
10
320.8355
20
54.6463
30
0.0
11
321.1124
21
54.3487
31
0.0
0
LINE
8
INTERNAL
10
321.1124
20
54.3487
30
0.0
11
321.3878
21
54.0497
31
0.0
0
LINE
8
INTERNAL
10
321.3878
20
54.0497
30
0.0
11
321.6616
21
53.7494
31
0.0
0
LINE
8
INTERNAL
10
321.6616
20
53.7494
30
0.0
11
321.9340
21
53.4476
31
0.0
0
LINE
8
INTERNAL
10
321.9340
20
53.4476
30
0.0
11
322.2048
21
53.1445
31
0.0
0
LINE
8
INTERNAL
10
322.2048
20
53.1445
30
0.0
11
322.4740
21
52.8400
31
0.0
0
LINE
8
INTERNAL
10
322.4740
20
52.8400
30
0.0
11
322.7417
21
52.5341
31
0.0
0
LINE
8
INTERNAL
10
322.7417
20
52.5341
30
0.0
11
323.0078
21
52.2269
31
0.0
0
LINE
8
INTERNAL
10
323.0078
20
52.2269
30
0.0
11
323.2724
21
51.9183
31
0.0
0
LINE
8
INTERNAL
10
323.2724
20
51.9183
30
0.0
11
323.5354
21
51.6084
31
0.0
0
LINE
8
INTERNAL
10
323.5354
20
51.6084
30
0.0
11
323.7968
21
51.2972
31
0.0
0
LINE
8
INTERNAL
10
323.7968
20
51.2972
30
0.0
11
324.0567
21
50.9846
31
0.0
0
LINE
8
INTERNAL
10
324.0567
20
50.9846
30
0.0
11
324.3149
21
50.6707
31
0.0
0
LINE
8
INTERNAL
10
324.3149
20
50.6707
30
0.0
11
324.5716
21
50.3555
31
0.0
0
LINE
8
INTERNAL
10
324.5716
20
50.3555
30
0.0
11
324.8266
21
50.0390
31
0.0
0
LINE
8
INTERNAL
10
324.8266
20
50.0390
30
0.0
11
325.0801
21
49.7212
31
0.0
0
LINE
8
INTERNAL
10
325.0801
20
49.7212
30
0.0
11
325.3319
21
49.4022
31
0.0
0
LINE
8
INTERNAL
10
325.3319
20
49.4022
30
0.0
11
325.5821
21
49.0818
31
0.0
0
LINE
8
INTERNAL
10
325.5821
20
49.0818
30
0.0
11
325.8306
21
48.7602
31
0.0
0
LINE
8
INTERNAL
10
325.8306
20
48.7602
30
0.0
11
326.0776
21
48.4373
31
0.0
0
LINE
8
INTERNAL
10
326.0776
20
48.4373
30
0.0
11
326.3228
21
48.1132
31
0.0
0
LINE
8
INTERNAL
10
326.3228
20
48.1132
30
0.0
11
326.5665
21
47.7878
31
0.0
0
LINE
8
INTERNAL
10
326.5665
20
47.7878
30
0.0
11
326.8085
21
47.4612
31
0.0
0
LINE
8
INTERNAL
10
326.8085
20
47.4612
30
0.0
11
327.0488
21
47.1334
31
0.0
0
LINE
8
INTERNAL
10
327.0488
20
47.1334
30
0.0
11
327.2874
21
46.8044
31
0.0
0
LINE
8
INTERNAL
10
327.2874
20
46.8044
30
0.0
11
327.5244
21
46.4741
31
0.0
0
LINE
8
INTERNAL
10
327.5244
20
46.4741
30
0.0
11
327.7597
21
46.1427
31
0.0
0
LINE
8
INTERNAL
10
327.7597
20
46.1427
30
0.0
11
327.9933
21
45.8101
31
0.0
0
LINE
8
INTERNAL
10
327.9933
20
45.8101
30
0.0
11
328.2252
21
45.4762
31
0.0
0
LINE
8
INTERNAL
10
328.2252
20
45.4762
30
0.0
11
328.4554
21
45.1412
31
0.0
0
LINE
8
INTERNAL
10
328.4554
20
45.1412
30
0.0
11
328.6839
21
44.8051
31
0.0
0
LINE
8
INTERNAL
10
328.6839
20
44.8051
30
0.0
11
328.9107
21
44.4678
31
0.0
0
LINE
8
INTERNAL
10
328.9107
20
44.4678
30
0.0
11
329.1358
21
44.1293
31
0.0
0
LINE
8
INTERNAL
10
329.1358
20
44.1293
30
0.0
11
329.3591
21
43.7897
31
0.0
0
LINE
8
INTERNAL
10
329.3591
20
43.7897
30
0.0
11
329.5807
21
43.4490
31
0.0
0
LINE
8
INTERNAL
10
329.5807
20
43.4490
30
0.0
11
329.8006
21
43.1071
31
0.0
0
LINE
8
INTERNAL
10
329.8006
20
43.1071
30
0.0
11
330.0188
21
42.7641
31
0.0
0
LINE
8
INTERNAL
10
330.0188
20
42.7641
30
0.0
11
330.2352
21
42.4201
31
0.0
0
LINE
8
INTERNAL
10
330.2352
20
42.4201
30
0.0
11
330.4498
21
42.0749
31
0.0
0
LINE
8
INTERNAL
10
330.4498
20
42.0749
30
0.0
11
330.6627
21
41.7286
31
0.0
0
LINE
8
INTERNAL
10
330.6627
20
41.7286
30
0.0
11
330.8739
21
41.3813
31
0.0
0
LINE
8
INTERNAL
10
330.8739
20
41.3813
30
0.0
11
331.0832
21
41.0329
31
0.0
0
LINE
8
INTERNAL
10
331.0832
20
41.0329
30
0.0
11
331.2908
21
40.6834
31
0.0
0
LINE
8
INTERNAL
10
331.2908
20
40.6834
30
0.0
11
331.4967
21
40.3329
31
0.0
0
LINE
8
INTERNAL
10
331.4967
20
40.3329
30
0.0
11
331.7007
21
39.9814
31
0.0
0
LINE
8
INTERNAL
10
331.7007
20
39.9814
30
0.0
11
331.9029
21
39.6288
31
0.0
0
LINE
8
INTERNAL
10
331.9029
20
39.6288
30
0.0
11
332.1034
21
39.2752
31
0.0
0
LINE
8
INTERNAL
10
332.1034
20
39.2752
30
0.0
11
332.3020
21
38.9206
31
0.0
0
LINE
8
INTERNAL
10
332.3020
20
38.9206
30
0.0
11
332.4989
21
38.5650
31
0.0
0
LINE
8
INTERNAL
10
332.4989
20
38.5650
30
0.0
11
332.6939
21
38.2083
31
0.0
0
LINE
8
INTERNAL
10
332.6939
20
38.2083
30
0.0
11
332.8871
21
37.8507
31
0.0
0
LINE
8
INTERNAL
10
332.8871
20
37.8507
30
0.0
11
333.0785
21
37.4921
31
0.0
0
LINE
8
INTERNAL
10
333.0785
20
37.4921
30
0.0
11
333.2681
21
37.1326
31
0.0
0
LINE
8
INTERNAL
10
333.2681
20
37.1326
30
0.0
11
333.4559
21
36.7721
31
0.0
0
LINE
8
INTERNAL
10
333.4559
20
36.7721
30
0.0
11
333.6418
21
36.4106
31
0.0
0
LINE
8
INTERNAL
10
333.6418
20
36.4106
30
0.0
11
333.8259
21
36.0482
31
0.0
0
LINE
8
INTERNAL
10
333.8259
20
36.0482
30
0.0
11
334.0081
21
35.6849
31
0.0
0
LINE
8
INTERNAL
10
334.0081
20
35.6849
30
0.0
11
334.1885
21
35.3206
31
0.0
0
LINE
8
INTERNAL
10
334.1885
20
35.3206
30
0.0
11
334.3670
21
34.9555
31
0.0
0
LINE
8
INTERNAL
10
334.3670
20
34.9555
30
0.0
11
334.5437
21
34.5894
31
0.0
0
LINE
8
INTERNAL
10
334.5437
20
34.5894
30
0.0
11
334.7185
21
34.2225
31
0.0
0
LINE
8
INTERNAL
10
334.7185
20
34.2225
30
0.0
11
334.8915
21
33.8546
31
0.0
0
LINE
8
INTERNAL
10
334.8915
20
33.8546
30
0.0
11
335.0625
21
33.4859
31
0.0
0
LINE
8
INTERNAL
10
335.0625
20
33.4859
30
0.0
11
335.2317
21
33.1163
31
0.0
0
LINE
8
INTERNAL
10
335.2317
20
33.1163
30
0.0
11
335.3991
21
32.7459
31
0.0
0
LINE
8
INTERNAL
10
335.3991
20
32.7459
30
0.0
11
335.5645
21
32.3746
31
0.0
0
LINE
8
INTERNAL
10
335.5645
20
32.3746
30
0.0
11
335.7280
21
32.0025
31
0.0
0
LINE
8
INTERNAL
10
335.7280
20
32.0025
30
0.0
11
335.8897
21
31.6296
31
0.0
0
LINE
8
INTERNAL
10
335.8897
20
31.6296
30
0.0
11
336.0494
21
31.2558
31
0.0
0
LINE
8
INTERNAL
10
336.0494
20
31.2558
30
0.0
11
336.2073
21
30.8812
31
0.0
0
LINE
8
INTERNAL
10
336.2073
20
30.8812
30
0.0
11
336.3632
21
30.5059
31
0.0
0
LINE
8
INTERNAL
10
336.3632
20
30.5059
30
0.0
11
336.5173
21
30.1297
31
0.0
0
LINE
8
INTERNAL
10
336.5173
20
30.1297
30
0.0
11
336.6694
21
29.7528
31
0.0
0
LINE
8
INTERNAL
10
336.6694
20
29.7528
30
0.0
11
336.8196
21
29.3751
31
0.0
0
LINE
8
INTERNAL
10
336.8196
20
29.3751
30
0.0
11
336.9679
21
28.9966
31
0.0
0
LINE
8
INTERNAL
10
336.9679
20
28.9966
30
0.0
11
337.1143
21
28.6174
31
0.0
0
LINE
8
INTERNAL
10
337.1143
20
28.6174
30
0.0
11
337.2587
21
28.2375
31
0.0
0
LINE
8
INTERNAL
10
337.2587
20
28.2375
30
0.0
11
337.4012
21
27.8568
31
0.0
0
LINE
8
INTERNAL
10
337.4012
20
27.8568
30
0.0
11
337.5418
21
27.4754
31
0.0
0
LINE
8
INTERNAL
10
337.5418
20
27.4754
30
0.0
11
337.6804
21
27.0933
31
0.0
0
LINE
8
INTERNAL
10
337.6804
20
27.0933
30
0.0
11
337.8171
21
26.7105
31
0.0
0
LINE
8
INTERNAL
10
337.8171
20
26.7105
30
0.0
11
337.9518
21
26.3271
31
0.0
0
LINE
8
INTERNAL
10
337.9518
20
26.3271
30
0.0
11
338.0846
21
25.9429
31
0.0
0
LINE
8
INTERNAL
10
338.0846
20
25.9429
30
0.0
11
338.2155
21
25.5580
31
0.0
0
LINE
8
INTERNAL
10
338.2155
20
25.5580
30
0.0
11
338.3443
21
25.1725
31
0.0
0
LINE
8
INTERNAL
10
338.3443
20
25.1725
30
0.0
11
338.4713
21
24.7864
31
0.0
0
LINE
8
INTERNAL
10
338.4713
20
24.7864
30
0.0
11
338.5962
21
24.3996
31
0.0
0
LINE
8
INTERNAL
10
338.5962
20
24.3996
30
0.0
11
338.7192
21
24.0122
31
0.0
0
LINE
8
INTERNAL
10
338.7192
20
24.0122
30
0.0
11
338.8402
21
23.6242
31
0.0
0
LINE
8
INTERNAL
10
338.8402
20
23.6242
30
0.0
11
338.9593
21
23.2355
31
0.0
0
LINE
8
INTERNAL
10
338.9593
20
23.2355
30
0.0
11
339.0763
21
22.8463
31
0.0
0
LINE
8
INTERNAL
10
339.0763
20
22.8463
30
0.0
11
339.1914
21
22.4564
31
0.0
0
LINE
8
INTERNAL
10
339.1914
20
22.4564
30
0.0
11
339.3045
21
22.0660
31
0.0
0
LINE
8
INTERNAL
10
339.3045
20
22.0660
30
0.0
11
339.4157
21
21.6750
31
0.0
0
LINE
8
INTERNAL
10
339.4157
20
21.6750
30
0.0
11
339.5248
21
21.2835
31
0.0
0
LINE
8
INTERNAL
10
339.5248
20
21.2835
30
0.0
11
339.6319
21
20.8914
31
0.0
0
LINE
8
INTERNAL
10
339.6319
20
20.8914
30
0.0
11
339.7371
21
20.4988
31
0.0
0
LINE
8
INTERNAL
10
339.7371
20
20.4988
30
0.0
11
339.8402
21
20.1056
31
0.0
0
LINE
8
INTERNAL
10
339.8402
20
20.1056
30
0.0
11
339.9414
21
19.7119
31
0.0
0
LINE
8
INTERNAL
10
339.9414
20
19.7119
30
0.0
11
340.0405
21
19.3177
31
0.0
0
LINE
8
INTERNAL
10
340.0405
20
19.3177
30
0.0
11
340.1377
21
18.9230
31
0.0
0
LINE
8
INTERNAL
10
340.1377
20
18.9230
30
0.0
11
340.2328
21
18.5279
31
0.0
0
LINE
8
INTERNAL
10
340.2328
20
18.5279
30
0.0
11
340.3260
21
18.1322
31
0.0
0
LINE
8
INTERNAL
10
340.3260
20
18.1322
30
0.0
11
340.4171
21
17.7361
31
0.0
0
LINE
8
INTERNAL
10
340.4171
20
17.7361
30
0.0
11
340.5062
21
17.3395
31
0.0
0
LINE
8
INTERNAL
10
340.5062
20
17.3395
30
0.0
11
340.5933
21
16.9425
31
0.0
0
LINE
8
INTERNAL
10
340.5933
20
16.9425
30
0.0
11
340.6784
21
16.5450
31
0.0
0
LINE
8
INTERNAL
10
340.6784
20
16.5450
30
0.0
11
340.7614
21
16.1471
31
0.0
0
LINE
8
INTERNAL
10
340.7614
20
16.1471
30
0.0
11
340.8424
21
15.7488
31
0.0
0
LINE
8
INTERNAL
10
340.8424
20
15.7488
30
0.0
11
340.9214
21
15.3501
31
0.0
0
LINE
8
INTERNAL
10
340.9214
20
15.3501
30
0.0
11
340.9984
21
14.9510
31
0.0
0
LINE
8
INTERNAL
10
340.9984
20
14.9510
30
0.0
11
341.0734
21
14.5515
31
0.0
0
LINE
8
INTERNAL
10
341.0734
20
14.5515
30
0.0
11
341.1463
21
14.1516
31
0.0
0
LINE
8
INTERNAL
10
341.1463
20
14.1516
30
0.0
11
341.2172
21
13.7513
31
0.0
0
LINE
8
INTERNAL
10
341.2172
20
13.7513
30
0.0
11
341.2860
21
13.3507
31
0.0
0
LINE
8
INTERNAL
10
341.2860
20
13.3507
30
0.0
11
341.3528
21
12.9498
31
0.0
0
LINE
8
INTERNAL
10
341.3528
20
12.9498
30
0.0
11
341.4176
21
12.5485
31
0.0
0
LINE
8
INTERNAL
10
341.4176
20
12.5485
30
0.0
11
341.4804
21
12.1469
31
0.0
0
LINE
8
INTERNAL
10
341.4804
20
12.1469
30
0.0
11
341.5411
21
11.7450
31
0.0
0
LINE
8
INTERNAL
10
341.5411
20
11.7450
30
0.0
11
341.5997
21
11.3428
31
0.0
0
LINE
8
INTERNAL
10
341.5997
20
11.3428
30
0.0
11
341.6563
21
10.9403
31
0.0
0
LINE
8
INTERNAL
10
341.6563
20
10.9403
30
0.0
11
341.7109
21
10.5375
31
0.0
0
LINE
8
INTERNAL
10
341.7109
20
10.5375
30
0.0
11
341.7634
21
10.1344
31
0.0
0
LINE
8
INTERNAL
10
341.7634
20
10.1344
30
0.0
11
341.8139
21
9.7311
31
0.0
0
LINE
8
INTERNAL
10
341.8139
20
9.7311
30
0.0
11
341.8623
21
9.3275
31
0.0
0
LINE
8
INTERNAL
10
341.8623
20
9.3275
30
0.0
11
341.9086
21
8.9237
31
0.0
0
LINE
8
INTERNAL
10
341.9086
20
8.9237
30
0.0
11
341.9530
21
8.5197
31
0.0
0
LINE
8
INTERNAL
10
341.9530
20
8.5197
30
0.0
11
341.9952
21
8.1154
31
0.0
0
LINE
8
INTERNAL
10
341.9952
20
8.1154
30
0.0
11
342.0354
21
7.7109
31
0.0
0
LINE
8
INTERNAL
10
342.0354
20
7.7109
30
0.0
11
342.0736
21
7.3063
31
0.0
0
LINE
8
INTERNAL
10
342.0736
20
7.3063
30
0.0
11
342.1097
21
6.9014
31
0.0
0
LINE
8
INTERNAL
10
342.1097
20
6.9014
30
0.0
11
342.1437
21
6.4964
31
0.0
0
LINE
8
INTERNAL
10
342.1437
20
6.4964
30
0.0
11
342.1757
21
6.0911
31
0.0
0
LINE
8
INTERNAL
10
342.1757
20
6.0911
30
0.0
11
342.2056
21
5.6858
31
0.0
0
LINE
8
INTERNAL
10
342.2056
20
5.6858
30
0.0
11
342.2335
21
5.2803
31
0.0
0
LINE
8
INTERNAL
10
342.2335
20
5.2803
30
0.0
11
342.2593
21
4.8746
31
0.0
0
LINE
8
INTERNAL
10
342.2593
20
4.8746
30
0.0
11
342.2830
21
4.4688
31
0.0
0
LINE
8
INTERNAL
10
342.2830
20
4.4688
30
0.0
11
342.3047
21
4.0630
31
0.0
0
LINE
8
INTERNAL
10
342.3047
20
4.0630
30
0.0
11
342.3243
21
3.6570
31
0.0
0
LINE
8
INTERNAL
10
342.3243
20
3.6570
30
0.0
11
342.3418
21
3.2509
31
0.0
0
LINE
8
INTERNAL
10
342.3418
20
3.2509
30
0.0
11
342.3573
21
2.8447
31
0.0
0
LINE
8
INTERNAL
10
342.3573
20
2.8447
30
0.0
11
342.3707
21
2.4384
31
0.0
0
LINE
8
INTERNAL
10
342.3707
20
2.4384
30
0.0
11
342.3821
21
2.0321
31
0.0
0
LINE
8
INTERNAL
10
342.3821
20
2.0321
30
0.0
11
342.3914
21
1.6258
31
0.0
0
LINE
8
INTERNAL
10
342.3914
20
1.6258
30
0.0
11
342.3986
21
1.2194
31
0.0
0
LINE
8
INTERNAL
10
342.3986
20
1.2194
30
0.0
11
342.4038
21
0.8129
31
0.0
0
LINE
8
INTERNAL
10
342.4038
20
0.8129
30
0.0
11
342.4069
21
0.4065
31
0.0
0
LINE
8
INTERNAL
10
342.4069
20
0.4065
30
0.0
11
342.4079
21
0.0000
31
0.0
0
LINE
8
INTERNAL
10
342.4079
20
0.0000
30
0.0
11
342.4079
21
-0.0000
31
0.0
0
LINE
8
INTERNAL
10
342.4079
20
-0.0000
30
0.0
11
342.4069
21
-0.4065
31
0.0
0
LINE
8
INTERNAL
10
342.4069
20
-0.4065
30
0.0
11
342.4038
21
-0.8129
31
0.0
0
LINE
8
INTERNAL
10
342.4038
20
-0.8129
30
0.0
11
342.3986
21
-1.2194
31
0.0
0
LINE
8
INTERNAL
10
342.3986
20
-1.2194
30
0.0
11
342.3914
21
-1.6258
31
0.0
0
LINE
8
INTERNAL
10
342.3914
20
-1.6258
30
0.0
11
342.3821
21
-2.0321
31
0.0
0
LINE
8
INTERNAL
10
342.3821
20
-2.0321
30
0.0
11
342.3707
21
-2.4384
31
0.0
0
LINE
8
INTERNAL
10
342.3707
20
-2.4384
30
0.0
11
342.3573
21
-2.8447
31
0.0
0
LINE
8
INTERNAL
10
342.3573
20
-2.8447
30
0.0
11
342.3418
21
-3.2509
31
0.0
0
LINE
8
INTERNAL
10
342.3418
20
-3.2509
30
0.0
11
342.3243
21
-3.6570
31
0.0
0
LINE
8
INTERNAL
10
342.3243
20
-3.6570
30
0.0
11
342.3047
21
-4.0630
31
0.0
0
LINE
8
INTERNAL
10
342.3047
20
-4.0630
30
0.0
11
342.2830
21
-4.4688
31
0.0
0
LINE
8
INTERNAL
10
342.2830
20
-4.4688
30
0.0
11
342.2593
21
-4.8746
31
0.0
0
LINE
8
INTERNAL
10
342.2593
20
-4.8746
30
0.0
11
342.2335
21
-5.2803
31
0.0
0
LINE
8
INTERNAL
10
342.2335
20
-5.2803
30
0.0
11
342.2056
21
-5.6858
31
0.0
0
LINE
8
INTERNAL
10
342.2056
20
-5.6858
30
0.0
11
342.1757
21
-6.0911
31
0.0
0
LINE
8
INTERNAL
10
342.1757
20
-6.0911
30
0.0
11
342.1437
21
-6.4964
31
0.0
0
LINE
8
INTERNAL
10
342.1437
20
-6.4964
30
0.0
11
342.1097
21
-6.9014
31
0.0
0
LINE
8
INTERNAL
10
342.1097
20
-6.9014
30
0.0
11
342.0736
21
-7.3063
31
0.0
0
LINE
8
INTERNAL
10
342.0736
20
-7.3063
30
0.0
11
342.0354
21
-7.7109
31
0.0
0
LINE
8
INTERNAL
10
342.0354
20
-7.7109
30
0.0
11
341.9952
21
-8.1154
31
0.0
0
LINE
8
INTERNAL
10
341.9952
20
-8.1154
30
0.0
11
341.9530
21
-8.5197
31
0.0
0
LINE
8
INTERNAL
10
341.9530
20
-8.5197
30
0.0
11
341.9086
21
-8.9237
31
0.0
0
LINE
8
INTERNAL
10
341.9086
20
-8.9237
30
0.0
11
341.8623
21
-9.3275
31
0.0
0
LINE
8
INTERNAL
10
341.8623
20
-9.3275
30
0.0
11
341.8139
21
-9.7311
31
0.0
0
LINE
8
INTERNAL
10
341.8139
20
-9.7311
30
0.0
11
341.7634
21
-10.1344
31
0.0
0
LINE
8
INTERNAL
10
341.7634
20
-10.1344
30
0.0
11
341.7109
21
-10.5375
31
0.0
0
LINE
8
INTERNAL
10
341.7109
20
-10.5375
30
0.0
11
341.6563
21
-10.9403
31
0.0
0
LINE
8
INTERNAL
10
341.6563
20
-10.9403
30
0.0
11
341.5997
21
-11.3428
31
0.0
0
LINE
8
INTERNAL
10
341.5997
20
-11.3428
30
0.0
11
341.5411
21
-11.7450
31
0.0
0
LINE
8
INTERNAL
10
341.5411
20
-11.7450
30
0.0
11
341.4804
21
-12.1469
31
0.0
0
LINE
8
INTERNAL
10
341.4804
20
-12.1469
30
0.0
11
341.4176
21
-12.5485
31
0.0
0
LINE
8
INTERNAL
10
341.4176
20
-12.5485
30
0.0
11
341.3528
21
-12.9498
31
0.0
0
LINE
8
INTERNAL
10
341.3528
20
-12.9498
30
0.0
11
341.2860
21
-13.3507
31
0.0
0
LINE
8
INTERNAL
10
341.2860
20
-13.3507
30
0.0
11
341.2172
21
-13.7513
31
0.0
0
LINE
8
INTERNAL
10
341.2172
20
-13.7513
30
0.0
11
341.1463
21
-14.1516
31
0.0
0
LINE
8
INTERNAL
10
341.1463
20
-14.1516
30
0.0
11
341.0734
21
-14.5515
31
0.0
0
LINE
8
INTERNAL
10
341.0734
20
-14.5515
30
0.0
11
340.9984
21
-14.9510
31
0.0
0
LINE
8
INTERNAL
10
340.9984
20
-14.9510
30
0.0
11
340.9214
21
-15.3501
31
0.0
0
LINE
8
INTERNAL
10
340.9214
20
-15.3501
30
0.0
11
340.8424
21
-15.7488
31
0.0
0
LINE
8
INTERNAL
10
340.8424
20
-15.7488
30
0.0
11
340.7614
21
-16.1471
31
0.0
0
LINE
8
INTERNAL
10
340.7614
20
-16.1471
30
0.0
11
340.6784
21
-16.5450
31
0.0
0
LINE
8
INTERNAL
10
340.6784
20
-16.5450
30
0.0
11
340.5933
21
-16.9425
31
0.0
0
LINE
8
INTERNAL
10
340.5933
20
-16.9425
30
0.0
11
340.5062
21
-17.3395
31
0.0
0
LINE
8
INTERNAL
10
340.5062
20
-17.3395
30
0.0
11
340.4171
21
-17.7361
31
0.0
0
LINE
8
INTERNAL
10
340.4171
20
-17.7361
30
0.0
11
340.3260
21
-18.1322
31
0.0
0
LINE
8
INTERNAL
10
340.3260
20
-18.1322
30
0.0
11
340.2328
21
-18.5279
31
0.0
0
LINE
8
INTERNAL
10
340.2328
20
-18.5279
30
0.0
11
340.1377
21
-18.9230
31
0.0
0
LINE
8
INTERNAL
10
340.1377
20
-18.9230
30
0.0
11
340.0405
21
-19.3177
31
0.0
0
LINE
8
INTERNAL
10
340.0405
20
-19.3177
30
0.0
11
339.9414
21
-19.7119
31
0.0
0
LINE
8
INTERNAL
10
339.9414
20
-19.7119
30
0.0
11
339.8402
21
-20.1056
31
0.0
0
LINE
8
INTERNAL
10
339.8402
20
-20.1056
30
0.0
11
339.7371
21
-20.4988
31
0.0
0
LINE
8
INTERNAL
10
339.7371
20
-20.4988
30
0.0
11
339.6319
21
-20.8914
31
0.0
0
LINE
8
INTERNAL
10
339.6319
20
-20.8914
30
0.0
11
339.5248
21
-21.2835
31
0.0
0
LINE
8
INTERNAL
10
339.5248
20
-21.2835
30
0.0
11
339.4157
21
-21.6750
31
0.0
0
LINE
8
INTERNAL
10
339.4157
20
-21.6750
30
0.0
11
339.3045
21
-22.0660
31
0.0
0
LINE
8
INTERNAL
10
339.3045
20
-22.0660
30
0.0
11
339.1914
21
-22.4564
31
0.0
0
LINE
8
INTERNAL
10
339.1914
20
-22.4564
30
0.0
11
339.0763
21
-22.8463
31
0.0
0
LINE
8
INTERNAL
10
339.0763
20
-22.8463
30
0.0
11
338.9593
21
-23.2355
31
0.0
0
LINE
8
INTERNAL
10
338.9593
20
-23.2355
30
0.0
11
338.8402
21
-23.6242
31
0.0
0
LINE
8
INTERNAL
10
338.8402
20
-23.6242
30
0.0
11
338.7192
21
-24.0122
31
0.0
0
LINE
8
INTERNAL
10
338.7192
20
-24.0122
30
0.0
11
338.5962
21
-24.3996
31
0.0
0
LINE
8
INTERNAL
10
338.5962
20
-24.3996
30
0.0
11
338.4713
21
-24.7864
31
0.0
0
LINE
8
INTERNAL
10
338.4713
20
-24.7864
30
0.0
11
338.3443
21
-25.1725
31
0.0
0
LINE
8
INTERNAL
10
338.3443
20
-25.1725
30
0.0
11
338.2155
21
-25.5580
31
0.0
0
LINE
8
INTERNAL
10
338.2155
20
-25.5580
30
0.0
11
338.0846
21
-25.9429
31
0.0
0
LINE
8
INTERNAL
10
338.0846
20
-25.9429
30
0.0
11
337.9518
21
-26.3271
31
0.0
0
LINE
8
INTERNAL
10
337.9518
20
-26.3271
30
0.0
11
337.8171
21
-26.7105
31
0.0
0
LINE
8
INTERNAL
10
337.8171
20
-26.7105
30
0.0
11
337.6804
21
-27.0933
31
0.0
0
LINE
8
INTERNAL
10
337.6804
20
-27.0933
30
0.0
11
337.5418
21
-27.4754
31
0.0
0
LINE
8
INTERNAL
10
337.5418
20
-27.4754
30
0.0
11
337.4012
21
-27.8568
31
0.0
0
LINE
8
INTERNAL
10
337.4012
20
-27.8568
30
0.0
11
337.2587
21
-28.2375
31
0.0
0
LINE
8
INTERNAL
10
337.2587
20
-28.2375
30
0.0
11
337.1143
21
-28.6174
31
0.0
0
LINE
8
INTERNAL
10
337.1143
20
-28.6174
30
0.0
11
336.9679
21
-28.9966
31
0.0
0
LINE
8
INTERNAL
10
336.9679
20
-28.9966
30
0.0
11
336.8196
21
-29.3751
31
0.0
0
LINE
8
INTERNAL
10
336.8196
20
-29.3751
30
0.0
11
336.6694
21
-29.7528
31
0.0
0
LINE
8
INTERNAL
10
336.6694
20
-29.7528
30
0.0
11
336.5173
21
-30.1297
31
0.0
0
LINE
8
INTERNAL
10
336.5173
20
-30.1297
30
0.0
11
336.3632
21
-30.5059
31
0.0
0
LINE
8
INTERNAL
10
336.3632
20
-30.5059
30
0.0
11
336.2073
21
-30.8812
31
0.0
0
LINE
8
INTERNAL
10
336.2073
20
-30.8812
30
0.0
11
336.0494
21
-31.2558
31
0.0
0
LINE
8
INTERNAL
10
336.0494
20
-31.2558
30
0.0
11
335.8897
21
-31.6296
31
0.0
0
LINE
8
INTERNAL
10
335.8897
20
-31.6296
30
0.0
11
335.7280
21
-32.0025
31
0.0
0
LINE
8
INTERNAL
10
335.7280
20
-32.0025
30
0.0
11
335.5645
21
-32.3746
31
0.0
0
LINE
8
INTERNAL
10
335.5645
20
-32.3746
30
0.0
11
335.3991
21
-32.7459
31
0.0
0
LINE
8
INTERNAL
10
335.3991
20
-32.7459
30
0.0
11
335.2317
21
-33.1163
31
0.0
0
LINE
8
INTERNAL
10
335.2317
20
-33.1163
30
0.0
11
335.0625
21
-33.4859
31
0.0
0
LINE
8
INTERNAL
10
335.0625
20
-33.4859
30
0.0
11
334.8915
21
-33.8546
31
0.0
0
LINE
8
INTERNAL
10
334.8915
20
-33.8546
30
0.0
11
334.7185
21
-34.2225
31
0.0
0
LINE
8
INTERNAL
10
334.7185
20
-34.2225
30
0.0
11
334.5437
21
-34.5894
31
0.0
0
LINE
8
INTERNAL
10
334.5437
20
-34.5894
30
0.0
11
334.3670
21
-34.9555
31
0.0
0
LINE
8
INTERNAL
10
334.3670
20
-34.9555
30
0.0
11
334.1885
21
-35.3206
31
0.0
0
LINE
8
INTERNAL
10
334.1885
20
-35.3206
30
0.0
11
334.0081
21
-35.6849
31
0.0
0
LINE
8
INTERNAL
10
334.0081
20
-35.6849
30
0.0
11
333.8259
21
-36.0482
31
0.0
0
LINE
8
INTERNAL
10
333.8259
20
-36.0482
30
0.0
11
333.6418
21
-36.4106
31
0.0
0
LINE
8
INTERNAL
10
333.6418
20
-36.4106
30
0.0
11
333.4559
21
-36.7721
31
0.0
0
LINE
8
INTERNAL
10
333.4559
20
-36.7721
30
0.0
11
333.2681
21
-37.1326
31
0.0
0
LINE
8
INTERNAL
10
333.2681
20
-37.1326
30
0.0
11
333.0785
21
-37.4921
31
0.0
0
LINE
8
INTERNAL
10
333.0785
20
-37.4921
30
0.0
11
332.8871
21
-37.8507
31
0.0
0
LINE
8
INTERNAL
10
332.8871
20
-37.8507
30
0.0
11
332.6939
21
-38.2083
31
0.0
0
LINE
8
INTERNAL
10
332.6939
20
-38.2083
30
0.0
11
332.4989
21
-38.5650
31
0.0
0
LINE
8
INTERNAL
10
332.4989
20
-38.5650
30
0.0
11
332.3020
21
-38.9206
31
0.0
0
LINE
8
INTERNAL
10
332.3020
20
-38.9206
30
0.0
11
332.1034
21
-39.2752
31
0.0
0
LINE
8
INTERNAL
10
332.1034
20
-39.2752
30
0.0
11
331.9029
21
-39.6288
31
0.0
0
LINE
8
INTERNAL
10
331.9029
20
-39.6288
30
0.0
11
331.7007
21
-39.9814
31
0.0
0
LINE
8
INTERNAL
10
331.7007
20
-39.9814
30
0.0
11
331.4967
21
-40.3329
31
0.0
0
LINE
8
INTERNAL
10
331.4967
20
-40.3329
30
0.0
11
331.2908
21
-40.6834
31
0.0
0
LINE
8
INTERNAL
10
331.2908
20
-40.6834
30
0.0
11
331.0832
21
-41.0329
31
0.0
0
LINE
8
INTERNAL
10
331.0832
20
-41.0329
30
0.0
11
330.8739
21
-41.3813
31
0.0
0
LINE
8
INTERNAL
10
330.8739
20
-41.3813
30
0.0
11
330.6627
21
-41.7286
31
0.0
0
LINE
8
INTERNAL
10
330.6627
20
-41.7286
30
0.0
11
330.4498
21
-42.0749
31
0.0
0
LINE
8
INTERNAL
10
330.4498
20
-42.0749
30
0.0
11
330.2352
21
-42.4201
31
0.0
0
LINE
8
INTERNAL
10
330.2352
20
-42.4201
30
0.0
11
330.0188
21
-42.7641
31
0.0
0
LINE
8
INTERNAL
10
330.0188
20
-42.7641
30
0.0
11
329.8006
21
-43.1071
31
0.0
0
LINE
8
INTERNAL
10
329.8006
20
-43.1071
30
0.0
11
329.5807
21
-43.4490
31
0.0
0
LINE
8
INTERNAL
10
329.5807
20
-43.4490
30
0.0
11
329.3591
21
-43.7897
31
0.0
0
LINE
8
INTERNAL
10
329.3591
20
-43.7897
30
0.0
11
329.1358
21
-44.1293
31
0.0
0
LINE
8
INTERNAL
10
329.1358
20
-44.1293
30
0.0
11
328.9107
21
-44.4678
31
0.0
0
LINE
8
INTERNAL
10
328.9107
20
-44.4678
30
0.0
11
328.6839
21
-44.8051
31
0.0
0
LINE
8
INTERNAL
10
328.6839
20
-44.8051
30
0.0
11
328.4554
21
-45.1412
31
0.0
0
LINE
8
INTERNAL
10
328.4554
20
-45.1412
30
0.0
11
328.2252
21
-45.4762
31
0.0
0
LINE
8
INTERNAL
10
328.2252
20
-45.4762
30
0.0
11
327.9933
21
-45.8101
31
0.0
0
LINE
8
INTERNAL
10
327.9933
20
-45.8101
30
0.0
11
327.7597
21
-46.1427
31
0.0
0
LINE
8
INTERNAL
10
327.7597
20
-46.1427
30
0.0
11
327.5244
21
-46.4741
31
0.0
0
LINE
8
INTERNAL
10
327.5244
20
-46.4741
30
0.0
11
327.2874
21
-46.8044
31
0.0
0
LINE
8
INTERNAL
10
327.2874
20
-46.8044
30
0.0
11
327.0488
21
-47.1334
31
0.0
0
LINE
8
INTERNAL
10
327.0488
20
-47.1334
30
0.0
11
326.8085
21
-47.4612
31
0.0
0
LINE
8
INTERNAL
10
326.8085
20
-47.4612
30
0.0
11
326.5665
21
-47.7878
31
0.0
0
LINE
8
INTERNAL
10
326.5665
20
-47.7878
30
0.0
11
326.3228
21
-48.1132
31
0.0
0
LINE
8
INTERNAL
10
326.3228
20
-48.1132
30
0.0
11
326.0776
21
-48.4373
31
0.0
0
LINE
8
INTERNAL
10
326.0776
20
-48.4373
30
0.0
11
325.8306
21
-48.7602
31
0.0
0
LINE
8
INTERNAL
10
325.8306
20
-48.7602
30
0.0
11
325.5821
21
-49.0818
31
0.0
0
LINE
8
INTERNAL
10
325.5821
20
-49.0818
30
0.0
11
325.3319
21
-49.4022
31
0.0
0
LINE
8
INTERNAL
10
325.3319
20
-49.4022
30
0.0
11
325.0801
21
-49.7212
31
0.0
0
LINE
8
INTERNAL
10
325.0801
20
-49.7212
30
0.0
11
324.8266
21
-50.0390
31
0.0
0
LINE
8
INTERNAL
10
324.8266
20
-50.0390
30
0.0
11
324.5716
21
-50.3555
31
0.0
0
LINE
8
INTERNAL
10
324.5716
20
-50.3555
30
0.0
11
324.3149
21
-50.6707
31
0.0
0
LINE
8
INTERNAL
10
324.3149
20
-50.6707
30
0.0
11
324.0567
21
-50.9846
31
0.0
0
LINE
8
INTERNAL
10
324.0567
20
-50.9846
30
0.0
11
323.7968
21
-51.2972
31
0.0
0
LINE
8
INTERNAL
10
323.7968
20
-51.2972
30
0.0
11
323.5354
21
-51.6084
31
0.0
0
LINE
8
INTERNAL
10
323.5354
20
-51.6084
30
0.0
11
323.2724
21
-51.9183
31
0.0
0
LINE
8
INTERNAL
10
323.2724
20
-51.9183
30
0.0
11
323.0078
21
-52.2269
31
0.0
0
LINE
8
INTERNAL
10
323.0078
20
-52.2269
30
0.0
11
322.7417
21
-52.5341
31
0.0
0
LINE
8
INTERNAL
10
322.7417
20
-52.5341
30
0.0
11
322.4740
21
-52.8400
31
0.0
0
LINE
8
INTERNAL
10
322.4740
20
-52.8400
30
0.0
11
322.2048
21
-53.1445
31
0.0
0
LINE
8
INTERNAL
10
322.2048
20
-53.1445
30
0.0
11
321.9340
21
-53.4476
31
0.0
0
LINE
8
INTERNAL
10
321.9340
20
-53.4476
30
0.0
11
321.6616
21
-53.7494
31
0.0
0
LINE
8
INTERNAL
10
321.6616
20
-53.7494
30
0.0
11
321.3878
21
-54.0497
31
0.0
0
LINE
8
INTERNAL
10
321.3878
20
-54.0497
30
0.0
11
321.1124
21
-54.3487
31
0.0
0
LINE
8
INTERNAL
10
321.1124
20
-54.3487
30
0.0
11
320.8355
21
-54.6463
31
0.0
0
LINE
8
INTERNAL
10
320.8355
20
-54.6463
30
0.0
11
320.5571
21
-54.9424
31
0.0
0
LINE
8
INTERNAL
10
320.5571
20
-54.9424
30
0.0
11
320.2772
21
-55.2372
31
0.0
0
LINE
8
INTERNAL
10
320.2772
20
-55.2372
30
0.0
11
319.9958
21
-55.5305
31
0.0
0
LINE
8
INTERNAL
10
319.9958
20
-55.5305
30
0.0
11
319.7129
21
-55.8224
31
0.0
0
LINE
8
INTERNAL
10
319.7129
20
-55.8224
30
0.0
11
319.4285
21
-56.1128
31
0.0
0
LINE
8
INTERNAL
10
319.4285
20
-56.1128
30
0.0
11
319.1427
21
-56.4018
31
0.0
0
LINE
8
INTERNAL
10
319.1427
20
-56.4018
30
0.0
11
318.8554
21
-56.6893
31
0.0
0
LINE
8
INTERNAL
10
318.8554
20
-56.6893
30
0.0
11
318.5667
21
-56.9754
31
0.0
0
LINE
8
INTERNAL
10
318.5667
20
-56.9754
30
0.0
11
318.2764
21
-57.2600
31
0.0
0
LINE
8
INTERNAL
10
318.2764
20
-57.2600
30
0.0
11
317.9848
21
-57.5431
31
0.0
0
LINE
8
INTERNAL
10
317.9848
20
-57.5431
30
0.0
11
317.6917
21
-57.8248
31
0.0
0
LINE
8
INTERNAL
10
317.6917
20
-57.8248
30
0.0
11
317.3972
21
-58.1049
31
0.0
0
LINE
8
INTERNAL
10
317.3972
20
-58.1049
30
0.0
11
317.1013
21
-58.3835
31
0.0
0
LINE
8
INTERNAL
10
317.1013
20
-58.3835
30
0.0
11
316.8039
21
-58.6607
31
0.0
0
LINE
8
INTERNAL
10
316.8039
20
-58.6607
30
0.0
11
316.5052
21
-58.9363
31
0.0
0
LINE
8
INTERNAL
10
316.5052
20
-58.9363
30
0.0
11
316.2050
21
-59.2104
31
0.0
0
LINE
8
INTERNAL
10
316.2050
20
-59.2104
30
0.0
11
315.9035
21
-59.4830
31
0.0
0
LINE
8
INTERNAL
10
315.9035
20
-59.4830
30
0.0
11
315.6006
21
-59.7540
31
0.0
0
LINE
8
INTERNAL
10
315.6006
20
-59.7540
30
0.0
11
315.2963
21
-60.0235
31
0.0
0
LINE
8
INTERNAL
10
315.2963
20
-60.0235
30
0.0
11
314.9906
21
-60.2914
31
0.0
0
LINE
8
INTERNAL
10
314.9906
20
-60.2914
30
0.0
11
314.6836
21
-60.5578
31
0.0
0
LINE
8
INTERNAL
10
314.6836
20
-60.5578
30
0.0
11
314.3753
21
-60.8226
31
0.0
0
LINE
8
INTERNAL
10
314.3753
20
-60.8226
30
0.0
11
314.0656
21
-61.0859
31
0.0
0
LINE
8
INTERNAL
10
314.0656
20
-61.0859
30
0.0
11
313.7545
21
-61.3476
31
0.0
0
LINE
8
INTERNAL
10
313.7545
20
-61.3476
30
0.0
11
313.4422
21
-61.6077
31
0.0
0
LINE
8
INTERNAL
10
313.4422
20
-61.6077
30
0.0
11
313.1285
21
-61.8662
31
0.0
0
LINE
8
INTERNAL
10
313.1285
20
-61.8662
30
0.0
11
312.8135
21
-62.1231
31
0.0
0
LINE
8
INTERNAL
10
312.8135
20
-62.1231
30
0.0
11
312.4972
21
-62.3784
31
0.0
0
LINE
8
INTERNAL
10
312.4972
20
-62.3784
30
0.0
11
312.1796
21
-62.6321
31
0.0
0
LINE
8
INTERNAL
10
312.1796
20
-62.6321
30
0.0
11
311.8608
21
-62.8841
31
0.0
0
LINE
8
INTERNAL
10
311.8608
20
-62.8841
30
0.0
11
311.5406
21
-63.1346
31
0.0
0
LINE
8
INTERNAL
10
311.5406
20
-63.1346
30
0.0
11
311.2192
21
-63.3834
31
0.0
0
LINE
8
INTERNAL
10
311.2192
20
-63.3834
30
0.0
11
310.8965
21
-63.6306
31
0.0
0
LINE
8
INTERNAL
10
310.8965
20
-63.6306
30
0.0
11
310.5726
21
-63.8761
31
0.0
0
LINE
8
INTERNAL
10
310.5726
20
-63.8761
30
0.0
11
310.2474
21
-64.1200
31
0.0
0
LINE
8
INTERNAL
10
310.2474
20
-64.1200
30
0.0
11
309.9210
21
-64.3623
31
0.0
0
LINE
8
INTERNAL
10
309.9210
20
-64.3623
30
0.0
11
309.5934
21
-64.6028
31
0.0
0
LINE
8
INTERNAL
10
309.5934
20
-64.6028
30
0.0
11
309.2646
21
-64.8418
31
0.0
0
LINE
8
INTERNAL
10
309.2646
20
-64.8418
30
0.0
11
308.9345
21
-65.0790
31
0.0
0
LINE
8
INTERNAL
10
308.9345
20
-65.0790
30
0.0
11
308.6033
21
-65.3145
31
0.0
0
LINE
8
INTERNAL
10
308.6033
20
-65.3145
30
0.0
11
308.2708
21
-65.5484
31
0.0
0
LINE
8
INTERNAL
10
308.2708
20
-65.5484
30
0.0
11
307.9372
21
-65.7806
31
0.0
0
LINE
8
INTERNAL
10
307.9372
20
-65.7806
30
0.0
11
307.6024
21
-66.0111
31
0.0
0
LINE
8
INTERNAL
10
307.6024
20
-66.0111
30
0.0
11
307.2664
21
-66.2398
31
0.0
0
LINE
8
INTERNAL
10
307.2664
20
-66.2398
30
0.0
11
306.9293
21
-66.4669
31
0.0
0
LINE
8
INTERNAL
10
306.9293
20
-66.4669
30
0.0
11
306.5910
21
-66.6923
31
0.0
0
LINE
8
INTERNAL
10
306.5910
20
-66.6923
30
0.0
11
306.2515
21
-66.9159
31
0.0
0
LINE
8
INTERNAL
10
306.2515
20
-66.9159
30
0.0
11
305.9110
21
-67.1378
31
0.0
0
LINE
8
INTERNAL
10
305.9110
20
-67.1378
30
0.0
11
305.5693
21
-67.3580
31
0.0
0
LINE
8
INTERNAL
10
305.5693
20
-67.3580
30
0.0
11
305.2265
21
-67.5764
31
0.0
0
LINE
8
INTERNAL
10
305.2265
20
-67.5764
30
0.0
11
304.8826
21
-67.7931
31
0.0
0
LINE
8
INTERNAL
10
304.8826
20
-67.7931
30
0.0
11
304.5376
21
-68.0080
31
0.0
0
LINE
8
INTERNAL
10
304.5376
20
-68.0080
30
0.0
11
304.5376
21
-68.0080
31
0.0
0
LINE
8
INTERNAL
10
304.5376
20
-68.0080
30
0.0
11
303.5734
21
-68.6548
31
0.0
0
LINE
8
INTERNAL
10
303.5734
20
-68.6548
30
0.0
11
302.5983
21
-69.2995
31
0.0
0
LINE
8
INTERNAL
10
302.5983
20
-69.2995
30
0.0
11
301.6123
21
-69.9419
31
0.0
0
LINE
8
INTERNAL
10
301.6123
20
-69.9419
30
0.0
11
300.6157
21
-70.5821
31
0.0
0
LINE
8
INTERNAL
10
300.6157
20
-70.5821
30
0.0
11
299.6084
21
-71.2200
31
0.0
0
LINE
8
INTERNAL
10
299.6084
20
-71.2200
30
0.0
11
298.5905
21
-71.8556
31
0.0
0
LINE
8
INTERNAL
10
298.5905
20
-71.8556
30
0.0
11
297.5621
21
-72.4889
31
0.0
0
LINE
8
INTERNAL
10
297.5621
20
-72.4889
30
0.0
11
296.5234
21
-73.1197
31
0.0
0
LINE
8
INTERNAL
10
296.5234
20
-73.1197
30
0.0
11
295.4743
21
-73.7482
31
0.0
0
LINE
8
INTERNAL
10
295.4743
20
-73.7482
30
0.0
11
294.4149
21
-74.3743
31
0.0
0
LINE
8
INTERNAL
10
294.4149
20
-74.3743
30
0.0
11
293.3454
21
-74.9979
31
0.0
0
LINE
8
INTERNAL
10
293.3454
20
-74.9979
30
0.0
11
292.2658
21
-75.6190
31
0.0
0
LINE
8
INTERNAL
10
292.2658
20
-75.6190
30
0.0
11
291.1762
21
-76.2375
31
0.0
0
LINE
8
INTERNAL
10
291.1762
20
-76.2375
30
0.0
11
290.0766
21
-76.8536
31
0.0
0
LINE
8
INTERNAL
10
290.0766
20
-76.8536
30
0.0
11
288.9672
21
-77.4670
31
0.0
0
LINE
8
INTERNAL
10
288.9672
20
-77.4670
30
0.0
11
287.8481
21
-78.0779
31
0.0
0
LINE
8
INTERNAL
10
287.8481
20
-78.0779
30
0.0
11
286.7192
21
-78.6861
31
0.0
0
LINE
8
INTERNAL
10
286.7192
20
-78.6861
30
0.0
11
285.5807
21
-79.2916
31
0.0
0
LINE
8
INTERNAL
10
285.5807
20
-79.2916
30
0.0
11
284.4327
21
-79.8944
31
0.0
0
LINE
8
INTERNAL
10
284.4327
20
-79.8944
30
0.0
11
283.2753
21
-80.4945
31
0.0
0
LINE
8
INTERNAL
10
283.2753
20
-80.4945
30
0.0
11
282.1085
21
-81.0918
31
0.0
0
LINE
8
INTERNAL
10
282.1085
20
-81.0918
30
0.0
11
280.9324
21
-81.6864
31
0.0
0
LINE
8
INTERNAL
10
280.9324
20
-81.6864
30
0.0
11
279.7470
21
-82.2781
31
0.0
0
LINE
8
INTERNAL
10
279.7470
20
-82.2781
30
0.0
11
278.5526
21
-82.8670
31
0.0
0
LINE
8
INTERNAL
10
278.5526
20
-82.8670
30
0.0
11
277.3491
21
-83.4530
31
0.0
0
LINE
8
INTERNAL
10
277.3491
20
-83.4530
30
0.0
11
276.1366
21
-84.0360
31
0.0
0
LINE
8
INTERNAL
10
276.1366
20
-84.0360
30
0.0
11
274.9153
21
-84.6162
31
0.0
0
LINE
8
INTERNAL
10
274.9153
20
-84.6162
30
0.0
11
273.6851
21
-85.1933
31
0.0
0
LINE
8
INTERNAL
10
273.6851
20
-85.1933
30
0.0
11
272.4462
21
-85.7675
31
0.0
0
LINE
8
INTERNAL
10
272.4462
20
-85.7675
30
0.0
11
271.1987
21
-86.3386
31
0.0
0
LINE
8
INTERNAL
10
271.1987
20
-86.3386
30
0.0
11
269.9425
21
-86.9067
31
0.0
0
LINE
8
INTERNAL
10
269.9425
20
-86.9067
30
0.0
11
268.6779
21
-87.4717
31
0.0
0
LINE
8
INTERNAL
10
268.6779
20
-87.4717
30
0.0
11
267.4049
21
-88.0335
31
0.0
0
LINE
8
INTERNAL
10
267.4049
20
-88.0335
30
0.0
11
266.1236
21
-88.5922
31
0.0
0
LINE
8
INTERNAL
10
266.1236
20
-88.5922
30
0.0
11
264.8340
21
-89.1477
31
0.0
0
LINE
8
INTERNAL
10
264.8340
20
-89.1477
30
0.0
11
263.5362
21
-89.7000
31
0.0
0
LINE
8
INTERNAL
10
263.5362
20
-89.7000
30
0.0
11
262.2303
21
-90.2491
31
0.0
0
LINE
8
INTERNAL
10
262.2303
20
-90.2491
30
0.0
11
260.9165
21
-90.7949
31
0.0
0
LINE
8
INTERNAL
10
260.9165
20
-90.7949
30
0.0
11
259.5946
21
-91.3374
31
0.0
0
LINE
8
INTERNAL
10
259.5946
20
-91.3374
30
0.0
11
258.2650
21
-91.8765
31
0.0
0
LINE
8
INTERNAL
10
258.2650
20
-91.8765
30
0.0
11
256.9276
21
-92.4123
31
0.0
0
LINE
8
INTERNAL
10
256.9276
20
-92.4123
30
0.0
11
255.5824
21
-92.9447
31
0.0
0
LINE
8
INTERNAL
10
255.5824
20
-92.9447
30
0.0
11
254.2297
21
-93.4737
31
0.0
0
LINE
8
INTERNAL
10
254.2297
20
-93.4737
30
0.0
11
252.8695
21
-93.9992
31
0.0
0
LINE
8
INTERNAL
10
252.8695
20
-93.9992
30
0.0
11
251.5017
21
-94.5213
31
0.0
0
LINE
8
INTERNAL
10
251.5017
20
-94.5213
30
0.0
11
250.1267
21
-95.0398
31
0.0
0
LINE
8
INTERNAL
10
250.1267
20
-95.0398
30
0.0
11
248.7443
21
-95.5548
31
0.0
0
LINE
8
INTERNAL
10
248.7443
20
-95.5548
30
0.0
11
247.3547
21
-96.0662
31
0.0
0
LINE
8
INTERNAL
10
247.3547
20
-96.0662
30
0.0
11
245.9580
21
-96.5740
31
0.0
0
LINE
8
INTERNAL
10
245.9580
20
-96.5740
30
0.0
11
244.5542
21
-97.0782
31
0.0
0
LINE
8
INTERNAL
10
244.5542
20
-97.0782
30
0.0
11
243.1435
21
-97.5787
31
0.0
0
LINE
8
INTERNAL
10
243.1435
20
-97.5787
30
0.0
11
241.7258
21
-98.0755
31
0.0
0
LINE
8
INTERNAL
10
241.7258
20
-98.0755
30
0.0
11
240.3014
21
-98.5686
31
0.0
0
LINE
8
INTERNAL
10
240.3014
20
-98.5686
30
0.0
11
238.8702
21
-99.0579
31
0.0
0
LINE
8
INTERNAL
10
238.8702
20
-99.0579
30
0.0
11
237.4324
21
-99.5435
31
0.0
0
LINE
8
INTERNAL
10
237.4324
20
-99.5435
30
0.0
11
235.9880
21
-100.0252
31
0.0
0
LINE
8
INTERNAL
10
235.9880
20
-100.0252
30
0.0
11
234.5371
21
-100.5031
31
0.0
0
LINE
8
INTERNAL
10
234.5371
20
-100.5031
30
0.0
11
233.0798
21
-100.9771
31
0.0
0
LINE
8
INTERNAL
10
233.0798
20
-100.9771
30
0.0
11
231.6162
21
-101.4473
31
0.0
0
LINE
8
INTERNAL
10
231.6162
20
-101.4473
30
0.0
11
230.1463
21
-101.9135
31
0.0
0
LINE
8
INTERNAL
10
230.1463
20
-101.9135
30
0.0
11
228.6702
21
-102.3757
31
0.0
0
LINE
8
INTERNAL
10
228.6702
20
-102.3757
30
0.0
11
227.1881
21
-102.8339
31
0.0
0
LINE
8
INTERNAL
10
227.1881
20
-102.8339
30
0.0
11
225.6999
21
-103.2881
31
0.0
0
LINE
8
INTERNAL
10
225.6999
20
-103.2881
30
0.0
11
224.2058
21
-103.7383
31
0.0
0
LINE
8
INTERNAL
10
224.2058
20
-103.7383
30
0.0
11
222.7059
21
-104.1843
31
0.0
0
LINE
8
INTERNAL
10
222.7059
20
-104.1843
30
0.0
11
221.2001
21
-104.6263
31
0.0
0
LINE
8
INTERNAL
10
221.2001
20
-104.6263
30
0.0
11
219.6887
21
-105.0641
31
0.0
0
LINE
8
INTERNAL
10
219.6887
20
-105.0641
30
0.0
11
218.1717
21
-105.4977
31
0.0
0
LINE
8
INTERNAL
10
218.1717
20
-105.4977
30
0.0
11
216.6491
21
-105.9271
31
0.0
0
LINE
8
INTERNAL
10
216.6491
20
-105.9271
30
0.0
11
215.1211
21
-106.3523
31
0.0
0
LINE
8
INTERNAL
10
215.1211
20
-106.3523
30
0.0
11
213.5877
21
-106.7733
31
0.0
0
LINE
8
INTERNAL
10
213.5877
20
-106.7733
30
0.0
11
212.0491
21
-107.1899
31
0.0
0
LINE
8
INTERNAL
10
212.0491
20
-107.1899
30
0.0
11
210.5052
21
-107.6022
31
0.0
0
LINE
8
INTERNAL
10
210.5052
20
-107.6022
30
0.0
11
208.9561
21
-108.0101
31
0.0
0
LINE
8
INTERNAL
10
208.9561
20
-108.0101
30
0.0
11
207.4021
21
-108.4137
31
0.0
0
LINE
8
INTERNAL
10
207.4021
20
-108.4137
30
0.0
11
205.8430
21
-108.8129
31
0.0
0
LINE
8
INTERNAL
10
205.8430
20
-108.8129
30
0.0
11
204.2791
21
-109.2076
31
0.0
0
LINE
8
INTERNAL
10
204.2791
20
-109.2076
30
0.0
11
202.7103
21
-109.5978
31
0.0
0
LINE
8
INTERNAL
10
202.7103
20
-109.5978
30
0.0
11
201.1368
21
-109.9835
31
0.0
0
LINE
8
INTERNAL
10
201.1368
20
-109.9835
30
0.0
11
199.5587
21
-110.3647
31
0.0
0
LINE
8
INTERNAL
10
199.5587
20
-110.3647
30
0.0
11
197.9760
21
-110.7413
31
0.0
0
LINE
8
INTERNAL
10
197.9760
20
-110.7413
30
0.0
11
196.3888
21
-111.1134
31
0.0
0
LINE
8
INTERNAL
10
196.3888
20
-111.1134
30
0.0
11
194.7971
21
-111.4808
31
0.0
0
LINE
8
INTERNAL
10
194.7971
20
-111.4808
30
0.0
11
193.2012
21
-111.8435
31
0.0
0
LINE
8
INTERNAL
10
193.2012
20
-111.8435
30
0.0
11
191.6010
21
-112.2016
31
0.0
0
LINE
8
INTERNAL
10
191.6010
20
-112.2016
30
0.0
11
189.9966
21
-112.5549
31
0.0
0
LINE
8
INTERNAL
10
189.9966
20
-112.5549
30
0.0
11
188.3881
21
-112.9035
31
0.0
0
LINE
8
INTERNAL
10
188.3881
20
-112.9035
30
0.0
11
186.7756
21
-113.2473
31
0.0
0
LINE
8
INTERNAL
10
186.7756
20
-113.2473
30
0.0
11
185.1592
21
-113.5863
31
0.0
0
LINE
8
INTERNAL
10
185.1592
20
-113.5863
30
0.0
11
183.5389
21
-113.9205
31
0.0
0
LINE
8
INTERNAL
10
183.5389
20
-113.9205
30
0.0
11
181.9148
21
-114.2498
31
0.0
0
LINE
8
INTERNAL
10
181.9148
20
-114.2498
30
0.0
11
180.2871
21
-114.5743
31
0.0
0
LINE
8
INTERNAL
10
180.2871
20
-114.5743
30
0.0
11
178.6557
21
-114.8937
31
0.0
0
LINE
8
INTERNAL
10
178.6557
20
-114.8937
30
0.0
11
177.0208
21
-115.2083
31
0.0
0
LINE
8
INTERNAL
10
177.0208
20
-115.2083
30
0.0
11
175.3825
21
-115.5178
31
0.0
0
LINE
8
INTERNAL
10
175.3825
20
-115.5178
30
0.0
11
173.7408
21
-115.8223
31
0.0
0
LINE
8
INTERNAL
10
173.7408
20
-115.8223
30
0.0
11
172.0957
21
-116.1218
31
0.0
0
LINE
8
INTERNAL
10
172.0957
20
-116.1218
30
0.0
11
170.4475
21
-116.4162
31
0.0
0
LINE
8
INTERNAL
10
170.4475
20
-116.4162
30
0.0
11
168.7961
21
-116.7055
31
0.0
0
LINE
8
INTERNAL
10
168.7961
20
-116.7055
30
0.0
11
167.1417
21
-116.9897
31
0.0
0
LINE
8
INTERNAL
10
167.1417
20
-116.9897
30
0.0
11
165.4843
21
-117.2687
31
0.0
0
LINE
8
INTERNAL
10
165.4843
20
-117.2687
30
0.0
11
163.8240
21
-117.5425
31
0.0
0
LINE
8
INTERNAL
10
163.8240
20
-117.5425
30
0.0
11
162.1609
21
-117.8111
31
0.0
0
LINE
8
INTERNAL
10
162.1609
20
-117.8111
30
0.0
11
160.4951
21
-118.0744
31
0.0
0
LINE
8
INTERNAL
10
160.4951
20
-118.0744
30
0.0
11
158.8266
21
-118.3324
31
0.0
0
LINE
8
INTERNAL
10
158.8266
20
-118.3324
30
0.0
11
157.1555
21
-118.5851
31
0.0
0
LINE
8
INTERNAL
10
157.1555
20
-118.5851
30
0.0
11
155.4820
21
-118.8325
31
0.0
0
LINE
8
INTERNAL
10
155.4820
20
-118.8325
30
0.0
11
153.8060
21
-119.0744
31
0.0
0
LINE
8
INTERNAL
10
153.8060
20
-119.0744
30
0.0
11
152.1277
21
-119.3110
31
0.0
0
LINE
8
INTERNAL
10
152.1277
20
-119.3110
30
0.0
11
150.4471
21
-119.5422
31
0.0
0
LINE
8
INTERNAL
10
150.4471
20
-119.5422
30
0.0
11
148.7643
21
-119.7678
31
0.0
0
LINE
8
INTERNAL
10
148.7643
20
-119.7678
30
0.0
11
147.0795
21
-119.9880
31
0.0
0
LINE
8
INTERNAL
10
147.0795
20
-119.9880
30
0.0
11
145.3926
21
-120.2026
31
0.0
0
LINE
8
INTERNAL
10
145.3926
20
-120.2026
30
0.0
11
143.7038
21
-120.4117
31
0.0
0
LINE
8
INTERNAL
10
143.7038
20
-120.4117
30
0.0
11
142.0132
21
-120.6152
31
0.0
0
LINE
8
INTERNAL
10
142.0132
20
-120.6152
30
0.0
11
140.3208
21
-120.8131
31
0.0
0
LINE
8
INTERNAL
10
140.3208
20
-120.8131
30
0.0
11
138.6267
21
-121.0053
31
0.0
0
LINE
8
INTERNAL
10
138.6267
20
-121.0053
30
0.0
11
136.9309
21
-121.1919
31
0.0
0
LINE
8
INTERNAL
10
136.9309
20
-121.1919
30
0.0
11
135.2337
21
-121.3727
31
0.0
0
LINE
8
INTERNAL
10
135.2337
20
-121.3727
30
0.0
11
133.5349
21
-121.5478
31
0.0
0
LINE
8
INTERNAL
10
133.5349
20
-121.5478
30
0.0
11
131.8348
21
-121.7172
31
0.0
0
LINE
8
INTERNAL
10
131.8348
20
-121.7172
30
0.0
11
130.1334
21
-121.8807
31
0.0
0
LINE
8
INTERNAL
10
130.1334
20
-121.8807
30
0.0
11
128.4308
21
-122.0384
31
0.0
0
LINE
8
INTERNAL
10
128.4308
20
-122.0384
30
0.0
11
126.7271
21
-122.1903
31
0.0
0
LINE
8
INTERNAL
10
126.7271
20
-122.1903
30
0.0
11
125.0223
21
-122.3362
31
0.0
0
LINE
8
INTERNAL
10
125.0223
20
-122.3362
30
0.0
11
123.3165
21
-122.4763
31
0.0
0
LINE
8
INTERNAL
10
123.3165
20
-122.4763
30
0.0
11
121.6098
21
-122.6104
31
0.0
0
LINE
8
INTERNAL
10
121.6098
20
-122.6104
30
0.0
11
119.9023
21
-122.7385
31
0.0
0
LINE
8
INTERNAL
10
119.9023
20
-122.7385
30
0.0
11
118.1941
21
-122.8606
31
0.0
0
LINE
8
INTERNAL
10
118.1941
20
-122.8606
30
0.0
11
116.4852
21
-122.9766
31
0.0
0
LINE
8
INTERNAL
10
116.4852
20
-122.9766
30
0.0
11
114.7757
21
-123.0866
31
0.0
0
LINE
8
INTERNAL
10
114.7757
20
-123.0866
30
0.0
11
113.0658
21
-123.1905
31
0.0
0
LINE
8
INTERNAL
10
113.0658
20
-123.1905
30
0.0
11
111.3554
21
-123.2883
31
0.0
0
LINE
8
INTERNAL
10
111.3554
20
-123.2883
30
0.0
11
109.6447
21
-123.3799
31
0.0
0
LINE
8
INTERNAL
10
109.6447
20
-123.3799
30
0.0
11
107.9337
21
-123.4653
31
0.0
0
LINE
8
INTERNAL
10
107.9337
20
-123.4653
30
0.0
11
106.2226
21
-123.5445
31
0.0
0
LINE
8
INTERNAL
10
106.2226
20
-123.5445
30
0.0
11
104.5113
21
-123.6175
31
0.0
0
LINE
8
INTERNAL
10
104.5113
20
-123.6175
30
0.0
11
102.8001
21
-123.6841
31
0.0
0
LINE
8
INTERNAL
10
102.8001
20
-123.6841
30
0.0
11
101.0889
21
-123.7445
31
0.0
0
LINE
8
INTERNAL
10
101.0889
20
-123.7445
30
0.0
11
99.3778
21
-123.7985
31
0.0
0
LINE
8
INTERNAL
10
99.3778
20
-123.7985
30
0.0
11
97.6670
21
-123.8462
31
0.0
0
LINE
8
INTERNAL
10
97.6670
20
-123.8462
30
0.0
11
95.9565
21
-123.8874
31
0.0
0
LINE
8
INTERNAL
10
95.9565
20
-123.8874
30
0.0
11
94.2463
21
-123.9222
31
0.0
0
LINE
8
INTERNAL
10
94.2463
20
-123.9222
30
0.0
11
92.5367
21
-123.9506
31
0.0
0
LINE
8
INTERNAL
10
92.5367
20
-123.9506
30
0.0
11
90.8275
21
-123.9725
31
0.0
0
LINE
8
INTERNAL
10
90.8275
20
-123.9725
30
0.0
11
89.1190
21
-123.9878
31
0.0
0
LINE
8
INTERNAL
10
89.1190
20
-123.9878
30
0.0
11
87.4112
21
-123.9966
31
0.0
0
LINE
8
INTERNAL
10
87.4112
20
-123.9966
30
0.0
11
85.7042
21
-123.9988
31
0.0
0
LINE
8
INTERNAL
10
85.7042
20
-123.9988
30
0.0
11
83.9980
21
-123.9944
31
0.0
0
LINE
8
INTERNAL
10
83.9980
20
-123.9944
30
0.0
11
82.2928
21
-123.9834
31
0.0
0
LINE
8
INTERNAL
10
82.2928
20
-123.9834
30
0.0
11
80.5886
21
-123.9657
31
0.0
0
LINE
8
INTERNAL
10
80.5886
20
-123.9657
30
0.0
11
78.8855
21
-123.9413
31
0.0
0
LINE
8
INTERNAL
10
78.8855
20
-123.9413
30
0.0
11
77.1836
21
-123.9101
31
0.0
0
LINE
8
INTERNAL
10
77.1836
20
-123.9101
30
0.0
11
75.4829
21
-123.8722
31
0.0
0
LINE
8
INTERNAL
10
75.4829
20
-123.8722
30
0.0
11
73.7836
21
-123.8275
31
0.0
0
LINE
8
INTERNAL
10
73.7836
20
-123.8275
30
0.0
11
72.0857
21
-123.7760
31
0.0
0
LINE
8
INTERNAL
10
72.0857
20
-123.7760
30
0.0
11
70.3893
21
-123.7177
31
0.0
0
LINE
8
INTERNAL
10
70.3893
20
-123.7177
30
0.0
11
68.6945
21
-123.6524
31
0.0
0
LINE
8
INTERNAL
10
68.6945
20
-123.6524
30
0.0
11
67.0014
21
-123.5803
31
0.0
0
LINE
8
INTERNAL
10
67.0014
20
-123.5803
30
0.0
11
65.3100
21
-123.5012
31
0.0
0
LINE
8
INTERNAL
10
65.3100
20
-123.5012
30
0.0
11
63.6204
21
-123.4151
31
0.0
0
LINE
8
INTERNAL
10
63.6204
20
-123.4151
30
0.0
11
61.9327
21
-123.3220
31
0.0
0
LINE
8
INTERNAL
10
61.9327
20
-123.3220
30
0.0
11
60.2470
21
-123.2219
31
0.0
0
LINE
8
INTERNAL
10
60.2470
20
-123.2219
30
0.0
11
58.5634
21
-123.1148
31
0.0
0
LINE
8
INTERNAL
10
58.5634
20
-123.1148
30
0.0
11
56.8819
21
-123.0005
31
0.0
0
LINE
8
INTERNAL
10
56.8819
20
-123.0005
30
0.0
11
55.2026
21
-122.8791
31
0.0
0
LINE
8
INTERNAL
10
55.2026
20
-122.8791
30
0.0
11
53.5256
21
-122.7506
31
0.0
0
LINE
8
INTERNAL
10
53.5256
20
-122.7506
30
0.0
11
51.8510
21
-122.6149
31
0.0
0
LINE
8
INTERNAL
10
51.8510
20
-122.6149
30
0.0
11
50.1789
21
-122.4720
31
0.0
0
LINE
8
INTERNAL
10
50.1789
20
-122.4720
30
0.0
11
48.5093
21
-122.3218
31
0.0
0
LINE
8
INTERNAL
10
48.5093
20
-122.3218
30
0.0
11
46.8424
21
-122.1644
31
0.0
0
LINE
8
INTERNAL
10
46.8424
20
-122.1644
30
0.0
11
45.1781
21
-121.9996
31
0.0
0
LINE
8
INTERNAL
10
45.1781
20
-121.9996
30
0.0
11
43.5166
21
-121.8275
31
0.0
0
LINE
8
INTERNAL
10
43.5166
20
-121.8275
30
0.0
11
41.8580
21
-121.6481
31
0.0
0
LINE
8
INTERNAL
10
41.8580
20
-121.6481
30
0.0
11
40.2023
21
-121.4613
31
0.0
0
LINE
8
INTERNAL
10
40.2023
20
-121.4613
30
0.0
11
38.5497
21
-121.2670
31
0.0
0
LINE
8
INTERNAL
10
38.5497
20
-121.2670
30
0.0
11
36.9001
21
-121.0653
31
0.0
0
LINE
8
INTERNAL
10
36.9001
20
-121.0653
30
0.0
11
35.2537
21
-120.8561
31
0.0
0
LINE
8
INTERNAL
10
35.2537
20
-120.8561
30
0.0
11
33.6106
21
-120.6394
31
0.0
0
LINE
8
INTERNAL
10
33.6106
20
-120.6394
30
0.0
11
31.9708
21
-120.4152
31
0.0
0
LINE
8
INTERNAL
10
31.9708
20
-120.4152
30
0.0
11
30.3345
21
-120.1834
31
0.0
0
LINE
8
INTERNAL
10
30.3345
20
-120.1834
30
0.0
11
28.7016
21
-119.9440
31
0.0
0
LINE
8
INTERNAL
10
28.7016
20
-119.9440
30
0.0
11
27.0724
21
-119.6969
31
0.0
0
LINE
8
INTERNAL
10
27.0724
20
-119.6969
30
0.0
11
25.4467
21
-119.4422
31
0.0
0
LINE
8
INTERNAL
10
25.4467
20
-119.4422
30
0.0
11
23.8249
21
-119.1798
31
0.0
0
LINE
8
INTERNAL
10
23.8249
20
-119.1798
30
0.0
11
22.2068
21
-118.9097
31
0.0
0
LINE
8
INTERNAL
10
22.2068
20
-118.9097
30
0.0
11
20.5927
21
-118.6318
31
0.0
0
LINE
8
INTERNAL
10
20.5927
20
-118.6318
30
0.0
11
18.9825
21
-118.3461
31
0.0
0
LINE
8
INTERNAL
10
18.9825
20
-118.3461
30
0.0
11
17.3764
21
-118.0526
31
0.0
0
LINE
8
INTERNAL
10
17.3764
20
-118.0526
30
0.0
11
15.7744
21
-117.7513
31
0.0
0
LINE
8
INTERNAL
10
15.7744
20
-117.7513
30
0.0
11
14.1767
21
-117.4421
31
0.0
0
LINE
8
INTERNAL
10
14.1767
20
-117.4421
30
0.0
11
12.5832
21
-117.1250
31
0.0
0
LINE
8
INTERNAL
10
12.5832
20
-117.1250
30
0.0
11
10.9941
21
-116.7999
31
0.0
0
LINE
8
INTERNAL
10
10.9941
20
-116.7999
30
0.0
11
9.4095
21
-116.4669
31
0.0
0
LINE
8
INTERNAL
10
9.4095
20
-116.4669
30
0.0
11
7.8295
21
-116.1259
31
0.0
0
LINE
8
INTERNAL
10
7.8295
20
-116.1259
30
0.0
11
6.2540
21
-115.7769
31
0.0
0
LINE
8
INTERNAL
10
6.2540
20
-115.7769
30
0.0
11
4.6833
21
-115.4198
31
0.0
0
LINE
8
INTERNAL
10
4.6833
20
-115.4198
30
0.0
11
3.1173
21
-115.0547
31
0.0
0
LINE
8
INTERNAL
10
3.1173
20
-115.0547
30
0.0
11
1.5562
21
-114.6814
31
0.0
0
LINE
8
INTERNAL
10
1.5562
20
-114.6814
30
0.0
11
0.0000
21
-114.3000
31
0.0
0
ENDSEC
0
EOF
